<?xml version="1.0" encoding="utf-8"?>
<!-- Generator: Adobe Illustrator 25.0.0, SVG Export Plug-In . SVG Version: 6.00 Build 0)  -->
<svg version="1.1" id="Layer_1" xmlns="http://www.w3.org/2000/svg" xmlns:xlink="http://www.w3.org/1999/xlink" x="0px" y="0px"
	 viewBox="0 0 86 32" style="enable-background:new 0 0 86 32;" xml:space="preserve">
<style type="text/css">
	.st0{fill:#AE201F;}
</style>
<g>
	<g>
		<g>
			<g>
				<path d="M0.05,8.93h1.96c0.29,0,0.55,0.04,0.78,0.12c0.23,0.08,0.43,0.2,0.6,0.35c0.16,0.15,0.29,0.34,0.38,0.55
					c0.09,0.21,0.13,0.45,0.13,0.72v0.01c0,0.29-0.05,0.55-0.16,0.77c-0.1,0.22-0.25,0.41-0.43,0.56c-0.18,0.15-0.39,0.26-0.63,0.34
					c-0.24,0.08-0.5,0.12-0.78,0.12H0.91v1.68H0.05V8.93z M1.93,11.64c0.33,0,0.59-0.09,0.79-0.26c0.19-0.17,0.29-0.4,0.29-0.67
					v-0.02c0-0.31-0.1-0.54-0.29-0.7C2.52,9.83,2.26,9.75,1.93,9.75H0.91v1.89H1.93z"/>
				<path d="M5.68,8.93h3.68v0.83H6.54v1.34h2.49v0.83H6.54v1.39h2.85v0.83H5.68V8.93z"/>
				<path d="M11.32,8.93h2.21c0.31,0,0.59,0.05,0.83,0.14c0.24,0.09,0.44,0.22,0.6,0.38c0.13,0.14,0.23,0.31,0.31,0.5
					s0.11,0.4,0.11,0.63v0.01c0,0.21-0.03,0.41-0.09,0.58c-0.06,0.17-0.14,0.32-0.24,0.45c-0.1,0.13-0.23,0.24-0.37,0.34
					c-0.14,0.09-0.3,0.16-0.48,0.21l1.34,1.98H14.5l-1.22-1.82h-0.01h-1.08v1.82h-0.87V8.93z M13.46,11.51
					c0.31,0,0.56-0.08,0.75-0.24c0.18-0.16,0.28-0.37,0.28-0.64v-0.02c0-0.28-0.09-0.5-0.27-0.65c-0.18-0.15-0.43-0.22-0.76-0.22
					h-1.27v1.76H13.46z"/>
				<path d="M19.08,14.22c-0.38,0-0.75-0.07-1.1-0.2c-0.35-0.14-0.67-0.35-0.97-0.63l0.53-0.66c0.24,0.22,0.48,0.39,0.73,0.5
					c0.25,0.12,0.53,0.17,0.84,0.17c0.27,0,0.48-0.06,0.64-0.18c0.16-0.12,0.24-0.28,0.24-0.48v-0.01c0-0.09-0.02-0.18-0.05-0.25
					c-0.03-0.07-0.09-0.14-0.17-0.2c-0.08-0.06-0.2-0.12-0.34-0.18c-0.14-0.05-0.33-0.11-0.57-0.16c-0.27-0.06-0.5-0.14-0.71-0.22
					c-0.21-0.08-0.38-0.18-0.52-0.3c-0.14-0.12-0.25-0.26-0.32-0.43c-0.07-0.17-0.11-0.37-0.11-0.61v-0.01
					c0-0.22,0.04-0.43,0.13-0.62c0.08-0.19,0.2-0.35,0.35-0.48S18,9.04,18.21,8.96c0.21-0.07,0.43-0.11,0.68-0.11
					c0.36,0,0.69,0.06,0.98,0.17c0.29,0.11,0.56,0.28,0.82,0.49l-0.47,0.69c-0.23-0.17-0.45-0.31-0.67-0.4
					c-0.22-0.09-0.45-0.14-0.67-0.14c-0.26,0-0.45,0.06-0.6,0.18c-0.14,0.12-0.21,0.27-0.21,0.44v0.02c0,0.1,0.02,0.19,0.05,0.26
					c0.03,0.08,0.09,0.15,0.18,0.21c0.09,0.06,0.21,0.12,0.36,0.18c0.15,0.05,0.35,0.11,0.59,0.17c0.26,0.07,0.49,0.15,0.69,0.23
					c0.2,0.08,0.37,0.19,0.5,0.31c0.13,0.12,0.23,0.26,0.3,0.43c0.07,0.16,0.1,0.35,0.1,0.56v0.02c0,0.24-0.04,0.46-0.13,0.66
					c-0.09,0.19-0.21,0.36-0.36,0.49c-0.15,0.13-0.34,0.24-0.56,0.31C19.58,14.19,19.34,14.22,19.08,14.22z"/>
				<path d="M25.13,14.23c-0.38,0-0.73-0.07-1.05-0.21c-0.32-0.14-0.59-0.33-0.82-0.58c-0.23-0.24-0.4-0.53-0.53-0.85
					c-0.13-0.33-0.19-0.67-0.19-1.04v-0.01c0-0.37,0.06-0.71,0.19-1.04s0.31-0.61,0.54-0.86c0.23-0.25,0.51-0.44,0.82-0.59
					c0.32-0.14,0.67-0.22,1.05-0.22s0.73,0.07,1.05,0.21c0.32,0.14,0.59,0.33,0.82,0.58c0.23,0.24,0.4,0.53,0.53,0.85
					c0.13,0.33,0.19,0.67,0.19,1.04v0.01c0,0.37-0.06,0.71-0.19,1.04c-0.13,0.33-0.31,0.61-0.54,0.86s-0.51,0.44-0.82,0.59
					C25.86,14.16,25.51,14.23,25.13,14.23z M25.14,13.39c0.24,0,0.47-0.05,0.67-0.15c0.2-0.1,0.38-0.23,0.53-0.4
					c0.15-0.17,0.26-0.36,0.34-0.59c0.08-0.22,0.12-0.46,0.12-0.72v-0.01c0-0.25-0.04-0.49-0.12-0.72c-0.08-0.23-0.2-0.42-0.35-0.59
					c-0.15-0.17-0.33-0.3-0.53-0.4c-0.21-0.1-0.43-0.15-0.68-0.15c-0.24,0-0.47,0.05-0.67,0.15c-0.2,0.1-0.38,0.23-0.53,0.4
					c-0.15,0.17-0.26,0.36-0.34,0.59c-0.08,0.22-0.12,0.46-0.12,0.72v0.01c0,0.25,0.04,0.49,0.12,0.72c0.08,0.23,0.2,0.42,0.35,0.59
					c0.15,0.17,0.33,0.3,0.53,0.4C24.67,13.34,24.9,13.39,25.14,13.39z"/>
				<path d="M29.68,8.93h0.81l2.66,3.61V8.93h0.87v5.22h-0.73l-2.73-3.71v3.71h-0.87V8.93z"/>
				<path d="M37.93,8.89h0.81l2.19,5.26H40l-0.5-1.26h-2.35l-0.51,1.26h-0.89L37.93,8.89z M39.18,12.07l-0.86-2.09l-0.85,2.09H39.18
					z"/>
				<path d="M42.66,8.93h0.87v4.39h2.61v0.83h-3.48V8.93z"/>
				<path d="M47.99,8.93h0.87v5.22h-0.87V8.93z"/>
				<path d="M50.9,13.47l2.93-3.73h-2.84V8.93h3.97V9.6l-2.93,3.73h2.93v0.81H50.9V13.47z"/>
				<path d="M58.7,8.89h0.81l2.19,5.26h-0.92l-0.5-1.26h-2.35l-0.51,1.26h-0.89L58.7,8.89z M59.95,12.07l-0.86-2.09l-0.85,2.09
					H59.95z"/>
				<path d="M64.66,9.78h-1.57V8.93h4.03v0.85h-1.58v4.37h-0.88V9.78z"/>
				<path d="M68.97,8.93h0.87v5.22h-0.87V8.93z"/>
				<path d="M74.43,14.23c-0.38,0-0.73-0.07-1.05-0.21c-0.32-0.14-0.59-0.33-0.82-0.58c-0.23-0.24-0.4-0.53-0.53-0.85
					c-0.13-0.33-0.19-0.67-0.19-1.04v-0.01c0-0.37,0.06-0.71,0.19-1.04c0.13-0.33,0.31-0.61,0.54-0.86
					c0.23-0.25,0.51-0.44,0.82-0.59c0.32-0.14,0.67-0.22,1.05-0.22c0.38,0,0.73,0.07,1.05,0.21c0.32,0.14,0.59,0.33,0.82,0.58
					c0.23,0.24,0.4,0.53,0.53,0.85c0.13,0.33,0.19,0.67,0.19,1.04v0.01c0,0.37-0.06,0.71-0.19,1.04c-0.13,0.33-0.31,0.61-0.54,0.86
					s-0.51,0.44-0.82,0.59C75.16,14.16,74.81,14.23,74.43,14.23z M74.44,13.39c0.24,0,0.47-0.05,0.67-0.15
					c0.2-0.1,0.38-0.23,0.53-0.4c0.15-0.17,0.26-0.36,0.34-0.59c0.08-0.22,0.12-0.46,0.12-0.72v-0.01c0-0.25-0.04-0.49-0.12-0.72
					c-0.08-0.23-0.2-0.42-0.35-0.59c-0.15-0.17-0.33-0.3-0.53-0.4c-0.21-0.1-0.43-0.15-0.68-0.15c-0.24,0-0.47,0.05-0.67,0.15
					c-0.2,0.1-0.38,0.23-0.53,0.4c-0.15,0.17-0.26,0.36-0.34,0.59c-0.08,0.22-0.12,0.46-0.12,0.72v0.01c0,0.25,0.04,0.49,0.12,0.72
					s0.2,0.42,0.35,0.59c0.15,0.17,0.33,0.3,0.53,0.4C73.97,13.34,74.19,13.39,74.44,13.39z"/>
				<path d="M78.97,8.93h0.81l2.66,3.61V8.93h0.87v5.22h-0.73l-2.73-3.71v3.71h-0.87V8.93z"/>
			</g>
		</g>
		<g>
			<polygon points="32.97,20.96 30.99,17.9 30.99,17.89 30.6,17.89 30.6,23.16 31,23.16 31,18.68 32.92,21.62 32.93,21.63 
				32.99,21.63 34.92,18.68 34.92,23.16 35.33,23.16 35.33,17.89 34.95,17.89 			"/>
			<path d="M39.93,17.85h-0.39l-2.32,5.28l-0.02,0.03h0.44l0.63-1.46h2.9l0.63,1.45l0.01,0.01h0.46l-2.33-5.3L39.93,17.85z M41,21.3
				h-2.55l1.28-2.94L41,21.3z"/>
			<polygon points="44.56,17.89 44.14,17.89 44.14,23.16 47.48,23.16 47.48,22.76 44.56,22.76 			"/>
			<polygon points="49.84,22.76 49.84,17.89 49.42,17.89 49.42,23.16 52.76,23.16 52.76,22.76 			"/>
		</g>
		<g>
			<rect y="20.48" class="st0" width="27.68" height="0.36"/>
			<rect x="55.68" y="20.48" class="st0" width="27.67" height="0.36"/>
		</g>
	</g>
	<g>
		<g>
			<path d="M85.93,9.51c-0.05-0.12-0.12-0.22-0.2-0.3c-0.09-0.09-0.19-0.15-0.3-0.2c-0.12-0.05-0.24-0.08-0.38-0.08
				c-0.13,0-0.26,0.03-0.38,0.08c-0.12,0.05-0.22,0.12-0.31,0.21c-0.09,0.09-0.15,0.19-0.2,0.3c-0.05,0.12-0.07,0.24-0.07,0.37v0.01
				c0,0.13,0.02,0.25,0.07,0.37c0.05,0.12,0.12,0.22,0.2,0.3c0.09,0.09,0.19,0.15,0.3,0.2c0.12,0.05,0.24,0.08,0.38,0.08
				s0.26-0.03,0.38-0.08c0.12-0.05,0.22-0.12,0.31-0.21c0.09-0.09,0.15-0.19,0.2-0.3C85.98,10.14,86,10.01,86,9.88V9.88
				C86,9.75,85.98,9.62,85.93,9.51z M85.9,9.88c0,0.12-0.02,0.23-0.07,0.33c-0.04,0.1-0.1,0.2-0.18,0.27
				c-0.08,0.08-0.17,0.14-0.27,0.19c-0.1,0.05-0.22,0.07-0.34,0.07c-0.12,0-0.23-0.02-0.34-0.07c-0.1-0.04-0.19-0.11-0.27-0.18
				c-0.08-0.08-0.14-0.17-0.18-0.27c-0.04-0.1-0.06-0.22-0.06-0.33V9.88c0-0.12,0.02-0.23,0.07-0.33c0.04-0.1,0.1-0.2,0.18-0.27
				c0.08-0.08,0.17-0.14,0.27-0.19c0.1-0.05,0.22-0.07,0.34-0.07c0.12,0,0.23,0.02,0.34,0.07c0.1,0.05,0.19,0.11,0.27,0.18
				c0.08,0.08,0.14,0.17,0.18,0.27C85.88,9.65,85.9,9.76,85.9,9.88L85.9,9.88z"/>
			<path d="M85.26,9.98c0.07-0.02,0.12-0.05,0.17-0.1c0.04-0.05,0.06-0.12,0.06-0.2V9.67c0-0.09-0.03-0.16-0.08-0.21
				c-0.07-0.07-0.17-0.11-0.3-0.11h-0.45v1h0.19v-0.35h0.2h0.01l0.24,0.35h0.23L85.26,9.98z M85.1,9.84h-0.25V9.53h0.25
				c0.06,0,0.11,0.01,0.15,0.04c0.04,0.03,0.05,0.07,0.05,0.12v0.01c0,0.05-0.02,0.09-0.05,0.11C85.21,9.83,85.16,9.84,85.1,9.84z"
				/>
		</g>
	</g>
</g>
</svg>
