<?xml version="1.0" encoding="utf-8"?>
<!-- Generator: Adobe Illustrator 21.1.0, SVG Export Plug-In . SVG Version: 6.00 Build 0)  -->
<svg version="1.1" id="Layer_1" xmlns="http://www.w3.org/2000/svg" xmlns:xlink="http://www.w3.org/1999/xlink" x="0px" y="0px"
	 viewBox="0 0 146.3 89.5" style="enable-background:new 0 0 146.3 89.5;" xml:space="preserve">
<style type="text/css">
	.st0{fill:#C5006F;}
	.st1{fill:#731472;}
</style>
<path class="st0" d="M24.2,47.6c-1.4,0-2.8,0-3.7,0c-1.2,0-2.3,0-3.5,0v-0.7l1.9-0.2c0.5,0,0.7-0.2,0.7-0.5c0-0.5,0-1.6,0-3.3v-4.4
	c0-1.6,0-2.8,0-3.5c0-0.2,0-0.5-0.2-0.5c-0.5,0-1.4,0-2.1,0l0.2-0.7c1.4-0.2,3.7-0.5,4.2-0.7l0,0c0,0.9,0,2.3,0,5.1v4.4
	c0,1.6,0,2.6,0,3.3c0,0.5,0,0.5,0.5,0.5l1.9,0.2L24.2,47.6z"/>
<path class="st0" d="M26.3,38.2c1.2,0,1.9,0.9,1.9,1.9c0,1.2-0.9,1.9-1.9,1.9c-0.9,0-1.9-0.7-1.9-1.9C24.5,39.2,25.4,38.2,26.3,38.2
	L26.3,38.2z"/>
<path class="st0" d="M34.8,34.3c-1.2,0-2.1,0.7-2.1,2.3c0,0.7,0.2,1.4,0.7,1.9c0.7,0.5,1.6,0.9,2.3,1.4c0.9-0.7,1.4-1.4,1.4-2.8
	C37.3,35.4,36.4,34.3,34.8,34.3L34.8,34.3z M35,47.4c1.4,0,2.3-0.9,2.3-2.3s-0.9-2.3-3.7-3.7c-1.2,0.7-1.9,1.6-1.9,3
	C32,45.7,32.9,47.4,35,47.4L35,47.4z M35.2,33.6c1.9,0,3.7,1.2,3.7,3.3c0,0.7-0.2,1.4-0.7,1.9c-0.5,0.5-0.9,0.9-1.6,1.4
	c2.6,1.4,3,2.6,3,4c0,1.2-0.5,2.1-1.2,2.8c-0.9,0.7-2.1,1.2-3.5,1.2c-2.8,0-4.4-1.4-4.4-3.5c0-0.9,0.5-1.6,0.7-2.1
	c0.5-0.5,1.2-0.9,2.1-1.6c-1.6-0.9-2.3-1.9-2.3-3.5c0-1.2,0.2-1.9,0.7-2.3C32.4,34.3,33.6,33.6,35.2,33.6L35.2,33.6z"/>
<path class="st0" d="M45.5,34.3c-0.7,0-1.2,0.5-1.6,1.2c-0.5,1.2-0.9,3.3-0.9,5.4c0,2.1,0.2,4,0.7,5.1c0.5,0.9,0.9,1.4,1.9,1.4
	c0.7,0,1.2-0.5,1.6-1.2c0.5-0.9,0.7-2.8,0.7-5.1c0-2.6-0.2-4.4-0.7-5.4C46.9,34.7,46.4,34.3,45.5,34.3L45.5,34.3z M45.7,33.6
	c1.2,0,2.3,0.5,3,1.4c1.2,1.2,1.6,3.5,1.6,5.6c0,3.5-0.9,5.4-2.1,6.5c-0.9,0.7-1.9,0.9-2.8,0.9c-1.2,0-2.1-0.5-3-1.2
	c-1.2-1.4-1.6-3.5-1.6-5.8c0-2.6,0.7-4.9,2.3-6.3C43.9,33.8,44.8,33.6,45.7,33.6L45.7,33.6z"/>
<path class="st0" d="M56.3,34.3c-0.7,0-1.2,0.5-1.6,1.2c-0.5,1.2-0.9,3.3-0.9,5.4c0,2.1,0.2,4,0.7,5.1c0.5,0.9,0.9,1.4,1.9,1.4
	c0.7,0,1.2-0.5,1.6-1.2c0.5-0.9,0.7-2.8,0.7-5.1c0-2.6-0.2-4.4-0.7-5.4C57.7,34.7,57.2,34.3,56.3,34.3L56.3,34.3z M56.5,33.6
	c1.2,0,2.3,0.5,3,1.4c1.2,1.2,1.6,3.5,1.6,5.6c0,3.5-0.9,5.4-2.1,6.5c-0.9,0.7-1.9,0.9-2.8,0.9c-1.2,0-2.1-0.5-3-1.2
	c-1.2-1.4-1.6-3.5-1.6-5.8c0-2.6,0.7-4.9,2.3-6.3C54.6,33.8,55.6,33.6,56.5,33.6L56.5,33.6z"/>
<path class="st1" d="M16.3,71c4,0,5.6-4.2,5.6-9.6c0-2.3-0.5-4.2-1.4-5.6c-0.7-1.2-2.1-1.9-3.7-1.9c-2.1,0-4,1.4-4.9,2.8
	c-0.5,0.7-0.5,1.2-0.5,5.8c0,5.1,0.2,5.4,0.7,6.1C13,70.3,14.7,71,16.3,71L16.3,71z M4.6,41.5c2.1,0,5.8-0.2,7.2-0.7
	c0,1.6-0.2,4.7-0.2,10v4c2.3-2.1,4.4-3.3,7.2-3.3c2.8,0,4.7,1.2,6.1,3c0.9,1.6,1.6,3.7,1.6,6.3c0,7-3.7,11.2-10.3,11.2
	c-2.1,0-4.4-0.7-5.6-1.4C10,71,9.1,71.4,8.1,71.9l-0.2-0.2c0-1.6,0-6.3,0-11.7V49.2c0-3.5,0-4.9-0.2-6.1c0-0.7-0.5-0.9-3-0.9
	L4.6,41.5z"/>
<path class="st1" d="M33.4,66.1c0,2.1,1.2,3.7,3.3,3.7c2.1,0,3.5-1.2,4.2-3c0.2-0.5,0.2-1.2,0.2-1.9v-5.1c-1.2,0.7-3.7,1.6-5.4,2.6
	C34.3,63.3,33.4,64,33.4,66.1L33.4,66.1z M40.8,56.7c0-1.9-0.9-3.7-3.5-3.7s-3.7,1.4-3.7,3.3c0,0.5,0,0.9,0.2,1.4
	c0,0.5-0.2,0.7-0.5,0.9c-0.5,0.2-0.9,0.5-1.6,0.5c-0.9,0-2.1-0.5-2.1-2.1c0-2.3,3.3-5.4,8.4-5.4c3.7,0,5.4,1.6,6.1,2.6
	c0.5,0.7,0.7,1.6,0.7,2.3v11.5c0,1.6,0.5,2.1,1.2,2.1c0.7,0,1.4-0.9,1.9-2.8l1.2,0.5c-0.7,3.3-2.3,4.4-4.4,4.4
	c-2.3,0-3.3-1.4-3.5-3.3c-2.1,2.1-4.4,3.3-6.5,3.3c-3.5,0-5.6-2.3-5.6-5.6c0-1.9,0.7-3.3,2.6-4c3.3-1.4,7.7-2.8,9.6-4L40.8,56.7
	L40.8,56.7z"/>
<path class="st1" d="M62.6,58.8c-0.2-3.5-2.1-5.8-5.1-5.8c-2.1,0-3.3,1.2-3.3,3.3c0,1.4,0.7,2.1,1.6,2.6c1.4,0.7,4.2,1.6,6.1,2.6
	c2.3,0.9,3.3,2.6,3.3,4.7c0,4.4-4.2,6.3-8.2,6.3c-2.3,0-5.1-0.7-6.3-1.4c0-0.9,0.2-4,0-6.5l1.2-0.2c0,0.9,0.2,2.3,0.7,3.5
	c0.7,2.1,2.6,3,4.9,3c2.6,0,4-1.4,4-3.3c0-1.2-0.5-1.9-1.6-2.6c-1.6-0.7-3.7-1.6-5.4-2.3c-2.3-0.9-3.7-2.3-3.7-4.9
	c0-3.7,3-6.1,7-6.1c1.9,0,3.7,0.7,4.4,1.2l0.5-1.6l1.2,0.5c-0.2,2.3-0.5,5.1-0.2,7L62.6,58.8z"/>
<path class="st1" d="M66.3,41.5c2.8,0,5.6-0.2,7-0.5c0,2.1-0.2,5.8-0.2,9.6v10.3c2.1-0.2,5.6-4.4,7-6.5c0.2-0.5,0.2-0.7-0.2-0.7
	l-2.1-0.2v-1.2c2.8,0,6.1,0,8.9-0.2v1.2c-2.3,0.2-3.3,0.5-4.4,1.4s-3.5,3.3-5.1,4.9c2.1,3,6.3,8.6,7.7,10c0.7,0.7,1.2,0.9,2.3,0.9
	h1.4v1.2c-2.3,0-5.4,0.2-7,0.5c-1.6-2.6-5.8-8.2-7-9.6c-0.5-0.7-0.9-0.9-1.4-0.7c0,3,0,5.1,0,7.5c0,0.9,0.5,1.2,2.8,1.2v1.2
	c-1.6,0-3-0.2-5.4-0.2c-2.3,0-3.7,0.2-4.7,0.2v-1.2c2.6,0,2.8-0.5,3-1.2c0-0.7,0.2-3.5,0.2-7.2V50.4c0-3.5,0-5.6,0-7
	c0-0.5-0.2-0.7-0.9-0.7h-1.9V41.5z"/>
<path class="st1" d="M96.9,53c-3,0-4.4,3.7-4.7,7.5H96c2.1,0,3.3-0.2,4-0.2c0.7-0.2,0.9-0.7,0.9-1.6C100.9,56.2,100,53,96.9,53
	L96.9,53z M96.9,72.1c-3.5,0-5.6-1.2-7.2-3c-1.2-1.6-1.9-4.2-1.9-6.8c0-5.6,3.3-10.7,9.6-10.7c6.5,0,7.7,5.1,7.7,7.9
	c0,0.9-0.2,1.6-0.9,1.9s-3,0.5-5.8,0.7c-1.6,0-4,0-5.8,0c0,2.3,0.5,4.7,1.4,5.8c0.9,1.6,2.3,2.3,4.4,2.3c2.8,0,4.4-1.4,5.6-4.4
	l1.2,0.7C103.7,70.5,100.7,72.1,96.9,72.1"/>
<path class="st1" d="M120.1,52.3l-0.2,1.4l-6.1,0.2c0,1.6,0,3.5,0,7c0,4,0,6.3,0.2,7.7c0.2,1.2,0.9,1.9,2.1,1.9c2.1,0,3-1.6,3.7-3.7
	h0.5l0.5,1.6c-1.2,2.6-3.5,4-6.3,4c-2.1,0-3.5-0.7-4-1.6c-0.5-0.7-0.7-1.6-0.7-2.8c0-3.5,0.2-10.3,0.2-13.8l-3-0.2l0.2-1.4h3v-5.1
	c1.6-0.7,3.3-1.4,3.7-2.1l0.5,0.2c0,1.2-0.2,4.4-0.2,7h5.8V52.3z"/>
<path class="st1" d="M135,58.8c-0.2-3.5-2.1-5.8-5.1-5.8c-2.1,0-3.3,1.2-3.3,3.3c0,1.4,0.7,2.1,1.6,2.6c1.4,0.7,4.2,1.6,6.1,2.6
	c2.3,0.9,3.3,2.6,3.3,4.7c0,4.4-4.2,6.3-8.2,6.3c-2.3,0-5.1-0.7-6.3-1.4c0-0.9,0.2-4,0-6.5l1.2-0.2c0,0.9,0.2,2.3,0.7,3.5
	c0.7,2.1,2.6,3,4.9,3c2.6,0,4-1.4,4-3.3c0-1.2-0.5-1.9-1.6-2.6c-1.6-0.7-3.7-1.6-5.4-2.3c-2.3-0.9-3.7-2.3-3.7-4.9
	c0-3.7,3-6.1,7-6.1c1.9,0,3.7,0.7,4.4,1.2l0.5-1.6l1.2,0.5c-0.2,2.3-0.5,5.1-0.2,7L135,58.8z"/>
<g>
	<path class="st0" d="M96.9,82c0.9,0,1.6,0.7,1.6,1.9c0,1.2-0.7,1.9-1.6,1.9c-0.9,0-1.6-0.7-1.6-1.9C95.2,82.7,95.9,82,96.9,82
		L96.9,82z"/>
	<path class="st0" d="M109,82.5c-0.5,1.9-1.9,3-4.2,3c-1.6,0-2.8-0.5-3.5-1.4c-0.7-0.7-1.2-2.1-1.2-3.5c0-2.8,1.9-5.4,5.1-5.4
		c2.1,0,3.5,0.9,3.5,2.3c0,0.7-0.5,1.2-1.2,1.2c-0.2,0-0.5,0-0.5-0.2c-0.2,0-0.2-0.2-0.2-0.5c0-0.2,0-0.5,0-0.7
		c0-0.9-0.5-1.6-1.9-1.6c-1.9,0-2.8,1.9-2.8,4.4c0,1.2,0.2,2.1,0.7,2.8c0.5,0.9,1.4,1.4,2.3,1.4c1.4,0,2.3-0.7,2.8-2.3L109,82.5z"/>
	<path class="st0" d="M114.9,76.2c-0.9,0-1.4,0.5-1.9,1.2c-0.5,0.7-0.7,1.9-0.7,3c0,1.4,0.2,2.6,0.7,3.3c0.5,0.9,1.2,1.4,2.1,1.4
		s1.4-0.5,1.9-1.2c0.2-0.7,0.5-1.9,0.5-3c0-1.4-0.2-2.6-0.7-3.3C116.5,76.6,116,76.2,114.9,76.2L114.9,76.2z M115.1,75.5
		c3,0,4.9,2.1,4.9,5.1s-1.9,5.1-4.9,5.1c-3.3,0-4.9-2.1-4.9-5.1C110,77.8,111.8,75.5,115.1,75.5L115.1,75.5z"/>
	<path class="st0" d="M122.8,79.4c0-1.2,0-2.1,0-2.8c0-0.2-0.2-0.5-1.4-0.5v-0.7c0.9,0,2.3,0,3.3-0.2c0,0.5,0,1.4,0.2,1.9
		c0.7-0.9,2.1-1.9,3.7-1.9c1.2,0,1.9,0.5,2.1,0.9c0.2,0.2,0.2,0.5,0.5,0.9c0.7-0.7,1.9-1.9,3.7-1.9c1.4,0,2.1,0.7,2.3,1.2
		c0.2,0.5,0.2,0.9,0.2,1.4v6.1c0,0.5,0,0.5,1.4,0.7v0.7c-0.7,0-1.6,0-2.6,0s-1.6,0-2.3,0v-0.7c0.9,0,1.2-0.2,1.4-0.5
		c0-0.5,0-1.4,0-3.3c0-2.8,0-3-0.2-3.5c-0.2-0.5-0.7-0.9-1.6-0.9s-1.9,0.7-2.3,1.4c-0.2,0.2-0.2,0.7-0.2,0.9v3c0,0.9,0,1.6,0,2.1
		c0,0.5,0.2,0.5,1.4,0.5v0.7c-0.5,0-1.6,0-2.6,0s-1.6,0-2.3,0v-0.2c0.9,0,1.2,0,1.4-0.7c0-0.7,0-1.4,0-2.8v-1.9c0-1.4,0-1.9-0.2-2.1
		c-0.2-0.7-0.7-0.9-1.4-0.9c-0.9,0-1.9,0.7-2.3,1.6c-0.2,0.5-0.2,0.7-0.2,1.2v3c0,0.9,0,1.6,0,2.1s0.2,0.5,1.4,0.5v0.7
		c-0.5,0-1.6,0-2.3,0c-0.9,0-1.6,0-2.3,0v-0.7c1.2,0,1.4,0,1.4-0.7c0-0.5,0-1.4,0-2.8V79.4z"/>
	<path class="st0" d="M139.9,83.9c0-0.2,0-0.2-0.2-0.2c-0.2,0-0.2,0-0.2,0.2c0,0.5,0.7,0.2,0.7,0.9c0,0.5-0.2,0.5-0.5,0.5
		c-0.2,0-0.5-0.2-0.5-0.7h0.2c0,0.2,0,0.5,0.2,0.5c0.2,0,0.2-0.2,0.2-0.2c0-0.5-0.7-0.2-0.7-0.9c0-0.2,0-0.5,0.5-0.5
		C139.9,83.4,140.1,83.7,139.9,83.9L139.9,83.9z"/>
	<polygon class="st0" points="141.3,83.4 140.8,85.1 140.8,85.1 140.6,83.4 140.3,83.4 140.3,85.3 140.6,85.3 140.6,83.7 
		140.6,83.7 140.8,85.3 141,85.3 141.3,83.7 141.3,83.7 141.3,85.3 141.5,85.3 141.5,83.4 	"/>
</g>
<g>
	<path class="st0" d="M96.3,16.3c0.2,0.5,0.2,0.7,0.7,0.9c0.2,0,0.2,0.2,0.5,0.2l13.8-0.2l-0.7,10c0.5,0,0.9-0.2,1.2-0.2l0.5-11
		L96.3,16.3z"/>
	<path class="st0" d="M77.4,34.8l1.6-0.5l-3.5-7.9l11.2-4c0-0.7,0.2-1.2,0.7-1.6l-14,4.9L77.4,34.8z"/>
	<path class="st0" d="M99.4,27.8L99.4,27.8c-0.2-2.3-0.2-4.7-0.7-6.5c-0.2-0.7-0.5-1.4-0.9-1.9c-0.2-0.5-0.7-0.7-1.2-1.2l0,0
		c-0.5-0.5-0.9-0.7-1.2-1.2c-0.5-1.2-0.7-2.8-0.7-4.4c0-1.2-0.2-2.3-0.5-3.3V9.1H94c-0.5,0-1.4,0-2.3,0l0,0c-0.2,0-0.7,0.2-0.9,0.2
		l-0.2,0.2v0.2c0,0.7,0,1.6,0.2,2.6c0.2,2.1,0.5,4.2,0,5.6l0,0c-1.4,1.6-2.1,3.3-2.1,4.4c0,1.9,0.2,4.2,0.7,6.5c0,0.9,0.2,1.9,0.5,3
		v0.2H90c0.2,0,0.7-0.2,0.9-0.2l0,0l0,0c-0.2-1.4-0.2-3-0.5-4.4c0-0.5-0.2-1.2-0.2-1.6c-0.2-2.3-0.5-4.2,1.4-7l0,0l0,0l0,0l0,0
		c0.9-1.9,0.5-4.9,0.2-7c0-0.5,0-0.7-0.2-1.2h0.2l0,0c0.9-0.2,1.4-0.2,1.4,0c0.2,0.7,0.2,1.4,0.2,2.1c0,0.7,0.2,1.6,0.2,2.6
		c0,0.2,0,0.7,0.2,0.9c0,0.7,0.2,1.4,0.5,2.1c0.2,0.5,0.7,0.9,1.4,1.4c0.5,0.2,0.7,0.5,0.9,0.7c0.5,0.5,0.9,1.4,0.9,2.1
		c0.5,1.9,0.5,4,0.7,6.3c0,0.7,0,1.2,0.2,1.9v0.2l1.2-0.2l0,0C99.4,29.2,99.4,28.5,99.4,27.8"/>
	<path class="st0" d="M90.3,5.8c8.4-1.9,16.4,2.6,18,9.6c0.5,0,0.9,0,1.4,0C108,7.5,99.1,2.6,89.8,4.4c-7.2,1.6-12.4,6.8-13.6,12.9
		c0.5-0.5,0.9-0.5,1.4-0.5C79.1,11.9,84,7.2,90.3,5.8"/>
	<path class="st1" d="M75.5,9.1c-0.9-2.6-3.5-4-4.4-2.3c-0.9,1.6-1.4,4.9,2.3,9.1c0,0-3.3-3-7.7-3.5c-2.8-0.2-4.2,3-1.4,4.7
		c2.3,1.4,7,1.2,7.5,1.2l0,0l0,0c-0.7,0-5.1,0.5-6.3,4c-0.9,3,2.1,6.5,4,6.3c3-0.5,5.1-7.7,4.4-9.6c-0.2,1.9-1.9,7-4.2,7.2
		c-1.9,0.2-2.8-2.3-1.9-4.4c1.4-3.3,6.3-3.3,6.3-3.7c0-0.2-3.7-0.2-6.8-1.2c-3-0.9-1.6-3.7,1.4-2.8c4,1.2,5.8,3.5,5.8,3.3
		c0.2-0.2-1.6-1.6-2.6-5.4c-0.9-3.5,0.7-4.9,2.3-2.1c1.2,1.6,0.9,3.7,0.7,5.8C75.8,15.2,76.7,12.1,75.5,9.1"/>
	<path class="st1" d="M79.1,19.6c3.7,0.9,6.5-0.2,7.7-5.8C86.3,15.2,84,19.4,79.1,19.6"/>
	<path class="st1" d="M86.8,13.8c0-0.2,0-0.2,0-0.2V13.8"/>
	<path class="st1" d="M77.2,32.5c1.9-1.4,5.6-5.6,0.9-11.9C78.1,20.5,80.9,26.6,77.2,32.5"/>
	<path class="st1" d="M77.9,19.6c0.5-0.7,0.5-1.6,0-2.1c-0.5-0.5-1.4,0-1.9,0.7c-0.5,0.7-0.5,1.6,0,2.1
		C76.5,20.8,77.4,20.5,77.9,19.6"/>
	<rect x="87.9" y="41.1" transform="matrix(0.9723 -0.2339 0.2339 0.9723 -7.3206 21.8884)" class="st0" width="1.4" height="1.4"/>
	<rect x="90.3" y="40.6" transform="matrix(0.9741 -0.2261 0.2261 0.9741 -6.9916 21.6379)" class="st0" width="1.4" height="1.4"/>
	<rect x="89.8" y="38.3" transform="matrix(0.9745 -0.2242 0.2242 0.9745 -6.4406 21.2849)" class="st0" width="1.4" height="1.4"/>
	<polygon class="st0" points="88.4,43.7 88.6,44.6 88.2,44.6 90,44.4 89.8,43.4 	"/>
	<polygon class="st0" points="86.1,44.1 86.8,44.8 87.7,44.8 87.5,43.9 	"/>
	<polygon class="st0" points="83.7,42.3 85.1,43.4 87.2,43 87,41.6 	"/>
	<rect x="87.5" y="38.8" transform="matrix(0.9723 -0.2339 0.2339 0.9723 -6.7858 21.7171)" class="st0" width="1.4" height="1.4"/>
	<polygon class="st0" points="76.9,36 82.8,41.3 86.8,40.6 86.3,39.2 83.3,39.7 83,38.8 88.4,37.6 87.9,36.2 89.1,36 89.3,37.4 
		90.7,37.1 90,34.1 91,33.9 91.7,36.9 98.7,35.3 98.9,36.2 91.9,37.8 92.4,39.2 95.6,38.5 95.9,39.5 92.6,40.2 92.8,41.6 99.9,40.2 
		99.9,41.1 93.1,42.5 93.3,43.7 106.9,41.3 112.7,28 	"/>
	<polygon class="st0" points="90.7,43.2 91,44.1 92.4,43.9 92.1,42.7 	"/>
	<polygon class="st1" points="74.4,35.3 81.4,41.8 82.6,41.6 82.8,41.3 76.9,36 112.7,28 106.9,41.3 93.3,43.7 93.5,44.4 93.5,44.8 
		107.6,42.5 114.8,26.4 	"/>
	<polygon class="st1" points="91,44.1 91,44.8 91.2,45.3 92.6,45.1 92.6,44.4 92.4,43.9 	"/>
	<polygon class="st1" points="83.5,42.3 82.3,42.5 86.3,46.2 90.3,45.5 90,44.8 90,44.4 88.2,44.6 87.7,44.8 87.7,44.8 86.8,44.8 
		86.1,44.1 85.6,44.4 84.9,44.6 84.7,43.4 84.7,43.4 85.1,43.4 83.7,42.3 	"/>
</g>
</svg>
