<?xml version="1.0" encoding="utf-8"?>
<!-- Generator: Adobe Illustrator 21.1.0, SVG Export Plug-In . SVG Version: 6.00 Build 0)  -->
<svg version="1.1" id="Layer_1" xmlns="http://www.w3.org/2000/svg" xmlns:xlink="http://www.w3.org/1999/xlink" x="0px" y="0px"
	 viewBox="0 0 512 255" style="enable-background:new 0 0 512 255;" xml:space="preserve">
<style type="text/css">
	.st0{fill:#5E3327;}
</style>
<path class="st0" d="M61.1,178.2c-36.2,0-52.4-26.7-52.4-57.8C8.7,59.5,66.7,10,111,10c19.3,0,33.3,9.5,33.3,28.4
	c0,22.2-22,44.1-45.6,44.1c-11.2,0-17.8-5.6-11.4-12.8c5,2.5,9.9,3.7,14.5,3.7c20.2,0,34.7-19.1,34.7-35.7c0-13.7-9.7-21.1-24-21.1
	c-36,0-89.8,47.3-89.8,102.8c0,27.1,12.6,49.9,42.4,49.9c25.1,0,57.5-21.9,73.8-42.8c3.1,1.4,3.7-0.8,3.7,1.2
	C142.8,128.5,109.6,178.2,61.1,178.2z"/>
<g>
	<path class="st0" d="M321.8,126c-9.7,11.8-19.9,29.1-30.5,29.1c-3.3,0-5-2.1-5-5.2c0-11.4,13.6-27,13.8-36.6
		c0.2-6.6-11.8-9.9-19.1-17.2c2.5-4.8,3.7-9.3,3.7-12.6c0-6-3.5-8.9-7-8.9c-4.8,0-8.9,4.8-8.9,10.8c0,11.7,20.5,21.5,20.5,25.6
		c0,8.8-15,22.8-15,40c0,6.8,4.1,12,12.2,12c13,0,23.9-15.2,35.7-30.5L321.8,126z M277.8,92c-2.1-3.3-2.7-5.8-2.7-7.7
		c0-2.3,1.5-3.7,2.7-3.7s2.3,1,2.3,3.3C280.1,85.6,279.4,88.3,277.8,92z"/>
	<path class="st0" d="M278.6,93.6l-1.7,0.7c-0.4,0.6-25.6,55.7-49.9,55.7c-24.6,0-5.3-51.6,13.9-51.6c1.9,0,4.9-5.7-1.3-5.7
		c-19.1,0-36.1,25.2-36.1,43.6c0,12,6.4,21.3,18.9,21.3c32.3,0,58.8-61.5,58.8-61.6C281.2,95.9,281.4,90.8,278.6,93.6z"/>
	<path class="st0" d="M239.8,92.6c25.2,0,9.3,41.2-29.8,41.1c0,0-5.4-4.6,0.6-5.1c28.8,0,44.1-30.4,30.4-30.4"/>
</g>
<path class="st0" d="M211.7,126.8c-9.9,10.6-21.6,23.8-29.4,23.8c-3.6,0-5-1.7-5-4.6c0-8.6,12.1-33.8,12.1-40.5
	c0-4.2-3.8-6.7-8.2-6.7c-10.7,0-23.7,12.2-34.9,23.5c3.4-8.6,6.7-16.8,9-22.5c19.5-14.7,47.9-40.7,49.1-63.8c0.4-7.6-2.9-12-8.2-12
	c-17.8,0-38.8,45.1-46.2,61.7c-4,8.6-25.2,60.4-25.2,69.6c0,3.6,2.3,5.2,5,5.2c1.5,0,3.4-0.4,5-1.5c1.3-6.5,3.6-15.3,6.9-24.5
	c9.9-12,26.2-29,34.2-29c1.5,0,2.1,0.6,2.1,1.9c0,4.8-12.5,28.9-12.5,39.6c0,6.9,4.6,10.5,11.8,10.5c13.4,0,28.1-17.1,36.8-27.6
	C213,128.7,212.5,127.8,211.7,126.8z M196.4,30.3c2.1,0,2.9,2.3,2.7,5c-0.4,8.8-12.2,33.2-40.3,55C169.1,65.6,188,30.3,196.4,30.3z"
	/>
<g>
	<path class="st0" d="M455.3,63.9c2.3-2.1,4.5-6,4.6-8.9c0.1-3-2.5-4.1-2.4-7.4c0.1-3.6,3.3-6.2,6.3-6.1c3.6,0.1,6.1,3.1,5.9,7
		C469.4,55,461.3,65.3,457,65C456.2,65,455.5,64.6,455.3,63.9z"/>
	<path class="st0" d="M495,142.3c-0.5-0.6-1.4-0.7-2-0.2c-2.6,2.1-7.5,7-17.9,7c-3,0-5.8-0.3-8.5-0.8c0-0.4,0-0.8,0-1.2
		c0-16.9-9.8-30.9-9.8-41.4c0-6.9,4.4-10,7.9-10c1.5,0,3.3,0.6,4.8,2.5c2.3-0.6,3.3-2.1,3.3-3.8c0-2.7-3.8-5.2-8.6-5.2
		c-5.2,0-10.5,3.1-13.4,8.2c-5.4,8.8-36.8,53.4-54.5,53.4c-9,0-9.9-14.6-9.2-22.2c30-24.9,61.2-75.2,61.2-94.9
		c0-5.9-2.9-8.8-7.5-8.8c-13.8,0-37.2,30.1-51.6,60.6c-7.7,16.3-13,33.7-13,48.7c0,14.7,5.9,25.7,16.4,25.7
		c22.7,0,51.9-45.3,55.8-50.3c1,10.2,6.8,21.6,6.9,36.1c-4.8-1.2-9.8-2.4-15.5-2.4c-28.4,0-29.6,33.9-0.9,34.2l0,0c0,0,0,0,0.1,0
		s0.1,0,0.2,0l0,0c13.1-0.7,24.1-9.4,26.6-23.9c2.4,0.3,5.2,0.5,8.5,0.5c12.4,0,17.9-7.5,20.4-10.1
		C495.4,143.6,495.4,142.8,495,142.3z M440.4,30.2c1.5,0,2.7,1,2.7,3.1c0,11.6-23.9,60.2-55,87.9C396.4,84.6,429.1,30.2,440.4,30.2z
		 M438.2,170.5c-18.5-0.4-14.8-21.6,1.5-21.6c6.9,0,11.3,1.1,15.6,2.3C453.7,163.1,446.8,170.1,438.2,170.5z"/>
</g>
<path class="st0" d="M364.9,143.9C364.9,143.9,364.9,144,364.9,143.9c0.8,1.3,2.1,1.6,3.3,0.7c7.1-5.6,16.8-13.8,21.4-17.9l-0.9-6
	c-5.6,4.9-14.2,13.1-23.1,20.3C364.6,141.7,364.5,142.8,364.9,143.9z"/>
<g>
	<path class="st0" d="M138.8,200.3c0,0.3-0.2,0.7-0.6,0.9c-2.4,1.8-5.1,2.9-9.5,2.9c-7.9,0-14-5.7-14-13.9c0-8.5,6.3-14.3,14.1-14.3
		c4.3,0,7,1.2,9.5,2.9c0.3,0.3,0.5,0.6,0.5,0.9c0,0.2-0.1,0.5-0.2,0.8l-1.6,2.4c-0.2,0.3-0.5,0.5-0.7,0.5c-0.3,0-0.6-0.2-0.8-0.3
		c-1.8-1-4-2-6.5-2c-5.1,0-8.7,3.9-8.7,9.2c0,5,3.5,8.9,8.7,8.9c2.5,0,4.9-0.9,6.6-2.1c0.3-0.2,0.6-0.3,0.8-0.3
		c0.3,0,0.5,0.2,0.8,0.5l1.5,2.5C138.8,199.9,138.8,200.2,138.8,200.3z"/>
	<path class="st0" d="M144.1,190.1c0-8,6.2-14.1,14.2-14.1s14.1,6.2,14.1,14.1s-6.2,14.1-14.4,14.1
		C150.2,204.2,144.1,198.1,144.1,190.1z M166.9,190.1c0-5.2-3.9-9.1-8.7-9.1c-4.9,0-8.6,3.9-8.6,9.1c0,5.1,3.7,9,8.5,9
		C163,199.1,166.9,195.2,166.9,190.1z"/>
	<path class="st0" d="M178.8,190.1c0-8,6.2-14.1,14.2-14.1s14.1,6.2,14.1,14.1s-6.2,14.1-14.4,14.1
		C184.9,204.2,178.8,198.1,178.8,190.1z M201.6,190.1c0-5.2-3.9-9.1-8.7-9.1c-4.9,0-8.6,3.9-8.6,9.1c0,5.1,3.7,9,8.5,9
		C197.7,199.1,201.6,195.2,201.6,190.1z"/>
	<path class="st0" d="M216.4,167.1h2.9c0.9,0,1.2,0.3,1.2,1.2v34c0,0.9-0.3,1.2-1.2,1.2h-2.9c-0.9,0-1.2-0.3-1.2-1.2v-34
		C215.2,167.4,215.5,167.1,216.4,167.1z M221.4,189.9c0-0.3,0.2-0.5,0.4-0.8l9.6-11.4c0.6-0.7,1-1,2-1h4c0.6,0,0.8,0.2,0.8,0.5
		c0,0.2-0.1,0.5-0.4,0.8l-10.1,11.7l11.3,12.7c0.2,0.2,0.3,0.4,0.3,0.7c0,0.3-0.3,0.5-0.8,0.5h-4.2c-1,0-1.5-0.3-2.1-1l-10.5-11.9
		C221.5,190.4,221.4,190.1,221.4,189.9z"/>
	<path class="st0" d="M248.5,166.7c2,0,3.4,1.5,3.4,3.4s-1.4,3.4-3.4,3.4s-3.4-1.5-3.4-3.4S246.5,166.7,248.5,166.7z M247.1,176.6
		h2.9c0.9,0,1.2,0.3,1.2,1.2v24.5c0,0.9-0.3,1.2-1.2,1.2h-2.9c-0.9,0-1.2-0.3-1.2-1.2v-24.5C245.8,176.9,246.2,176.6,247.1,176.6z"
		/>
	<path class="st0" d="M283.5,199.9c0,0.3-0.2,0.7-0.6,0.9c-2.5,1.9-6,3.3-10.6,3.3c-8.5,0-13.9-6.2-13.9-14
		c0-8.3,5.8-14.3,13.5-14.3s13.2,5.9,13.2,13.6v0.9c0,0.7-0.3,1-0.9,1H264c0.4,4.6,3.8,8,8.8,8c3.2,0,5.9-1.2,7.8-2.5
		c0.3-0.2,0.6-0.3,0.9-0.3s0.5,0.1,0.7,0.5l1.2,2C283.4,199.4,283.5,199.7,283.5,199.9z M271.9,180.5c-3.9,0-6.8,2.5-7.8,6.9h15.4
		C278.8,183.3,276,180.5,271.9,180.5z"/>
	<path class="st0" d="M293.1,196.8c0.2,0,0.4,0.1,0.7,0.3c2.2,1.5,5.1,2.6,7.9,2.6c3.2,0,5.4-1.3,5.4-3.4c0-2.2-1.8-2.8-6.4-4
		c-5.9-1.6-9.1-3.7-9.1-8.4c0-5.2,4.5-8,10.1-8c4.1,0,7.3,1,10,2.8c0.3,0.2,0.5,0.4,0.5,0.7c0,0.2-0.1,0.4-0.3,0.8l-1.3,2.2
		c-0.2,0.3-0.4,0.4-0.7,0.4c-0.2,0-0.4-0.1-0.7-0.2c-2.1-1.2-4.6-2.3-7.4-2.3c-2.6,0-4.7,1.2-4.7,3.2c0,2.2,2.3,3.2,6.4,4.2
		c6.4,1.6,9.2,3.5,9.2,8.3c0,5.1-4.2,8-10.9,8c-4.1,0-7.8-1.2-10.4-3.1c-0.3-0.3-0.5-0.5-0.5-0.8c0-0.2,0.1-0.4,0.3-0.8l1.4-2.2
		C292.7,197,292.9,196.8,293.1,196.8z"/>
</g>
<path class="st0" d="M371.8,102.5c-1.5-2.3-3.8-4-6.1-4c-0.5,0-1,0.1-1.4,0.2s-0.7,0.2-1.1,0.4c-0.8,0.3-1.5,0.8-2.2,1.6
	c-2.5,2.7-12.3,30.2-14.9,34c-1.6,2.4-9.6,15.6-18.7,15.6c-9.3,0-4.7-15.2-2.8-20c0.8-2.1,12.6-23.4,12.6-29.2
	c0-2.5-1.1-4.4-3.1-5.3c-1-0.5-2.2-0.8-3.6-0.8c-0.6,0-1.2,0.1-1.9,0.1c-0.2,0-0.4,0.1-0.5,0.1c-0.6,0.1-1.3,0.2-2,0.4
	c0,1-0.1,2.1-0.3,3.1c-1.7,12.1-13.4,28.6-15,41c-1.3,7.1,0.7,18.8,12.9,18.8c11.5,0,19.2-10.6,24.1-17.5
	c-1.3,5.4-6.7,22.5-11.1,34.5l0,0c-4.2,12.2-17.4,60.4-50.7,60.9c-21.4,0.3-22.1-17.4-21.3-23.7c0.3-2-0.7-2.4-1.8-2.4
	c-1.3,0-2.9,0-4.5,0c-1.8,0-2.6,0.4-2.8,1.8c-1.4,10.1,4.2,31.8,29.3,31.8c45,0,62.4-67.2,67.2-82.2
	C359.3,138.7,363.9,121,371.8,102.5z"/>
<path class="st0" d="M61.1,178.2c-36.2,0-52.4-26.7-52.4-57.8C8.7,59.5,66.7,10,111,10c19.3,0,33.3,9.5,33.3,28.4
	c0,22.2-22,44.1-45.6,44.1c-11.2,0-17.8-5.6-11.4-12.8c5,2.5,9.9,3.7,14.5,3.7c20.2,0,34.7-19.1,34.7-35.7c0-13.7-9.7-21.1-24-21.1
	c-36,0-89.8,47.3-89.8,102.8c0,27.1,12.6,49.9,42.4,49.9c25.1,0,57.5-21.9,73.8-42.8c3.1,1.4,3.7-0.8,3.7,1.2
	C142.8,128.5,109.6,178.2,61.1,178.2z"/>
<g>
	<path class="st0" d="M321.8,126c-9.7,11.8-19.9,29.1-30.5,29.1c-3.3,0-5-2.1-5-5.2c0-11.4,13.6-27,13.8-36.6
		c0.2-6.6-11.8-9.9-19.1-17.2c2.5-4.8,3.7-9.3,3.7-12.6c0-6-3.5-8.9-7-8.9c-4.8,0-8.9,4.8-8.9,10.8c0,11.7,20.5,21.5,20.5,25.6
		c0,8.8-15,22.8-15,40c0,6.8,4.1,12,12.2,12c13,0,23.9-15.2,35.7-30.5L321.8,126z M277.8,92c-2.1-3.3-2.7-5.8-2.7-7.7
		c0-2.3,1.5-3.7,2.7-3.7s2.3,1,2.3,3.3C280.1,85.6,279.4,88.3,277.8,92z"/>
	<path class="st0" d="M278.6,93.6l-1.7,0.7c-0.4,0.6-25.6,55.7-49.9,55.7c-24.6,0-5.3-51.6,13.9-51.6c1.9,0,4.9-5.7-1.3-5.7
		c-19.1,0-36.1,25.2-36.1,43.6c0,12,6.4,21.3,18.9,21.3c32.3,0,58.8-61.5,58.8-61.6C281.2,95.9,281.4,90.8,278.6,93.6z"/>
	<path class="st0" d="M239.8,92.6c25.2,0,9.3,41.2-29.8,41.1c0,0-5.4-4.6,0.6-5.1c28.8,0,44.1-30.4,30.4-30.4"/>
</g>
<path class="st0" d="M211.7,126.8c-9.9,10.6-21.6,23.8-29.4,23.8c-3.6,0-5-1.7-5-4.6c0-8.6,12.1-33.8,12.1-40.5
	c0-4.2-3.8-6.7-8.2-6.7c-10.7,0-23.7,12.2-34.9,23.5c3.4-8.6,6.7-16.8,9-22.5c19.5-14.7,47.9-40.7,49.1-63.8c0.4-7.6-2.9-12-8.2-12
	c-17.8,0-38.8,45.1-46.2,61.7c-4,8.6-25.2,60.4-25.2,69.6c0,3.6,2.3,5.2,5,5.2c1.5,0,3.4-0.4,5-1.5c1.3-6.5,3.6-15.3,6.9-24.5
	c9.9-12,26.2-29,34.2-29c1.5,0,2.1,0.6,2.1,1.9c0,4.8-12.5,28.9-12.5,39.6c0,6.9,4.6,10.5,11.8,10.5c13.4,0,28.1-17.1,36.8-27.6
	C213,128.7,212.5,127.8,211.7,126.8z M196.4,30.3c2.1,0,2.9,2.3,2.7,5c-0.4,8.8-12.2,33.2-40.3,55C169.1,65.6,188,30.3,196.4,30.3z"
	/>
<g>
	<path class="st0" d="M455.3,63.9c2.3-2.1,4.5-6,4.6-8.9c0.1-3-2.5-4.1-2.4-7.4c0.1-3.6,3.3-6.2,6.3-6.1c3.6,0.1,6.1,3.1,5.9,7
		C469.4,55,461.3,65.3,457,65C456.2,65,455.5,64.6,455.3,63.9z"/>
	<path class="st0" d="M495,142.3c-0.5-0.6-1.4-0.7-2-0.2c-2.6,2.1-7.5,7-17.9,7c-3,0-5.8-0.3-8.5-0.8c0-0.4,0-0.8,0-1.2
		c0-16.9-9.8-30.9-9.8-41.4c0-6.9,4.4-10,7.9-10c1.5,0,3.3,0.6,4.8,2.5c2.3-0.6,3.3-2.1,3.3-3.8c0-2.7-3.8-5.2-8.6-5.2
		c-5.2,0-10.5,3.1-13.4,8.2c-5.4,8.8-36.8,53.4-54.5,53.4c-9,0-9.9-14.6-9.2-22.2c30-24.9,61.2-75.2,61.2-94.9
		c0-5.9-2.9-8.8-7.5-8.8c-13.8,0-37.2,30.1-51.6,60.6c-7.7,16.3-13,33.7-13,48.7c0,14.7,5.9,25.7,16.4,25.7
		c22.7,0,51.9-45.3,55.8-50.3c1,10.2,6.8,21.6,6.9,36.1c-4.8-1.2-9.8-2.4-15.5-2.4c-28.4,0-29.6,33.9-0.9,34.2l0,0c0,0,0,0,0.1,0
		s0.1,0,0.2,0l0,0c13.1-0.7,24.1-9.4,26.6-23.9c2.4,0.3,5.2,0.5,8.5,0.5c12.4,0,17.9-7.5,20.4-10.1
		C495.4,143.6,495.4,142.8,495,142.3z M440.4,30.2c1.5,0,2.7,1,2.7,3.1c0,11.6-23.9,60.2-55,87.9C396.4,84.6,429.1,30.2,440.4,30.2z
		 M438.2,170.5c-18.5-0.4-14.8-21.6,1.5-21.6c6.9,0,11.3,1.1,15.6,2.3C453.7,163.1,446.8,170.1,438.2,170.5z"/>
</g>
<path class="st0" d="M364.9,143.9C364.9,143.9,364.9,144,364.9,143.9c0.8,1.3,2.1,1.6,3.3,0.7c7.1-5.6,16.8-13.8,21.4-17.9l-0.9-6
	c-5.6,4.9-14.2,13.1-23.1,20.3C364.6,141.7,364.5,142.8,364.9,143.9z"/>
<g>
	<path class="st0" d="M138.8,200.3c0,0.3-0.2,0.7-0.6,0.9c-2.4,1.8-5.1,2.9-9.5,2.9c-7.9,0-14-5.7-14-13.9c0-8.5,6.3-14.3,14.1-14.3
		c4.3,0,7,1.2,9.5,2.9c0.3,0.3,0.5,0.6,0.5,0.9c0,0.2-0.1,0.5-0.2,0.8l-1.6,2.4c-0.2,0.3-0.5,0.5-0.7,0.5c-0.3,0-0.6-0.2-0.8-0.3
		c-1.8-1-4-2-6.5-2c-5.1,0-8.7,3.9-8.7,9.2c0,5,3.5,8.9,8.7,8.9c2.5,0,4.9-0.9,6.6-2.1c0.3-0.2,0.6-0.3,0.8-0.3
		c0.3,0,0.5,0.2,0.8,0.5l1.5,2.5C138.8,199.9,138.8,200.2,138.8,200.3z"/>
	<path class="st0" d="M144.1,190.1c0-8,6.2-14.1,14.2-14.1s14.1,6.2,14.1,14.1s-6.2,14.1-14.4,14.1
		C150.2,204.2,144.1,198.1,144.1,190.1z M166.9,190.1c0-5.2-3.9-9.1-8.7-9.1c-4.9,0-8.6,3.9-8.6,9.1c0,5.1,3.7,9,8.5,9
		C163,199.1,166.9,195.2,166.9,190.1z"/>
	<path class="st0" d="M178.8,190.1c0-8,6.2-14.1,14.2-14.1s14.1,6.2,14.1,14.1s-6.2,14.1-14.4,14.1
		C184.9,204.2,178.8,198.1,178.8,190.1z M201.6,190.1c0-5.2-3.9-9.1-8.7-9.1c-4.9,0-8.6,3.9-8.6,9.1c0,5.1,3.7,9,8.5,9
		C197.7,199.1,201.6,195.2,201.6,190.1z"/>
	<path class="st0" d="M216.4,167.1h2.9c0.9,0,1.2,0.3,1.2,1.2v34c0,0.9-0.3,1.2-1.2,1.2h-2.9c-0.9,0-1.2-0.3-1.2-1.2v-34
		C215.2,167.4,215.5,167.1,216.4,167.1z M221.4,189.9c0-0.3,0.2-0.5,0.4-0.8l9.6-11.4c0.6-0.7,1-1,2-1h4c0.6,0,0.8,0.2,0.8,0.5
		c0,0.2-0.1,0.5-0.4,0.8l-10.1,11.7l11.3,12.7c0.2,0.2,0.3,0.4,0.3,0.7c0,0.3-0.3,0.5-0.8,0.5h-4.2c-1,0-1.5-0.3-2.1-1l-10.5-11.9
		C221.5,190.4,221.4,190.1,221.4,189.9z"/>
	<path class="st0" d="M248.5,166.7c2,0,3.4,1.5,3.4,3.4s-1.4,3.4-3.4,3.4s-3.4-1.5-3.4-3.4S246.5,166.7,248.5,166.7z M247.1,176.6
		h2.9c0.9,0,1.2,0.3,1.2,1.2v24.5c0,0.9-0.3,1.2-1.2,1.2h-2.9c-0.9,0-1.2-0.3-1.2-1.2v-24.5C245.8,176.9,246.2,176.6,247.1,176.6z"
		/>
	<path class="st0" d="M283.5,199.9c0,0.3-0.2,0.7-0.6,0.9c-2.5,1.9-6,3.3-10.6,3.3c-8.5,0-13.9-6.2-13.9-14
		c0-8.3,5.8-14.3,13.5-14.3s13.2,5.9,13.2,13.6v0.9c0,0.7-0.3,1-0.9,1H264c0.4,4.6,3.8,8,8.8,8c3.2,0,5.9-1.2,7.8-2.5
		c0.3-0.2,0.6-0.3,0.9-0.3s0.5,0.1,0.7,0.5l1.2,2C283.4,199.4,283.5,199.7,283.5,199.9z M271.9,180.5c-3.9,0-6.8,2.5-7.8,6.9h15.4
		C278.8,183.3,276,180.5,271.9,180.5z"/>
	<path class="st0" d="M293.1,196.8c0.2,0,0.4,0.1,0.7,0.3c2.2,1.5,5.1,2.6,7.9,2.6c3.2,0,5.4-1.3,5.4-3.4c0-2.2-1.8-2.8-6.4-4
		c-5.9-1.6-9.1-3.7-9.1-8.4c0-5.2,4.5-8,10.1-8c4.1,0,7.3,1,10,2.8c0.3,0.2,0.5,0.4,0.5,0.7c0,0.2-0.1,0.4-0.3,0.8l-1.3,2.2
		c-0.2,0.3-0.4,0.4-0.7,0.4c-0.2,0-0.4-0.1-0.7-0.2c-2.1-1.2-4.6-2.3-7.4-2.3c-2.6,0-4.7,1.2-4.7,3.2c0,2.2,2.3,3.2,6.4,4.2
		c6.4,1.6,9.2,3.5,9.2,8.3c0,5.1-4.2,8-10.9,8c-4.1,0-7.8-1.2-10.4-3.1c-0.3-0.3-0.5-0.5-0.5-0.8c0-0.2,0.1-0.4,0.3-0.8l1.4-2.2
		C292.7,197,292.9,196.8,293.1,196.8z"/>
</g>
<path class="st0" d="M371.8,102.5c-1.5-2.3-3.8-4-6.1-4c-0.5,0-1,0.1-1.4,0.2s-0.7,0.2-1.1,0.4c-0.8,0.3-1.5,0.8-2.2,1.6
	c-2.5,2.7-12.3,30.2-14.9,34c-1.6,2.4-9.6,15.6-18.7,15.6c-9.3,0-4.7-15.2-2.8-20c0.8-2.1,12.6-23.4,12.6-29.2
	c0-2.5-1.1-4.4-3.1-5.3c-1-0.5-2.2-0.8-3.6-0.8c-0.6,0-1.2,0.1-1.9,0.1c-0.2,0-0.4,0.1-0.5,0.1c-0.6,0.1-1.3,0.2-2,0.4
	c0,1-0.1,2.1-0.3,3.1c-1.7,12.1-13.4,28.6-15,41c-1.3,7.1,0.7,18.8,12.9,18.8c11.5,0,19.2-10.6,24.1-17.5
	c-1.3,5.4-6.7,22.5-11.1,34.5l0,0c-4.2,12.2-17.4,60.4-50.7,60.9c-21.4,0.3-22.1-17.4-21.3-23.7c0.3-2-0.7-2.4-1.8-2.4
	c-1.3,0-2.9,0-4.5,0c-1.8,0-2.6,0.4-2.8,1.8c-1.4,10.1,4.2,31.8,29.3,31.8c45,0,62.4-67.2,67.2-82.2
	C359.3,138.7,363.9,121,371.8,102.5z"/>
<path class="st0" d="M489.3,26.1c4.5,0,8.1,3.5,8.1,8s-3.6,8-8.2,8c-4.6,0-8.2-3.6-8.2-8C481.1,29.6,484.7,26.1,489.3,26.1
	L489.3,26.1z M489.2,27.7c-3.5,0-6.1,2.9-6.1,6.4c0,3.6,2.7,6.4,6.2,6.4s6.1-2.8,6.1-6.3C495.4,30.6,492.8,27.7,489.2,27.7
	L489.2,27.7z M488,38.2h-1.8v-8c0.7-0.1,1.8-0.2,3.1-0.2c1.5,0,2.2,0.2,2.7,0.6c0.5,0.3,0.8,0.9,0.8,1.7c0,1-0.7,1.6-1.7,1.9v0.1
	c0.8,0.2,1.2,0.9,1.4,1.9c0.2,1.2,0.4,1.7,0.6,1.9h-1.9c-0.2-0.3-0.4-1-0.6-1.9c-0.2-0.8-0.6-1.2-1.7-1.2H488V38.2z M488.1,33.8h0.9
	c1,0,1.9-0.3,1.9-1.2c0-0.7-0.5-1.2-1.7-1.2c-0.5,0-0.8,0-1,0.1v2.3H488.1z"/>
<path class="st0" d="M489.5,26.1c4.5,0,8.1,3.5,8.1,7.9c0,4.5-3.6,8-8.1,8c-4.6,0-8.2-3.5-8.2-8C481.2,29.6,484.9,26.1,489.5,26.1
	L489.5,26.1z M489.4,27.7c-3.4,0-6.1,2.9-6.1,6.3c0,3.5,2.7,6.3,6.2,6.3c3.4,0,6.1-2.8,6.1-6.3C495.5,30.5,492.9,27.7,489.4,27.7
	L489.4,27.7z M488.2,38.1h-1.8v-7.9c0.7-0.1,1.7-0.2,3.1-0.2c1.5,0,2.2,0.2,2.7,0.6c0.5,0.3,0.8,0.9,0.8,1.7c0,1-0.7,1.6-1.6,1.9
	v0.1c0.8,0.2,1.2,0.9,1.4,1.9c0.2,1.2,0.4,1.6,0.6,1.9h-1.9c-0.2-0.3-0.4-1-0.6-1.9c-0.1-0.8-0.6-1.2-1.6-1.2h-0.9v3.1H488.2z
	 M488.2,33.7h0.9c1,0,1.8-0.3,1.8-1.2c0-0.7-0.5-1.2-1.7-1.2c-0.5,0-0.8,0-1,0.1V33.7z"/>
<path class="st0" d="M489.3,26.1c4.5,0,8.1,3.5,8.1,8s-3.6,8-8.2,8c-4.6,0-8.2-3.6-8.2-8C481.1,29.6,484.7,26.1,489.3,26.1
	L489.3,26.1z M489.2,27.7c-3.5,0-6.1,2.9-6.1,6.4c0,3.6,2.7,6.4,6.2,6.4s6.1-2.8,6.1-6.3C495.4,30.6,492.8,27.7,489.2,27.7
	L489.2,27.7z M488,38.2h-1.8v-8c0.7-0.1,1.8-0.2,3.1-0.2c1.5,0,2.2,0.2,2.7,0.6c0.5,0.3,0.8,0.9,0.8,1.7c0,1-0.7,1.6-1.7,1.9v0.1
	c0.8,0.2,1.2,0.9,1.4,1.9c0.2,1.2,0.4,1.7,0.6,1.9h-1.9c-0.2-0.3-0.4-1-0.6-1.9c-0.2-0.8-0.6-1.2-1.7-1.2H488V38.2z M488.1,33.8h0.9
	c1,0,1.9-0.3,1.9-1.2c0-0.7-0.5-1.2-1.7-1.2c-0.5,0-0.8,0-1,0.1v2.3H488.1z"/>
<path class="st0" d="M489.5,26.1c4.5,0,8.1,3.5,8.1,7.9c0,4.5-3.6,8-8.1,8c-4.6,0-8.2-3.5-8.2-8C481.2,29.6,484.9,26.1,489.5,26.1
	L489.5,26.1z M489.4,27.7c-3.4,0-6.1,2.9-6.1,6.3c0,3.5,2.7,6.3,6.2,6.3c3.4,0,6.1-2.8,6.1-6.3C495.5,30.5,492.9,27.7,489.4,27.7
	L489.4,27.7z M488.2,38.1h-1.8v-7.9c0.7-0.1,1.7-0.2,3.1-0.2c1.5,0,2.2,0.2,2.7,0.6c0.5,0.3,0.8,0.9,0.8,1.7c0,1-0.7,1.6-1.6,1.9
	v0.1c0.8,0.2,1.2,0.9,1.4,1.9c0.2,1.2,0.4,1.6,0.6,1.9h-1.9c-0.2-0.3-0.4-1-0.6-1.9c-0.1-0.8-0.6-1.2-1.6-1.2h-0.9v3.1H488.2z
	 M488.2,33.7h0.9c1,0,1.8-0.3,1.8-1.2c0-0.7-0.5-1.2-1.7-1.2c-0.5,0-0.8,0-1,0.1V33.7z"/>
</svg>
