<?xml version="1.0" encoding="utf-8"?>
<!-- Generator: Adobe Illustrator 21.1.0, SVG Export Plug-In . SVG Version: 6.00 Build 0)  -->
<svg version="1.1" id="Layer_1" xmlns="http://www.w3.org/2000/svg" xmlns:xlink="http://www.w3.org/1999/xlink" x="0px" y="0px"
	 viewBox="0 0 76.5 40" style="enable-background:new 0 0 76.5 40;" xml:space="preserve">
<style type="text/css">
	.st0{fill:#E3701E;}
	.st1{fill:#9D0B0F;}
</style>
<g>
	<path class="st0" d="M28.6,5.1h4.2v0.4h-1.9v5.4h-0.4V5.5h-1.9V5.1z M28.1,4.6V6H30v5.4h1.5V6h1.9V4.6H28.1z"/>
	<path class="st0" d="M38.3,8.5V5h0.5v5.8h-0.5V8.9h-3.5v1.9h-0.5V5h0.5v3.5H38.3z M37.9,4.6v3.5h-2.5V4.6h-1.5v6.8h1.5V9.5h2.5v1.9
		h1.5V4.6H37.9z"/>
	<path class="st0" d="M40.5,5.1H44v0.4h-3v3.1h2.7V9H41v1.5h3.1v0.4h-3.6V5.1z M40,4.6v6.8h4.6V10h-3.1V9.4h2.7V8.1h-2.7V6h3V4.6H40
		z"/>
	<polygon class="st1" points="28.4,4.8 28.4,5.7 30.2,5.7 30.2,11.1 31.2,11.1 31.2,5.7 33.1,5.7 33.1,4.8 	"/>
	<polygon class="st1" points="38.1,4.8 38.1,8.3 35.1,8.3 35.1,4.8 34.1,4.8 34.1,11.1 35.1,11.1 35.1,9.2 38.1,9.2 38.1,11.1 
		39.1,11.1 39.1,4.8 	"/>
	<polygon class="st1" points="40.2,4.8 40.2,11.1 44.4,11.1 44.4,10.2 41.2,10.2 41.2,9.2 43.9,9.2 43.9,8.3 41.2,8.3 41.2,5.7 
		44.2,5.7 44.2,4.8 	"/>
	<path class="st0" d="M6,18.8h0.7c1.7,0,2.5-0.7,2.5-2.2s-0.8-2.2-2.5-2.2H6V18.8z M6.7,19.3H5.5V14h1.2c1.9,0,3,0.9,3,2.7
		C9.6,18.3,8.6,19.3,6.7,19.3 M4.4,22.6h1.1v-2.4h1.2c2.5,0,4.1-1.3,4.1-3.6c0-2.3-1.5-3.6-4.1-3.6H4.4C4.4,13,4.4,22.6,4.4,22.6z
		 M6,23H3.9V12.5h2.8c2.8,0,4.5,1.6,4.5,4.1s-1.7,4.1-4.5,4.1H5.9L6,23L6,23z"/>
	<path class="st0" d="M17.2,14.3c-1.9,0-3.3,1.5-3.3,3.5s1.4,3.5,3.3,3.5s3.3-1.5,3.3-3.5S19.1,14.3,17.2,14.3 M17.2,21.7
		c-2.2,0-3.8-1.7-3.8-4s1.6-4,3.8-4c2.2,0,3.8,1.7,3.8,4S19.4,21.7,17.2,21.7 M17.2,12.9c-2.8,0-5,2.1-5,4.9s2.1,4.9,5,4.9
		c2.8,0,5-2.1,5-4.9C22.1,15,20,12.9,17.2,12.9 M17.2,23.2c-3,0-5.4-2.4-5.4-5.4s2.4-5.4,5.4-5.4s5.4,2.4,5.4,5.4
		C22.6,20.8,20.2,23.2,17.2,23.2"/>
	<path class="st0" d="M25.6,18.8h0.7c1.7,0,2.5-0.7,2.5-2.2s-0.8-2.2-2.5-2.2h-0.7V18.8z M26.3,19.3h-1.2V14h1.2c1.9,0,3,0.9,3,2.7
		C29.3,18.3,28.2,19.3,26.3,19.3 M24,22.6h1.1v-2.4h1.2c2.5,0,4.1-1.3,4.1-3.6c0-2.3-1.5-3.6-4.1-3.6H24C24,13,24,22.6,24,22.6z
		 M25.6,23h-2.1V12.5h2.8c2.8,0,4.5,1.6,4.5,4.1s-1.7,4.1-4.5,4.1h-0.8L25.6,23L25.6,23z"/>
	<path class="st0" d="M36.7,12.9c-2.8,0-4.9,2.1-4.9,4.9s2.1,4.9,4.9,4.9c1.7,0,3-0.5,4-1.8l-0.8-0.6c-0.8,0.9-1.8,1.4-3.1,1.4
		c-2.2,0-3.7-1.7-3.7-4s1.6-4,3.7-4c1.3,0,2.2,0.4,2.9,1.3l0.8-0.6C39.5,13.4,38.3,12.9,36.7,12.9 M36.6,23.2c-3,0-5.3-2.3-5.3-5.4
		s2.3-5.4,5.4-5.4c1.8,0,3.2,0.7,4.2,2.1l0.1,0.2l-1.6,1.1l-0.1-0.2c-0.7-0.9-1.5-1.3-2.7-1.3c-1.9,0-3.2,1.5-3.2,3.5
		s1.4,3.5,3.3,3.5c1.2,0,2.1-0.4,2.8-1.4l0.1-0.2l1.6,1.1L41.1,21C40,22.5,38.6,23.2,36.6,23.2"/>
	<path class="st0" d="M46.6,14.3c-1.9,0-3.3,1.5-3.3,3.5s1.4,3.5,3.3,3.5s3.3-1.5,3.3-3.5S48.5,14.3,46.6,14.3 M46.6,21.7
		c-2.2,0-3.8-1.7-3.8-4s1.6-4,3.8-4c2.2,0,3.8,1.7,3.8,4S48.8,21.7,46.6,21.7 M46.6,12.9c-2.8,0-5,2.1-5,4.9s2.1,4.9,5,4.9
		c2.8,0,5-2.1,5-4.9C51.5,15,49.4,12.9,46.6,12.9 M46.6,23.2c-3,0-5.4-2.4-5.4-5.4s2.4-5.4,5.4-5.4s5.4,2.4,5.4,5.4
		C52,20.8,49.6,23.2,46.6,23.2"/>
	<path class="st0" d="M54.6,18.8h0.7c1.7,0,2.5-0.7,2.5-2.2s-0.8-2.2-2.5-2.2h-0.7V18.8z M55.3,19.3h-1.2v-5.4h1.2
		c1.9,0,3,0.9,3,2.7C58.3,18.4,57.3,19.3,55.3,19.3 M57.9,22.6h1.3l-1.9-2.7l0.3-0.1c1.2-0.6,1.9-1.7,1.9-3.1c0-2.3-1.5-3.6-4.1-3.6
		h-2.3v9.6h1.1v-2.4h1.2c0.2,0,0.5,0,0.7,0h0.1L57.9,22.6z M60.1,23h-2.5l-1.7-2.4c-0.2,0-0.4,0-0.6,0h-0.8V23h-2V12.5h2.8
		c2.8,0,4.5,1.6,4.5,4.1c0,1.6-0.7,2.8-1.9,3.4L60.1,23z"/>
	<path class="st0" d="M67.6,13h1v9.5L62,15.6v7h-1v-9.5l6.6,6.9V13z M60.5,12.4V23h2v-6.3l6.1,6.4h0.5V12.4h-2v6.3L61,12.3h-0.5
		V12.4z"/>
	<path class="st1" d="M6.7,19c1.9,0,2.7-0.9,2.7-2.4s-0.8-2.4-2.7-2.4H5.8v4.9h0.9V19z M5.8,22.8H4.2V12.7h2.6
		c2.8,0,4.3,1.5,4.3,3.8s-1.5,3.8-4.3,3.8h-1V22.8z"/>
	<path class="st1" d="M20.7,17.8c0-2.1-1.5-3.7-3.5-3.7c-2.1,0-3.5,1.6-3.5,3.7s1.5,3.7,3.5,3.7C19.3,21.5,20.7,19.9,20.7,17.8
		 M12,17.8c0-3,2.3-5.2,5.2-5.2c2.9,0,5.2,2.2,5.2,5.2S20.1,23,17.2,23C14.3,22.9,12,20.8,12,17.8"/>
	<path class="st1" d="M26.3,19c1.9,0,2.7-0.9,2.7-2.4s-0.8-2.4-2.7-2.4h-0.9v4.9h0.9V19z M25.4,22.8h-1.6V12.7h2.6
		c2.8,0,4.3,1.5,4.3,3.8s-1.5,3.8-4.3,3.8h-1V22.8z"/>
	<path class="st1" d="M31.5,17.8c0-3,2.3-5.2,5.1-5.2c1.9,0,3.2,0.7,4,2l-1.2,0.9c-0.7-0.9-1.5-1.4-2.9-1.4c-2,0-3.4,1.6-3.4,3.7
		c0,2.2,1.5,3.7,3.5,3.7c1.3,0,2.3-0.5,3-1.5l1.2,0.8c-1,1.4-2.4,2.1-4.3,2.1C33.8,22.9,31.5,20.8,31.5,17.8"/>
	<path class="st1" d="M50.1,17.8c0-2.1-1.5-3.7-3.5-3.7c-2.1,0-3.6,1.6-3.6,3.7s1.5,3.7,3.6,3.7C48.6,21.5,50.1,19.9,50.1,17.8
		 M41.4,17.8c0-3,2.3-5.2,5.2-5.2c2.9,0,5.2,2.2,5.2,5.2S49.5,23,46.6,23C43.7,22.9,41.4,20.8,41.4,17.8"/>
	<path class="st1" d="M55.3,19.1c1.9,0,2.7-0.9,2.7-2.5c0-1.5-0.8-2.4-2.7-2.4h-0.9v4.9H55.3z M59.7,22.8h-1.9l-1.7-2.4
		c-0.2,0-0.5,0-0.7,0h-1v2.4h-1.6V12.7h2.6c2.8,0,4.3,1.5,4.3,3.8c0,1.6-0.7,2.8-2,3.4L59.7,22.8z"/>
	<polygon class="st1" points="62.3,16.2 62.3,22.8 60.8,22.8 60.8,12.6 60.9,12.6 67.4,19.4 67.4,12.8 68.8,12.8 68.8,23 68.7,23 	
		"/>
	<path class="st0" d="M7.3,24.7h5.8v0.9H8.4v4.6h4.3v0.9H8.4v3.1H7.3C7.3,34.2,7.3,24.7,7.3,24.7z M6.8,24.2v10.5h2.1v-3.1h4.3v-1.9
		H8.9V26h4.7v-1.9H6.8V24.2z"/>
	<path class="st0" d="M17.5,28.3l1.3,3.1h-2.6L17.5,28.3z M15.5,31.9h4l-2-4.8L15.5,31.9z M17.5,24.8l4.1,9.5h-1.1l-0.6-1.4h-4.8
		l-0.6,1.4h-1.1L17.5,24.8z M17.3,24l-4.6,10.7h2.1l0.6-1.4h4.2l0.6,1.4h2.2L17.7,24H17.3z"/>
	<path class="st0" d="M27,24.6c-2.8,0-4.9,2.1-4.9,4.9s2.1,4.9,4.9,4.9c1.7,0,3-0.5,4-1.8L30.2,32c-0.8,0.9-1.8,1.4-3.1,1.4
		c-2.2,0-3.7-1.7-3.7-4s1.6-4,3.7-4c1.3,0,2.2,0.4,2.9,1.3l0.8-0.6C29.8,25.1,28.6,24.6,27,24.6 M27,34.9c-3,0-5.3-2.3-5.3-5.4
		s2.3-5.4,5.4-5.4c1.8,0,3.2,0.7,4.2,2.1l0.1,0.2l-1.6,1.1l-0.1-0.2C29,26.4,28.2,26,27,26c-1.9,0-3.2,1.5-3.2,3.5s1.4,3.5,3.3,3.5
		c1.2,0,2.1-0.4,2.8-1.4l0.1-0.2l1.6,1.1l-0.1,0.2C30.4,34.2,28.9,34.9,27,34.9"/>
	<path class="st0" d="M32.1,24.7h7.1v0.9h-3v8.7h-1.1v-8.7h-3V24.7z M31.6,24.2v1.9h3v8.7h2.1v-8.7h3v-1.9H31.6z"/>
	<path class="st0" d="M44.5,26c-1.9,0-3.3,1.5-3.3,3.5s1.4,3.5,3.3,3.5s3.3-1.5,3.3-3.5S46.4,26,44.5,26 M44.5,33.5
		c-2.2,0-3.8-1.7-3.8-4s1.6-4,3.8-4c2.2,0,3.8,1.7,3.8,4S46.7,33.5,44.5,33.5 M44.5,24.6c-2.8,0-5,2.1-5,4.9s2.1,4.9,5,4.9
		c2.8,0,5-2.1,5-4.9S47.3,24.6,44.5,24.6 M44.5,34.9c-3,0-5.4-2.4-5.4-5.4s2.4-5.4,5.4-5.4s5.4,2.4,5.4,5.4S47.6,34.9,44.5,34.9"/>
	<path class="st0" d="M52.6,30.5h0.7c1.7,0,2.5-0.7,2.5-2.2s-0.8-2.2-2.5-2.2h-0.7V30.5z M53.3,31h-1.2v-5.4h1.2c1.9,0,3,0.9,3,2.7
		C56.3,30.1,55.3,31,53.3,31 M55.9,34.3h1.3l-1.9-2.7l0.3-0.1c1.2-0.6,1.9-1.7,1.9-3.1c0-2.3-1.5-3.6-4.1-3.6h-2.3v9.6h1.1V32h1.2
		c0.2,0,0.5,0,0.7,0h0.1L55.9,34.3z M58.2,34.8h-2.5L54,32.4c-0.2,0-0.4,0-0.6,0h-0.8v2.4h-2.1V24.3h2.8c2.8,0,4.5,1.6,4.5,4.1
		c0,1.6-0.7,2.8-1.9,3.4L58.2,34.8z"/>
	<path class="st0" d="M65.2,24.7h1.1l-3.5,6.5v0.1v3h-1.1v-3l-3.6-6.6h1.2l3,5.5L65.2,24.7z M64.9,24.2l-2.7,5l-2.7-5h-2.3l4,7.2
		v3.4h2.1v-3.4l3.9-7.1h-2.3V24.2z"/>
	<polygon class="st1" points="7.1,24.5 7.1,34.5 8.6,34.5 8.6,31.4 12.9,31.4 12.9,30 8.6,30 8.6,25.9 13.3,25.9 13.3,24.5 	"/>
	<path class="st1" d="M17.5,27.7l1.6,4h-3.3L17.5,27.7z M17.5,24.3l-4.4,10.3h1.6l0.6-1.4h4.5l0.6,1.4h1.7L17.5,24.3L17.5,24.3z"/>
	<path class="st1" d="M21.9,29.5c0-3,2.3-5.2,5.1-5.2c1.9,0,3.2,0.7,4,2l-1.2,0.9c-0.7-0.9-1.5-1.4-2.9-1.4c-2,0-3.4,1.6-3.4,3.7
		c0,2.2,1.5,3.7,3.5,3.7c1.3,0,2.3-0.5,3-1.5l1.2,0.8c-1,1.4-2.4,2.1-4.3,2.1C24.1,34.7,21.9,32.5,21.9,29.5"/>
	<polygon class="st1" points="31.8,24.5 31.8,25.9 34.8,25.9 34.8,34.5 36.4,34.5 36.4,25.9 39.4,25.9 39.4,24.5 	"/>
	<path class="st1" d="M48.1,29.5c0-2.1-1.5-3.7-3.5-3.7c-2.1,0-3.6,1.6-3.6,3.7s1.5,3.7,3.6,3.7C46.6,33.2,48.1,31.6,48.1,29.5
		 M39.3,29.5c0-3,2.3-5.2,5.2-5.2c2.9,0,5.2,2.2,5.2,5.2s-2.3,5.2-5.2,5.2C41.6,34.7,39.3,32.5,39.3,29.5"/>
	<path class="st1" d="M53.3,30.8c1.9,0,2.7-0.9,2.7-2.5c0-1.5-0.8-2.4-2.7-2.4h-0.9v4.9H53.3z M57.7,34.5h-1.9l-1.7-2.4
		c-0.2,0-0.5,0-0.7,0h-1v2.4h-1.6V24.4h2.6c2.8,0,4.3,1.5,4.3,3.8c0,1.6-0.7,2.8-2,3.4L57.7,34.5z"/>
	<polygon class="st1" points="65.1,24.5 62.3,29.7 59.4,24.5 57.7,24.5 61.4,31.3 61.4,34.5 63,34.5 63,31.3 66.7,24.5 	"/>
	<path class="st1" d="M64.7,34.3C64.7,34.3,64.8,34.3,64.7,34.3c0.1-0.1,0-0.2,0-0.2h-0.1L64.7,34.3L64.7,34.3z M65,34.6h-0.2
		l-0.1-0.2h-0.1v0.2h-0.2V34h0.3c0.2,0,0.3,0.1,0.3,0.2s0,0.2-0.1,0.2L65,34.6z M65.2,34.3c0-0.3-0.2-0.5-0.5-0.5s-0.5,0.2-0.5,0.5
		s0.2,0.5,0.5,0.5C64.9,34.8,65.2,34.6,65.2,34.3 M64,34.3c0-0.4,0.3-0.6,0.6-0.6c0.4,0,0.7,0.3,0.7,0.6c0,0.4-0.3,0.6-0.7,0.6
		C64.3,34.9,64,34.6,64,34.3"/>
</g>
</svg>
