<?xml version="1.0" encoding="utf-8"?>
<!-- Generator: Adobe Illustrator 21.1.0, SVG Export Plug-In . SVG Version: 6.00 Build 0)  -->
<svg version="1.1" id="Layer_1" xmlns="http://www.w3.org/2000/svg" xmlns:xlink="http://www.w3.org/1999/xlink" x="0px" y="0px"
	 viewBox="0 0 302.4 144" style="enable-background:new 0 0 302.4 144;" xml:space="preserve">
<g>
	<g>
		<g>
			<path d="M288.6,40.5v1.2h-1.5v4.5h-1.3v-4.5h-1.5v-1.2H288.6z M291.3,40.5l1.1,3.4l1.1-3.4h1.7v5.7H294V42l-1.4,4.2h-0.5
				l-1.4-4.2v4.2h-1.2v-5.7H291.3z"/>
		</g>
	</g>
	<path d="M53.3,69.7v2.8c0,17.3,5.1,27.2,14.1,27.2s14.1-9.9,14.1-27.2v-2.8c0-17.3-5.1-27.1-14.1-27.1S53.3,52.5,53.3,69.7z
		 M74.6,69.7v2.8c0,12.4-1.2,20.6-7.2,20.6c-0.3,0-0.6-0.3-0.6-0.6c0-0.3,0.3-0.6,0.6-0.6c5,0,6-7.8,6-19.4v-2.8
		c0-11.7-1-19.4-6-19.4c-0.3,0-0.6-0.3-0.6-0.6s0.3-0.6,0.6-0.6C73.3,49.1,74.6,57.3,74.6,69.7z M63.3,72.5v-2.8
		c0-11.9,1.3-17.4,4-17.4c2.7,0,4,5.5,4,17.4v2.8c0,11.9-1.3,17.4-4,17.4C64.6,89.9,63.3,84.4,63.3,72.5z M67.9,45.2
		c0,0.3-0.3,0.6-0.6,0.6c-9.8,0-10.9,16.7-10.9,23.9v2.8c0,7.2,1.1,23.9,10.9,23.9c0.3,0,0.6,0.3,0.6,0.6c0,0.3-0.3,0.6-0.6,0.6
		c-10.9,0-12.1-17.6-12.1-25.1v-2.8c0-7.6,1.2-25.1,12.1-25.1C67.7,44.6,67.9,44.8,67.9,45.2z"/>
	<path d="M100.1,54.7c1.5,0,2.8,0.5,4.7,1.6l0.8,0.5V46.3l-0.3-0.1c-2-0.9-3.5-1.2-6.1-1.2c-9.8,0-15.5,9.4-15.5,25.7v1.8
		c0,22.1,9.2,25.4,14.7,25.4c3,0,5.1-0.5,7-1.6l0.3-0.1v-9.7l-0.8,0.5c-1.6,1-3.3,1.5-4.7,1.5c-3.3,0-6.4-1.9-6.4-15.9v-1.9
		C93.8,56.4,97.4,54.7,100.1,54.7z M98.4,94.6c0.3,0,0.6,0.3,0.6,0.6c0,0.3-0.3,0.6-0.6,0.6c-8.2,0-12.7-8.3-12.7-23.4v-1.8
		c0-7,1.3-23.6,13.5-23.6c0.3,0,0.6,0.3,0.6,0.6s-0.3,0.6-0.6,0.6c-11.1,0-12.3,15.7-12.3,22.5v1.8C86.9,86.8,91,94.6,98.4,94.6z"/>
	<path d="M269.7,56.7v-0.2c0-3.8,0.7-8.4,4.2-8.6c1.9-0.1,3.3,0.9,5.5,2.6l1.7,1.2V40.4l-1-0.6c-2-1.3-4.1-2.7-7.4-2.7
		c-7.1,0-12.9,8.9-12.9,19.9v0.2c0,7.9,2.4,12,8.6,21c4.2,6,4.9,8.2,4.9,11v0.2c0,3.2-1.5,5-4.2,5c-2.1,0-4.3-1-7.7-3.5l-0.8-0.6v13
		l0.2,0.1c3,1.9,6.1,2.8,9.3,2.8c7.6,0,13.1-7.3,13.1-17.4v-0.2c0-7.5-1.6-11.6-8.6-21.9C270.3,60.5,269.7,59.6,269.7,56.7z
		 M263.8,101.8c0,0.3-0.3,0.6-0.6,0.6c-0.3,0-0.6-0.3-0.6-0.6v-6.6c0-0.3,0.3-0.6,0.6-0.6c0.3,0,0.6,0.3,0.6,0.6V101.8z M276.5,89.4
		c0,1.6-0.3,3.1-0.9,4.3c-0.1,0.2-0.3,0.3-0.5,0.3c-0.1,0-0.2,0-0.3-0.1c-0.3-0.1-0.4-0.5-0.3-0.8c0.5-1.1,0.8-2.4,0.8-3.8v-0.2
		c0-3.6-1.2-6.3-5.2-12.1c-6.1-8.8-8.3-12.5-8.3-19.8V57c0-4.7,1.2-9.4,3.3-12.8c0.2-0.3,0.5-0.4,0.8-0.2s0.4,0.5,0.2,0.8
		c-2,3.2-3.1,7.6-3.1,12.2v0.2c0,7,2.1,10.6,8.1,19.1c4.2,6.1,5.4,8.9,5.4,12.8V89.4z"/>
	<path d="M30.6,88.8v-0.2c0-7.5-1.6-11.6-8.6-21.9c-4.3-6.3-4.9-7.2-4.9-10v-0.2c0-3.8,0.7-8.4,4.2-8.6c1.9-0.1,3.3,0.9,5.5,2.6
		l1.7,1.2V40.4l-1-0.6c-2-1.3-4.1-2.7-7.4-2.7C13,37.1,7.2,46,7.2,57v0.2c0,7.9,2.4,12,8.6,21c4.2,6,4.9,8.2,4.9,11v0.2
		c0,3.2-1.5,5-4.2,5c-2.1,0-4.3-1-7.7-3.5L8,90.3v13l0.2,0.1c3,1.9,6.1,2.8,9.3,2.8C25.1,106.2,30.6,98.9,30.6,88.8z M17.5,77.1
		c-6.1-8.8-8.3-12.5-8.3-19.8v-0.2c0-4.7,1.2-9.4,3.3-12.8c0.2-0.3,0.5-0.4,0.8-0.2s0.4,0.5,0.2,0.8c-2,3.2-3.2,7.7-3.2,12.2v0.2
		c0,7,2.1,10.6,8.1,19.1c4.2,6.1,5.4,9,5.4,12.8v0.2c0,1.6-0.3,3.1-0.9,4.4c-0.1,0.2-0.3,0.3-0.5,0.3c-0.1,0-0.2,0-0.3-0.1
		c-0.3-0.1-0.4-0.5-0.3-0.8c0.5-1.1,0.8-2.4,0.8-3.8v-0.2C22.7,85.7,21.5,82.9,17.5,77.1z M11.1,101.8c0,0.3-0.3,0.6-0.6,0.6
		s-0.6-0.3-0.6-0.6v-6.6c0-0.3,0.3-0.6,0.6-0.6s0.6,0.3,0.6,0.6V101.8z"/>
	<path d="M46.9,101.7V52.4l6.4,0.6l-0.1-11.1l-22.5-2.7V51l6.3,0.7v51.2L46.9,101.7z M33.9,48.5c0,0.3-0.3,0.6-0.6,0.6
		s-0.6-0.3-0.6-0.6V42c0-0.3,0.3-0.6,0.6-0.6s0.6,0.3,0.6,0.6V48.5z M39,51.9c0-0.3,0.3-0.6,0.6-0.6s0.6,0.3,0.6,0.6v48
		c0,0.3-0.3,0.6-0.6,0.6s-0.6-0.3-0.6-0.6V51.9z"/>
	<path d="M136.2,46.4l-10.8-0.3L119,64.3V46.2l-9.9-0.4v51.1l9.9-0.3V82.7l1.4-3.9l5.3,17.6l10.9-0.1l-8.9-28.9L136.2,46.4z
		 M112.3,94.2c0,0.3-0.3,0.6-0.6,0.6c-0.3,0-0.6-0.3-0.6-0.6V48.5c0-0.3,0.3-0.6,0.6-0.6c0.3,0,0.6,0.3,0.6,0.6V94.2z M119.6,72.4
		c-0.1,0.2-0.3,0.4-0.6,0.4c-0.1,0-0.1,0-0.2,0c-0.3-0.1-0.5-0.4-0.4-0.8l8.2-23.4c0.1-0.3,0.4-0.5,0.8-0.4c0.3,0.1,0.5,0.4,0.4,0.8
		L119.6,72.4z M128.2,93.7c0.1,0.3-0.1,0.6-0.4,0.7c-0.1,0-0.1,0-0.2,0c-0.3,0-0.5-0.2-0.6-0.4l-5.7-19.1c-0.1-0.3,0.1-0.6,0.4-0.7
		s0.6,0.1,0.7,0.4L128.2,93.7z"/>
	<path d="M165.7,46.2l-4.6,16.9l-4.4-16.8l-10.2,0.1l9.6,30v20l9.9,0.1v-20l10-30.6L165.7,46.2z M159.3,93.8c0,0.3-0.3,0.6-0.6,0.6
		s-0.6-0.3-0.6-0.6V76.1l-8.7-26.9c-0.1-0.3,0.1-0.6,0.4-0.8c0.3-0.1,0.6,0.1,0.7,0.4l8.7,27c0,0.1,0,0.1,0,0.2v17.8H159.3z
		 M163.1,68.3c-0.1,0.3-0.3,0.4-0.6,0.4c0,0-0.1,0-0.2,0c-0.3-0.1-0.5-0.4-0.4-0.7l5.2-19.5c0.1-0.3,0.4-0.5,0.7-0.4
		s0.5,0.4,0.4,0.7L163.1,68.3z"/>
	<path d="M171.2,96.7l9.7,0.3l1.5-9.7h7.2l1.7,10.1l10,0.6l-9.8-52.7l-10.4,0.5L171.2,96.7z M192.2,86.7c0.3-0.1,0.6,0.2,0.7,0.5
		l1.3,7.6c0,0.3-0.2,0.6-0.5,0.7h-0.1c-0.3,0-0.5-0.2-0.6-0.5l-1.3-7.6C191.6,87.1,191.9,86.8,192.2,86.7z M187.2,55.5
		c0.3,0,0.6,0.2,0.7,0.5l3.5,22.1c0.1,0.3-0.2,0.6-0.5,0.7h-0.1c-0.3,0-0.5-0.2-0.6-0.5l-3.5-22.1C186.6,55.9,186.8,55.6,187.2,55.5
		z M188.2,78.2h-4.3l2.2-13.2L188.2,78.2z M183.4,47.7c0.3,0.1,0.5,0.4,0.5,0.7l-9,45.9c-0.1,0.3-0.3,0.5-0.6,0.5h-0.1
		c-0.3-0.1-0.5-0.4-0.5-0.7l9-45.9C182.8,47.9,183.1,47.7,183.4,47.7z"/>
	<path d="M241,41.6c-6,0.2-8.3,0.9-8.4,1l-0.4,0.1v57.8l8.8,0.9c0.7,0.1,1.3,0.1,2,0.1c10.5,0,16.5-10,16.5-27.4v-1.9
		C259.4,53.9,251.8,41.2,241,41.6z M235.4,98.1c0,0.3-0.3,0.6-0.6,0.6s-0.6-0.3-0.6-0.6V44.8c0-0.3,0.3-0.6,0.6-0.6s0.6,0.3,0.6,0.6
		V98.1z M242.7,49.4c4.8,0.9,9.9,7.3,9.9,22.8v1.9c0,6.8-0.7,11.6-2.1,15c-2,4.7-5.3,5.7-7.7,5.7c-0.2,0-0.4,0-0.7,0
		s-0.6-0.3-0.6-0.6c0-0.3,0.3-0.6,0.6-0.6c0.2,0,0.4,0,0.6,0c2,0,4.8-0.9,6.6-5c1.4-3.2,2-7.9,2-14.5v-1.9c0-14.8-4.6-20.9-8.9-21.7
		l-0.5-0.1c-0.3-0.1-0.5-0.4-0.5-0.7c0.1-0.3,0.4-0.5,0.7-0.5L242.7,49.4z M242.1,91.6v-39c3.6,0.6,7.2,6.9,7.2,19.7v1.9
		c0,6.2-0.6,10.8-1.9,13.7c-1.1,2.5-2.6,3.7-4.7,3.7C242.5,91.6,242.3,91.6,242.1,91.6z"/>
	<path d="M229,62.4v-0.7c0-11.1-5.5-17.7-14.8-17.7c-0.5,0-1,0-1.5,0.1l-9.7,0.6V98l9.9,0.7V80h0.8l5.9,19.1l0.1,0.3l10.9,1
		L223,76.6C225.9,74.3,229,70,229,62.4z M206.3,95.7c0,0.3-0.3,0.6-0.6,0.6s-0.6-0.3-0.6-0.6V47.2c0-0.3,0.3-0.6,0.6-0.6
		s0.6,0.3,0.6,0.6V95.7z M213,73.8v-1.2l0,0c3,0,8.1-1.4,8.1-10.1v-0.6c0-6.8-2.4-10-7.5-10c-0.2,0-0.4,0-0.6,0
		c-0.4,0-0.6-0.2-0.6-0.6c0-0.3,0.2-0.6,0.6-0.6c0.2,0,0.5,0,0.7,0c5.8,0,8.7,3.8,8.7,11.2v0.6C222.3,72.6,215.8,73.8,213,73.8z
		 M213,70.6V53.9c0.2,0,0.4,0,0.7,0c2.8,0,5.5,1,5.5,8v0.6C219.1,67.8,217.1,70.5,213,70.6z M222,97.5c-0.1,0-0.1,0-0.2,0
		c-0.3,0-0.5-0.2-0.6-0.4l-6.1-19.6c-0.1-0.3,0.1-0.6,0.4-0.7c0.3-0.1,0.6,0.1,0.7,0.4l6.1,19.6C222.4,97.1,222.3,97.4,222,97.5z"/>
	<g>
		<g>
			<path d="M276.3,119.3h-0.1c-8.7-1.5-18-2.9-27.5-4.1c-0.4,0-0.6-0.4-0.6-0.8s0.4-0.6,0.8-0.6c9.5,1.2,18.8,2.6,27.6,4.1
				c0.4,0.1,0.6,0.4,0.6,0.8C276.9,119.1,276.6,119.3,276.3,119.3z"/>
		</g>
		<g>
			<path d="M14.1,119.3c-0.3,0-0.6-0.2-0.7-0.6c-0.1-0.4,0.2-0.7,0.6-0.8c8.6-1.5,17.9-2.9,27.6-4.1c0.4,0,0.7,0.2,0.8,0.6
				c0,0.4-0.2,0.7-0.6,0.8c-9.7,1.2-19,2.6-27.6,4.1C14.2,119.3,14.2,119.3,14.1,119.3z"/>
		</g>
	</g>
	<g>
		<path d="M92.2,31.5L92.2,31.5c-27.7-1.6-54-4.5-78.2-8.7c-0.4-0.1-0.6-0.4-0.6-0.8c0.1-0.4,0.4-0.6,0.8-0.6
			c24.1,4.2,50.4,7.1,78.1,8.7c0.4,0,0.7,0.3,0.6,0.7C92.9,31.2,92.6,31.5,92.2,31.5z"/>
	</g>
	<g>
		<path d="M197.7,31.4c-0.4,0-0.7-0.3-0.7-0.7c0-0.4,0.3-0.7,0.6-0.7c28.6-1.6,55-4.5,78.6-8.6c0.4-0.1,0.7,0.2,0.8,0.6
			c0.1,0.4-0.2,0.7-0.6,0.8C252.8,26.9,226.3,29.8,197.7,31.4L197.7,31.4z"/>
	</g>
	<g>
		<path d="M92.2,34.7L92.2,34.7c-27.7-1.6-54-4.5-78.2-8.7c-0.4-0.1-0.6-0.4-0.6-0.8c0.1-0.4,0.4-0.6,0.8-0.6
			c24.1,4.2,50.4,7.1,78.1,8.7c0.4,0,0.7,0.3,0.6,0.7C92.9,34.4,92.6,34.7,92.2,34.7z"/>
	</g>
	<g>
		<path d="M197.7,34.6c-0.4,0-0.7-0.3-0.7-0.7s0.3-0.7,0.6-0.7c28.6-1.6,55-4.5,78.6-8.6c0.4-0.1,0.7,0.2,0.8,0.6
			c0.1,0.4-0.2,0.7-0.6,0.8C252.8,30.1,226.3,33,197.7,34.6L197.7,34.6z"/>
	</g>
	<path d="M98.5,35.2l1.1-1.3c0.7,0.6,1.5,1,2.4,1c0.7,0,1.2-0.3,1.2-0.8l0,0c0-0.5-0.3-0.7-1.6-1c-1.6-0.4-2.7-0.9-2.7-2.5l0,0
		c0-1.5,1.2-2.5,2.9-2.5c1.2,0,2.2,0.4,3,1l-0.9,1.4c-0.7-0.5-1.4-0.8-2.1-0.8s-1.1,0.3-1.1,0.7l0,0c0,0.5,0.4,0.7,1.8,1.1
		c1.7,0.4,2.6,1,2.6,2.5l0,0c0,1.6-1.2,2.5-3,2.5C100.7,36.5,99.5,36.1,98.5,35.2z"/>
	<path d="M109.5,28.3h1.8v8.2h-1.8V28.3z"/>
	<path d="M116.3,28.3h1.7l3.8,5v-5h1.8v8.2H122l-4-5.2v5.2h-1.8v-8.2H116.3z"/>
	<path d="M128.1,32.4L128.1,32.4c0-2.3,1.8-4.2,4.3-4.2c1.5,0,2.5,0.5,3.2,1.3l-1.1,1.3c-0.6-0.6-1.3-0.9-2.1-0.9
		c-1.4,0-2.4,1.1-2.4,2.5l0,0c0,1.4,1,2.6,2.4,2.6c0.9,0,1.5-0.4,2.1-1l1.1,1.2c-0.8,0.9-1.8,1.5-3.4,1.5
		C129.9,36.6,128.1,34.7,128.1,32.4z"/>
	<path d="M140,28.3h6.2v1.6h-4.4v1.7h3.9v1.6h-3.9v1.7h4.4v1.6H140V28.3z"/>
	<path d="M158.3,30l-1.4,0.3l-0.4-1.5l2.3-0.7h1.2v8.2h-1.8L158.3,30L158.3,30z"/>
	<path d="M164.6,34.2L164.6,34.2c0-1,0.5-1.6,1.3-2c-0.6-0.4-1-0.9-1-1.8l0,0c0-1.3,1.1-2.2,2.9-2.2c1.7,0,2.9,1,2.9,2.2l0,0
		c0,0.9-0.4,1.4-1,1.8c0.8,0.4,1.3,1,1.3,1.9l0,0c0,1.5-1.3,2.4-3.2,2.4C165.9,36.5,164.6,35.6,164.6,34.2z M169.2,34L169.2,34
		c0-0.7-0.6-1-1.4-1c-0.8,0-1.4,0.4-1.4,1l0,0c0,0.6,0.5,1,1.4,1C168.6,35.1,169.2,34.6,169.2,34z M168.9,30.6L168.9,30.6
		c0-0.5-0.4-1-1.2-1c-0.7,0-1.2,0.4-1.2,0.9l0,0c0,0.6,0.5,1,1.2,1C168.5,31.6,168.9,31.2,168.9,30.6z"/>
	<path d="M175.2,35.6l0.9-1.4c0.6,0.5,1.1,0.7,1.8,0.7c1,0,1.5-0.8,1.7-1.9c-0.4,0.3-0.9,0.6-1.7,0.6c-1.8,0-2.9-1-2.9-2.6l0,0
		c0-1.6,1.3-2.9,3.1-2.9c1.1,0,1.7,0.3,2.4,0.9c0.6,0.6,1,1.5,1,3.1l0,0c0,2.7-1.2,4.5-3.6,4.5C176.6,36.6,175.8,36.2,175.2,35.6z
		 M179.6,30.9L179.6,30.9c0-0.7-0.5-1.3-1.4-1.3s-1.4,0.5-1.4,1.2l0,0c0,0.7,0.5,1.2,1.4,1.2C179.1,32.1,179.6,31.6,179.6,30.9z"/>
	<path d="M185.3,35.2l1.2-1.2c0.6,0.6,1.1,1,2,1c0.7,0,1.2-0.4,1.2-1l0,0c0-0.7-0.6-1-1.6-1h-0.7l-0.3-1.1l1.9-2h-3.2v-1.5h5.5v1.4
		l-2.1,2c1.1,0.2,2.2,0.8,2.2,2.3l0,0c0,1.5-1.1,2.7-2.9,2.7C187,36.6,186,36,185.3,35.2z"/>
	<g>
		<path d="M44.2,112.7l1.5-0.2l1.8,4.2l1-4.5l1.2-0.1l1.9,4.2l0.9-4.5l1.5-0.2l-1.5,6.7l-1.2,0.1l-1.9-4l-1,4.4l-1.2,0.1L44.2,112.7
			z"/>
		<path d="M55.9,114.7L55.9,114.7c-0.2-1.8,1.1-3.5,3.1-3.7s3.6,1.1,3.7,3l0,0c0.2,1.8-1.1,3.5-3.1,3.7
			C57.7,117.9,56.1,116.6,55.9,114.7z M61.3,114.2L61.3,114.2c-0.1-1.1-1-2-2.1-1.9s-1.8,1.1-1.7,2.2l0,0c0.1,1.1,1,1.9,2.1,1.8
			C60.7,116.3,61.4,115.3,61.3,114.2z"/>
		<path d="M64.9,110.6l2.9-0.3c0.8-0.1,1.5,0.1,1.9,0.5c0.4,0.3,0.6,0.8,0.7,1.4l0,0c0.1,1-0.4,1.7-1.2,2.1l1.8,2.2l-1.7,0.1
			l-1.6-1.9l0,0l-1.1,0.1l0.2,2.1l-1.4,0.1L64.9,110.6z M68,113.5c0.7-0.1,1.1-0.5,1-1l0,0c-0.1-0.6-0.5-0.9-1.2-0.8l-1.4,0.1
			l0.2,1.9L68,113.5z"/>
		<path d="M72.8,110l1.4-0.1l0.4,5.2l3.2-0.2l0.1,1.3l-4.6,0.4L72.8,110z"/>
		<path d="M79.7,109.5l2.5-0.2c2-0.1,3.5,1.2,3.6,3l0,0c0.1,1.8-1.2,3.3-3.2,3.5l-2.5,0.2L79.7,109.5z M82.5,114.5
			c1.2-0.1,1.9-0.9,1.8-2.1l0,0c-0.1-1.1-0.9-1.9-2.1-1.8l-1.1,0.1l0.3,3.9L82.5,114.5z"/>
		<path d="M87.7,111.3c0.6-0.1,0.9-0.4,0.9-1H88l-0.1-1.5l1.5-0.1l0.1,1.2c0.1,1.2-0.5,1.7-1.6,1.8L87.7,111.3z"/>
		<path d="M91.8,114.2l0.8-1.1c0.6,0.4,1.2,0.7,2,0.7c0.6,0,0.9-0.3,0.9-0.7l0,0c0-0.4-0.3-0.5-1.3-0.8c-1.3-0.3-2.2-0.6-2.2-1.9
			l0,0c-0.1-1.2,0.8-2,2.2-2.1c0.9,0,1.8,0.2,2.4,0.7l-0.7,1.1c-0.6-0.4-1.2-0.6-1.7-0.5c-0.5,0-0.8,0.3-0.8,0.6l0,0
			c0,0.4,0.3,0.6,1.4,0.8c1.3,0.3,2.1,0.7,2.2,1.8l0,0c0.1,1.3-0.9,2.1-2.3,2.1C93.6,115.2,92.6,114.9,91.8,114.2z"/>
		<path d="M103,108.1l4.9-0.2l0.1,1.3l-3.5,0.1l0.1,1.4l3.1-0.1l0.1,1.3l-3.1,0.1l0.1,2.5l-1.4,0.1L103,108.1z"/>
		<path d="M110.3,107.8h1.4l0.2,6.5h-1.4L110.3,107.8z"/>
		<path d="M114.5,107.7h1.3l3.1,3.9l-0.1-4h1.4l0.2,6.5h-1.2l-3.3-4l0.1,4.1h-1.4L114.5,107.7z"/>
		<path d="M123,107.5l4.9-0.1v1.3l-3.5,0.1v1.3l3.1-0.1v1.3l-3.1,0.1v1.4l3.5-0.1v1.3l-4.9,0.1V107.5z"/>
		<path d="M130,112.9l0.8-1c0.6,0.5,1.2,0.8,1.9,0.8c0.6,0,0.9-0.2,0.9-0.6l0,0c0-0.4-0.2-0.5-1.3-0.8c-1.3-0.3-2.2-0.7-2.2-2l0,0
			c0-1.2,0.9-2,2.2-2c0.9,0,1.8,0.3,2.4,0.8l-0.7,1.1c-0.6-0.4-1.1-0.6-1.7-0.6c-0.5,0-0.8,0.3-0.8,0.6l0,0c0,0.4,0.3,0.6,1.4,0.8
			c1.3,0.3,2.1,0.8,2.1,1.9l0,0c0,1.3-1,2-2.4,2C131.8,113.9,130.8,113.5,130,112.9z"/>
		<path d="M138.9,108.6h-2v-1.3h5.4v1.3h-2v5.2h-1.4V108.6z"/>
		<path d="M148,112.8l0.8-1c0.6,0.5,1.2,0.8,1.9,0.8c0.6,0,0.9-0.2,0.9-0.6l0,0c0-0.4-0.2-0.5-1.3-0.8c-1.3-0.3-2.1-0.7-2.1-2l0,0
			c0-1.2,1-1.9,2.3-1.9c0.9,0,1.7,0.3,2.4,0.8l-0.7,1.1c-0.6-0.4-1.1-0.6-1.7-0.6c-0.5,0-0.8,0.2-0.8,0.6l0,0c0,0.4,0.3,0.6,1.4,0.9
			c1.3,0.4,2.1,0.8,2,2l0,0c0,1.3-1,2-2.4,2C149.8,113.8,148.8,113.5,148,112.8z"/>
		<path d="M157,108.6h-2v-1.3l5.4,0.1v1.3h-2l-0.1,5.2h-1.4L157,108.6z"/>
		<path d="M162.7,107.4l4.9,0.1v1.3l-3.5-0.1v1.3l3.1,0.1v1.3l-3.1-0.1v1.4l3.5,0.1v1.3l-4.9-0.1V107.4z"/>
		<path d="M172.3,107.5h1.3l2.6,6.6h-1.5l-0.5-1.5l-2.7-0.1l-0.6,1.4h-1.5L172.3,107.5z M173.7,111.4l-0.8-2.1l-0.9,2.1H173.7z"/>
		<path d="M178.6,107.8l1.4,0.1l-0.1,2.8l2.7-2.7l1.7,0.1l-2.7,2.6l2.6,3.8l-1.7-0.1l-1.9-2.8l-0.8,0.7l-0.1,2l-1.4-0.1L178.6,107.8
			z"/>
		<path d="M185.7,113.6l0.9-1c0.6,0.5,1.2,0.8,1.9,0.9c0.6,0,0.9-0.2,1-0.6l0,0c0-0.4-0.2-0.6-1.3-0.9c-1.3-0.4-2.1-0.8-2.1-2.1l0,0
			c0.1-1.2,1-1.9,2.4-1.8c0.9,0,1.7,0.4,2.4,0.9l-0.8,1c-0.6-0.4-1.1-0.7-1.7-0.7c-0.5,0-0.8,0.2-0.9,0.5l0,0c0,0.4,0.3,0.6,1.4,0.9
			c1.3,0.4,2,0.9,2,2l0,0c-0.1,1.3-1.1,2-2.5,1.9C187.5,114.7,186.5,114.3,185.7,113.6z"/>
		<path d="M200.7,114.7c-0.6,0.4-1.2,0.7-1.9,0.6c-1.2-0.1-2.1-0.8-2.1-2l0,0c0-0.8,0.5-1.4,1.4-1.7c-0.3-0.5-0.4-0.9-0.4-1.3l0,0
			c0.1-0.9,0.8-1.7,2.1-1.6c1.1,0.1,1.8,0.8,1.7,1.7l0,0c0,0.9-0.6,1.3-1.5,1.6l0.8,0.9c0.2-0.3,0.5-0.7,0.7-1.1l1,0.6
			c-0.3,0.4-0.6,0.9-0.9,1.3l0.9,1l-1.1,0.7L200.7,114.7z M200,113.8l-1.2-1.3c-0.4,0.2-0.6,0.5-0.6,0.8l0,0c0,0.5,0.3,0.8,0.9,0.8
			C199.4,114.1,199.7,114,200,113.8z M200.3,110.4L200.3,110.4c0-0.4-0.2-0.6-0.6-0.7c-0.4,0-0.6,0.2-0.7,0.6l0,0
			c0,0.3,0.1,0.5,0.3,0.8C199.9,111,200.2,110.8,200.3,110.4z"/>
		<path d="M208.5,112.6L208.5,112.6c0.1-1.9,1.6-3.3,3.6-3.1c1.2,0.1,1.9,0.5,2.5,1.2l-1,1c-0.5-0.5-1-0.8-1.6-0.8
			c-1.1-0.1-1.9,0.8-2,1.9l0,0c-0.1,1.1,0.6,2.1,1.7,2.2c0.7,0.1,1.2-0.2,1.8-0.6l0.8,1c-0.7,0.7-1.5,1.1-2.7,1
			C209.7,116,208.4,114.4,208.5,112.6z"/>
		<path d="M217,109.9l1.4,0.1l-0.2,2.6l2.6,0.2l0.2-2.6l1.4,0.1l-0.5,6.5l-1.4-0.1l0.2-2.6l-2.6-0.2l-0.2,2.6l-1.4-0.1L217,109.9z"
			/>
		<path d="M224.7,113.8L224.7,113.8c0.2-1.9,1.8-3.2,3.7-3c2,0.2,3.3,1.8,3.1,3.6l0,0c-0.2,1.8-1.8,3.2-3.7,3
			C225.8,117.3,224.5,115.6,224.7,113.8z M230,114.3L230,114.3c0.1-1.1-0.6-2.1-1.8-2.2c-1.1-0.1-2,0.7-2.1,1.8l0,0
			c-0.1,1.1,0.6,2.1,1.8,2.2C229.1,116.2,229.9,115.4,230,114.3z"/>
		<path d="M234.3,111.5l2.6,0.3c1.5,0.2,2.4,1.2,2.2,2.5l0,0c-0.2,1.5-1.4,2.1-2.8,2l-1.1-0.1L235,118l-1.4-0.1L234.3,111.5z
			 M236.5,115c0.7,0.1,1.2-0.3,1.2-0.9l0,0c0.1-0.6-0.3-1-1-1.1l-1.1-0.1l-0.2,2L236.5,115z"/>
		<path d="M240.6,117.7l1-0.9c0.5,0.5,1.1,0.9,1.8,1c0.6,0.1,1-0.1,1-0.5l0,0c0-0.4-0.2-0.6-1.2-1c-1.3-0.5-2.1-0.9-1.9-2.2l0,0
			c0.1-1.2,1.2-1.8,2.5-1.7c0.9,0.1,1.7,0.5,2.3,1.1l-0.9,1c-0.5-0.5-1.1-0.8-1.6-0.8c-0.5-0.1-0.9,0.2-0.9,0.5l0,0
			c0,0.4,0.2,0.6,1.3,1c1.3,0.5,1.9,1,1.8,2.2l0,0c-0.1,1.3-1.2,1.9-2.6,1.7C242.2,118.9,241.3,118.5,240.6,117.7z"/>
	</g>
	<g>
		<path d="M276.3,122.6h-0.1c-9-1.6-18.5-3-28.2-4.2c-0.4,0-0.6-0.4-0.6-0.8s0.4-0.6,0.8-0.6c9.7,1.2,19.2,2.6,28.3,4.2
			c0.4,0.1,0.6,0.4,0.6,0.8C276.9,122.4,276.6,122.6,276.3,122.6z"/>
	</g>
	<g>
		<path d="M14.1,122.6c-0.3,0-0.6-0.2-0.7-0.6c-0.1-0.4,0.2-0.7,0.6-0.8c8.9-1.5,18.4-2.9,28.3-4.2c0.4,0,0.7,0.2,0.8,0.6
			c0,0.4-0.2,0.7-0.6,0.8c-9.9,1.2-19.4,2.6-28.2,4.1C14.2,122.6,14.2,122.6,14.1,122.6z"/>
	</g>
</g>
</svg>
