<?xml version="1.0" encoding="utf-8"?>
<!-- Generator: Adobe Illustrator 23.0.1, SVG Export Plug-In . SVG Version: 6.00 Build 0)  -->
<svg version="1.1" id="Layer_1" xmlns="http://www.w3.org/2000/svg" xmlns:xlink="http://www.w3.org/1999/xlink" x="0px" y="0px"
	 viewBox="0 0 1366 673" style="enable-background:new 0 0 1366 673;" xml:space="preserve">
<style type="text/css">
	.st0{fill:#82BC00;}
	.st1{fill:#4E3629;}
	.st2{fill:#B6002F;}
</style>
<g>
	<path class="st0" d="M1082.99,262.79c1.3-3.39,3.51-6.09-1.65-9.15c-2.94-1.75-26.83-2.37-46.22-8.9
		c-19.4-6.55-38.43-16.65-42-29.14c-3.95-13.76,2.18-26.04,4.37-26.81c1.34,5.43,9.71,10.65,13.72,17.93
		c-2.88-24.77,15.11-38.9,17.45-38.12c2.32,0.79,4.18,40.16,17.61,48.62c0,0-0.28-18.04,11.79-37.02
		c8.79-13.79,37.65-24.13,38.8-22.7c1.16,1.42,6.33,31.59,4.25,45.12c8.47-6.22,23.19-3.39,24.5-0.24
		c-19.54,24.57-10.89,37.23-12.53,60.24c7.49-18.67,37.97-46.65,44.3-67.37c5.62,0.34,18.21,6.1,20.35,14.48
		c-11.99,23.91-52.72,45.58-56.47,60.16c10.2-2.26,18.16-9.91,44.07-14.52c34.38-6.12,57.88,11.64,78.95,14.26
		c-6.51,19.27-41.65,26.68-40.74,33.23c6.41,1.77,44.65,11.13,51.32,47.82c-10.08-5.17-21.69,0.12-35.2-0.12
		c3.95,5.38,19.07,10.71,21.71,19.27c-26.85-2.27-57.26,20.74-88.46-46.06c-4.85-10.38-8.29-36.94-23.35-38.8
		c-23.48-2.9-27.12,13.64-41.16,4.84C1080.52,284.88,1078.65,274.14,1082.99,262.79"/>
	<path class="st1" d="M1155.58,426.79c-14.68-18.41-48.95,3.36-64.64-16.41c-15.69-19.77-5.36-43.21-29.45-71.55
		c-14.34-16.87-49.79-7.5-68.46-16.26c-22.29-10.46-12.15-63.16-55.3-46.32c-6.59,7.18-11.36,14.14-12.76,19.53
		c12.33,27.74,12.33,61.05-26.45,67.5c-1.44,4.45-2.66,11.6-3.63,15.63c48.8-1.52,89.95,27.97,104.25,51.24
		c-45.52-33.58-82.64-37.69-108.34-33.97c-4.35,30.66-3.27,56.17,2.78,85.28c20.07-2.42,50.77,5.35,64.73,23.72
		c-27-13.8-46.22-16.96-62.35-13.8c5.12,18.35,13.25,33.13,24.42,42.16c21.41,17.31,64.37,13.25,114.22-6.26
		c-7.72-30.98-56.72-68.39-94.37-78.01c21.65-2.46,83.79,12.51,113.6,69.77c32.93-12.63,71.44-33,99.5-61.48
		C1156.46,445.3,1161.87,434.68,1155.58,426.79"/>
	<path class="st2" d="M1191.43,386.05c-58.68-12.31-37.69-81.29-63.28-89.65c-12.77-4.18-30.31,21.68-50.14,9.26
		c-10.38-6.49-9.56-25.91-6.55-40.85c0.52-2.57-1.57-4.4-3.71-4.46c-14.02-0.35-59.5,1.52-78.67-19.81
		c-15.77,4.65-37.55,20.66-51.34,35.7c43.16-16.84,33.01,35.87,55.3,46.33c18.68,8.76,54.11-0.6,68.45,16.26
		c24.09,28.32,13.76,51.77,29.45,71.55c15.69,19.77,49.96-2.02,64.64,16.41c6.29,7.89,0.87,18.51-2.2,30.78
		C1172.93,437.72,1187.42,413.94,1191.43,386.05"/>
	<path class="st2" d="M843.32,230.8c-10.15,13.39-1.21,36.17,12.71,21.95C871.48,237.04,849.72,222.39,843.32,230.8"/>
	<path class="st1" d="M638.61,384.6c-10.75,13.06-2.39,36.12,12.26,22.33C667.09,391.71,645.39,376.39,638.61,384.6"/>
	<path class="st2" d="M885.71,246.81c17.9-4.81,34.76-39.91,13.8-37.81c-15.9,1.6-15.59,14.17-10.13,19.85
		c4.69,4.89-1.33,10.93-5.69,14.44C881.03,245.43,879.78,248.4,885.71,246.81"/>
	<path class="st2" d="M523.33,141.48c-2.1-14.95-20.71-28.05-54.38-28.91c-76.53-2.04-190.79,45.09-182.41,99.89
		c7.67,50.66,116.91,63.67,115.89,88.17c-0.81,19.33-23.72,32.26-54.41,32.26c-23.1,0-54.07-5.61-74.95-21.47
		c-2.37-1.68-5.36-0.98-5.5,1.84c-0.65,12.82-0.74,20.42,10.79,26.8c24.45,13.55,47.59,13.62,63.98,13.62
		c42.18,0,91.96-23.04,87.12-57.73c-4.97-35.73-104.66-49.41-111.45-89.83c-6.44-38.12,91.45-76.28,147.14-74.79
		c13.82,0.34,26.01,8,27.14,15.98c4.29,30.62-66.52,62.43-66.48,62.47c0.23,1.65,6.33,2.47,13.19,2.63
		c20.63,0.48,43.19-12.49,60.44-26.92C514.81,172.69,525.44,156.44,523.33,141.48"/>
	<path class="st2" d="M921.07,265.57c-2.24-3.86-11.44-7.06-26.79-3c-14.31,3.79-25.35,16.56-34.07,27.94
		c-1.29,2.26-10.99,14.5-27.61,32.74c-20.71,22.76-41.28,11.18-26.22-8.01c8.09-10.3,14.46-14.92,29.77-34.91
		c1.56-2.02,3-4.93,2.31-7.96c-1.55-6.91-13.15-14.49-16.51-10.82c-1.09,1.18-7.59,8.27-9.81,11.29
		c-9.58,12.3-23.56,28.88-32.94,43.4c-16.65,25.78-53.17,19.66-32.55-4.03c5.69-6.53,25.28-23.92,30.16-29.96
		c3.25-4.05,4.99-5.5,3.56-9.84c-1.17-3.49-2.5-6.86-4.34-10.12c-2.04-3.64-4.53-6.42-12.88-4.13
		c-11.22,3.1-22.42,10.42-38.45,16.12c4.13-6.75,6.83-18.09-2.65-18.47c-9.5-0.38-26.98,12.07-26.57,24.81
		c0.31,9.49,8.45,8.64,8.45,8.64c0.01-0.01,0.03-0.03,0.03-0.04c-1.28,2.27-4.05,6.3-20.24,24.8c-24.11,27.5-50.78,19.53-35.95,0.24
		c7.97-10.36,15.67-17.96,30.77-38.05c1.53-2.03,2.96-4.96,2.24-7.98c-0.9-3.86-5.94-8.66-9.89-10.82
		c-3.12-1.71-5.73-1.06-7.43,1.02c-1.81,2.26-11.49,14.13-13.06,15.89c1.71-8.33-0.24-15.67-11.47-16.25
		c-21.1-1.05-59.26,28.59-75.58,55.11c-16.04,24.46-50.15,24.49-36.53,5.31c8.94-12.61,17.3-21.42,27.65-34.22
		c13.09-16.21,10.95-28.91-6.86-29.45c-23.27-0.67-50.67,22.06-66.12,35.85c43.94-55.89,86.98-108.4,125.04-153.75
		c1.59-1.96,3.1-4.85,2.53-7.89c-1.3-6.95-12.42-14.89-15.83-11.34c-1.1,1.16-7.7,8.02-9.97,10.97
		c-36.08,42.85-127.04,154.77-156.73,203.91c-4.13,6.34-6.06,10.66-1.59,14.85c2.53,2.45,4.56,2.82,7.81,4.6
		c2.78,1.44,5.98,0.27,8.13-2.74c8.25-11.02,17.5-24.19,29.07-37.93c22.88-27.16,66.29-39.34,51.17-21.26
		c-5.27,6.3-11.02,14.38-15.91,20.44c-8.55,10.6-12.07,20.44-10.32,27.12c2.35,9.06,9.18,13.37,19.73,14.09
		c11.76,0.79,28.91-6.57,43.48-20.28c0.64,11.79,7.98,19.42,20.28,20.15c12.31,0.73,31.92-12.11,38.31-20.04
		c-0.4,14.18,10.59,18.82,21.82,19.25c23.63,0.87,42.57-15.86,57.15-33.09c5.51-6.51,14.65-16.32,23.67-27.41
		c13.47-2.76,18.64-4.92,31.84-10.15c-20.09,19.25-33.92,31.52-36.55,48.15c-1.59,10.23,8.24,22.15,21.12,22.66
		c16.91,0.67,26.2-5.94,38.49-15.94c0.11,0.32,0.24,0.63,0.36,0.95c2.67,9.7,13.8,15.36,23.35,15.79
		c23.71,1.06,38.01-14.06,53.27-31.06c9.85-10.97,21.68-29.73,28.76-35.05c-5.08,15.77,15.71,37.67,5.62,49.1
		c-9.33,11.64-33.23,0.85-32.16,9.07c0.73,5.47,8.88,9.22,21.33,9.83c26.64,1.28,39.01-13.39,40.04-27.46
		c1.44-19.74-19.19-39.64-10.93-47.77C914.62,275.56,922.84,269.39,921.07,265.57 M632.95,296.22
		c-7.42,10.74-14.54,21.18-23.98,28.98c-13.91,11.49-26.25,4.38-25.59-6.17c1.21-18.78,32.2-43.47,45.61-42.78
		C640.22,276.82,639.27,287.07,632.95,296.22"/>
	<path class="st1" d="M371.92,316.54c0.31-32.39-29.64-49.11-82.16-47.46c-49.1,1.55-100.47,25.5-131.31,56.65
		c-14.6,14.74-17.77,45.52-8.43,36.28c17.11-17,67.25-70.67,137.9-71.32c31.71-0.28,51.55,13.08,51.72,30.24
		c0.39,39.84-40.23,59.4-108.82,77.12c-4.26,1.65-4.13,4.22-3.79,5.52c0.62,2.86,3.04,7.74,5.32,10.85c1.8,2.41,3.52,3.36,7.57,3.08
		c19.09-1.36,30.56,5.17,31.33,16.69c1.76,28.08-54.03,70.16-100.83,74.29c-20.73,1.79-27.94-2.58-28.68-10.51
		c-1.57-16.56,26.03-54.52,56.28-89.87c20.11-24.41,24.29-26.38,35.15-41.53c3.21-4.48,3.06-8.55,1.01-13.47
		c-1.56-4.25-4.89-10.16-8-12.49c-1.75-1.33-2.96-0.87-4.5,0.69c-26.91,27.62-67.69,73.43-95.69,122.56
		c-10.7,19.14-15.69,33.8-14.48,46.04c1.98,19.77,21.33,29.8,52.2,27.08c69.37-6.18,134.96-63.25,132.85-101.12
		c-1.12-17.66-14.07-28.49-35.82-29.57C320.86,394.72,371.48,357.25,371.92,316.54"/>
	<path class="st1" d="M804.85,512.49c-5.95,0-10.2-4.45-10.2-10.36c0-6.24,4.72-10.36,10.2-10.36c5.43,0,10.15,4.13,10.15,10.36
		C815,508.37,810.28,512.49,804.85,512.49 M804.85,493.57c-4.49,0-7.98,3.52-7.98,8.56c0,4.72,3.05,8.56,7.98,8.56
		c4.44,0,7.93-3.48,7.93-8.56C812.78,497.09,809.29,493.57,804.85,493.57 M802.81,508.07h-1.88v-11.48h4.34
		c2.77,0,4.19,0.97,4.19,3.29c0,2.08-1.29,2.94-3,3.13l3.21,5.05h-2.12l-2.98-4.91h-1.76V508.07z M804.9,501.55
		c1.42,0,2.66-0.15,2.66-1.8c0-1.38-1.36-1.56-2.49-1.56h-2.27v3.36H804.9z"/>
	<path class="st1" d="M800.12,413.71c-1.52-2.62-6.18-4.84-13.67-4.56c-3.4,0.12-7.39,0.78-11.94,2.14
		c-13.59,4.07-23.94,17.02-32.12,28.54c-1.09,2.04-6.37,9.09-19.31,24.61c-7.46,8.28-18.01,17.55-31.81,17.9
		c-14.95,0.35-27.5-7.94-25.51-19.14c46.34-2.07,69.87-29.05,67.8-46.13c-1.05-8.47-8.05-13.97-20.7-13.68
		c-0.85,0.03-1.71,0.07-2.59,0.13c-35.56,2.85-66.95,37.92-70.66,63.79c-2.16,2.53-4.3,4.34-6.91,7.08
		c-7.81,8.23-15.24,12.26-21.4,12.46c-10.28,0.32-15.83-8.97-6.85-21.01c7.7-10.36,12.81-15.08,27.3-35.2
		c1.47-2.03,2.84-4.99,2.16-7.98c-1.28-5.61-8.82-11.57-13.31-11.64c-1.03-0.03-1.92,0.28-2.51,0.97
		c-1.03,1.21-7.19,8.33-9.29,11.37c-9.09,12.38-21.42,29.09-30.4,43.63c0,0-5.03,6.21-11.84,11.48
		c-19.62,15.17-34.48,3.23-19.99-14.11c5.44-6.55,24.17-23.99,28.79-30.07c3.09-4.05,4.76-5.51,3.37-9.87
		c-1.1-3.47-2.39-6.83-4.13-10.08c-1.96-3.64-4.31-6.41-12.27-4.07c-10.69,3.15-21.34,10.5-36.65,16.2
		c3.98-6.76,6.56-18.11-2.46-18.48c-9.03-0.36-25.73,12.03-25.43,24.76c0.22,9.49,9.49,8.68,9.53,8.68
		c-0.05,0.08-8.01,9.79-17.33,19.72c-9.42,10.05-19.7,23.02-34.3,23.21c-9.84,0.12-13.02-8.43-3.01-20.3
		c5.5-6.51,24.31-23.86,28.96-29.91c3.12-4.03,4.79-5.48,3.44-9.83c-1.09-3.49-2.37-6.86-4.07-10.12c-1.45-2.74-3.13-4.99-7.24-4.97
		c-1.37,0-3.01,0.26-5.01,0.83c-10.7,3.08-21.4,10.36-36.73,15.97c4.01-6.73,6.67-18.05-2.35-18.48c0.01,0,0,0,0,0
		c-9.03-0.42-25.81,11.88-25.59,24.61c0.15,8.29,6.12,8.75,7.62,8.74c0.21-0.01,0.34-0.01,0.34-0.03
		c-0.11,0.15-10.32,12.76-20.23,22.42c-9.88,9.64-22.76,20.09-40.09,20.2c-14.88,0.11-28.48-11.72-26.29-22.88
		c44.56,0.34,74.53-25.65,72.76-42.76c-0.91-8.49-7.76-14.1-20.34-14.03c-0.83,0-1.71,0.04-2.59,0.09
		c-40.43,2.58-80.93,42.54-75.96,70.16c2.63,14.56,16.95,27.53,38.09,27.93c1.41,0.03,2.85,0,4.33-0.09
		c27.64-1.65,49.8-22.66,67.07-40.69c7.58-7.89,17.63-18.84,17.93-19.22c12.89-2.66,17.86-4.81,30.48-10
		c-19.31,19.18-32.68,31.34-35.36,47.96c-1.51,9.45,6.46,21.9,23.05,21.87c14.41-0.03,26.34-7.97,34.09-14.93
		c13.62-12.2,41.21-44.06,41.49-44.45c12.88-2.73,17.84-4.92,30.43-10.18c-19.19,19.29-32.5,31.55-35.08,48.16
		c-1.57,10.22,7.85,21.21,20.2,21.69c16.25,0.66,25.2-5.04,36.96-15.08c0.38-0.4,0.82-0.77,0.82-0.77s0.19,0.44,0.17,0.44
		c2.57,9.7,13.29,15.31,22.47,15.69c1.13,0.04,2.24,0.05,3.35,0.03c16.52-0.44,29.8-9.06,41.37-20.58
		c4.7,11.95,17.55,19.69,36.49,19.26c1.28-0.04,2.55-0.11,3.88-0.2c22.43-1.73,40.75-17.11,54.87-33.99
		c9.29-11.12,18.12-26.85,24.81-32.31c-4.62,15.87,15.67,37.37,6.18,48.98c-3.83,5.17-10.42,6.1-16.53,6.18
		c-2.62,0.04-5.15-0.08-7.33-0.08c-4.37,0-7.35,0.46-6.92,3.53c0.75,5.46,8.68,9.09,20.67,9.45c1.61,0.05,3.16,0.04,4.65-0.03
		c22.47-1.03,32.73-15,33.37-28.2c0.98-19.77-19.14-39.21-11.37-47.51C794.16,423.85,801.89,417.5,800.12,413.71 M374,420.96
		c-2.41,8.94-19.83,28.43-46.57,32.34c5.36-17.25,32.16-36.44,43.08-37.14C373.8,415.94,374.62,418.42,374,420.96 M709.3,420.58
		c-2.25,8.97-14.37,30.94-41.65,35.26c5.08-17.35,27.1-39.11,38.07-39.99C709.02,415.58,709.89,418.03,709.3,420.58"/>
</g>
</svg>
