<?xml version="1.0" encoding="utf-8"?>
<!-- Generator: Adobe Illustrator 21.1.0, SVG Export Plug-In . SVG Version: 6.00 Build 0)  -->
<svg version="1.1" id="Layer_1" xmlns="http://www.w3.org/2000/svg" xmlns:xlink="http://www.w3.org/1999/xlink" x="0px" y="0px"
	 viewBox="0 0 456 153" style="enable-background:new 0 0 456 153;" xml:space="preserve">
<style type="text/css">
	.st0{fill:#A1662C;}
	.st1{fill:#512C1D;}
</style>
<g>
	<g>
		<path class="st0" d="M287.2,37.7v4.6h7.1l-13,29.1c0.1,0-12.8-29.1-12.8-29.1h6.8v-4.6h-18.5v4.6h6L278.9,77l-2.2,4.6
			c-3.5,7.3-6.3,12.2-8.6,14.8c1.1,1.2,2,2.5,2.9,3.8c3.4-5.1,6.5-10.4,8.2-13.9l20.4-43.9h6v-4.6h-18.4V37.7z"/>
		<path class="st0" d="M64.5,75.3c-1.4-1.4-2.3-3.1-2.3-5.1c0-2.2,1.5-4.1,3.7-4.1c2.5,0,3.9,1.7,3.9,3.7c0,1-0.3,1.9-0.9,2.9
			c1.2,1.3,5,2.9,10.1,2.9c6.5,0,11.4-2.9,11.4-7.3c0-4.5-4.9-6.1-10.6-7.4c-9.4-2.3-16.4-4.5-16.4-12.3c0-6.2,6.2-11.4,15.3-11.4
			c5.9,0,10.3,1.7,12.7,4.1c1.4,1.4,2.1,2.9,2.1,4.6c0,2.4-1.5,4-3.6,4c-2.2,0-4-1.6-4-3.9c0-0.8,0.2-1.7,0.7-2.6
			c-1.2-1-4.3-1.8-8-1.8c-6.4,0-10.1,3.5-10.1,6.9c0,4.1,4.4,5.4,11.5,7.2c7.6,1.9,15.4,4.2,15.4,12.5c0,7.4-7.5,12-16.3,12
			C73.2,80,67.4,78.2,64.5,75.3z"/>
		<path class="st0" d="M99.9,74.9h7.4V42.3h-7.4v-4.6h12.4v37.1h7.5v4.6H99.9V74.9z M104.2,28.8c0-2.6,2.1-4.8,4.7-4.8
			c2.5,0,4.6,2.2,4.6,4.8c0,2.6-2.1,4.8-4.6,4.8C106.3,33.6,104.2,31.4,104.2,28.8z"/>
		<path class="st0" d="M122.7,74.9h7V42.3h-7v-4.6h11.8v8.2c3.8-5,9.7-9,15.7-9c7.4,0,10.8,3.5,11.9,8.8c4.8-5.1,10.5-8.8,16-8.8
			c9.7,0,12.5,5.9,12.5,14.2v23.7h7v4.6h-19v-4.6h7v-23c0-7.1-2.3-10.1-8.2-10.1c-5.7,0-10.1,3.5-14.6,8.3v24.8h6.9v4.6h-19v-4.6
			h7.1v-23c0-7.1-2.3-10.1-8.2-10.1c-6,0-10.6,3.9-14.7,8.5v24.6h7v4.6h-19v-4.5H122.7z"/>
		<path class="st0" d="M204.9,94.3v-52h-7v-4.6h11.8v6.5c3.7-4.4,8.2-7.3,14.8-7.3c11,0,20.1,8.4,20.1,21.4c0,11.7-7.9,22-21.1,22
			c-5.1,0-10-2-13.6-5.2v19.3 M239.2,58.4c0.1-9.9-6.3-16.9-15-16.9c-6.1,0-10.6,3-14.3,7.1v22c3.4,3,7.6,5.2,13.8,5.2
			C233.1,75.6,239.1,68,239.2,58.4z"/>
		<path class="st0" d="M241.3,74.9h7.4V11.3h-7.4V6.7h12.4v68.1h7.4v4.6h-19.9v-4.5H241.3z"/>
		<path class="st1" d="M36.8,142.2c-16.2,0-28.2-12.5-28.2-28.3v-0.2c0-15.6,11.8-28.5,28.7-28.5c10.4,0,16.6,3.5,21.7,8.5l-7.7,8.9
			c-4.2-3.9-8.6-6.2-14.1-6.2c-9.3,0-16,7.7-16,17.1v0.2c0,9.4,6.5,17.3,16,17.3c6.3,0,10.1-2.5,14.5-6.4l7.7,7.8
			C53.7,138.5,47.4,142.2,36.8,142.2z"/>
		<path class="st1" d="M96.9,142.2v-22.1H74.6v22.1H62.5v-55h12.1V109h22.3V87.2H109v55H96.9z"/>
		<path class="st1" d="M201.6,142.2c-16.2,0-28.2-12.5-28.2-28.3v-0.2c0-15.6,11.8-28.5,28.7-28.5c10.4,0,16.6,3.5,21.7,8.5
			l-7.7,8.9c-4.2-3.9-8.6-6.2-14.1-6.2c-9.3,0-16,7.7-16,17.1v0.2c0,9.4,6.5,17.3,16,17.3c6.3,0,10.1-2.5,14.5-6.4l7.7,7.8
			C218.5,138.5,212.2,142.2,201.6,142.2z"/>
		<path class="st1" d="M280.1,142.2v-55h12.1v44h12.7v11H280.1z"/>
		<path class="st1" d="M353.1,142.2l-5-12.3h-23.3l-5,12.3h-12.3l23.6-55.4h11.2l23.6,55.4H353.1z M336.5,101.4l-7.3,17.8h14.6
			L336.5,101.4z"/>
		<path class="st1" d="M382.5,98.4v43.9h-12.1V98.4h-16.7V87.2h45.6v11.2H382.5z"/>
		<path class="st1" d="M402.8,142.2v-55h37.6V98h-25.6v11.2h25.9V120h-25.9v11.6h26v10.8h-38V142.2z"/>
		<path class="st1" d="M142.1,84.3c-16,0-29,13-29,29s13,29,29,29s29-13,29-29C171.1,97.2,158.1,84.3,142.1,84.3z M142.1,131.4
			c-10,0-18.1-8.1-18.1-18.1s8.1-18.1,18.1-18.1s18.1,8.1,18.1,18.1C160.3,123.3,152.2,131.4,142.1,131.4z"/>
		<path class="st1" d="M270.8,100.1L270.8,100.1c-0.6,0.8-1.2,1.4-1.2,1.4c-7.2,9.2-17,12.7-17,12.7c-7.8,3.1-14.1,0.9-14.1,0.9
			c-6.2-1.7-6.9-6.6-6.9-6.6c-1-5.2,3.6-9.8,3.6-9.8c4.3-4.2,9.4-3,9.4-3c2.9,0.5,3.5,3.4,3.5,3.4c0.4,2.7-1.7,4.6-1.7,4.6
			c-1.9,1.8-4.2,1.6-4.2,1.6c5.6-3.2,4-5.8,4-5.8c-0.9-1.6-3.3-1.9-3.3-1.9c-4.5-0.5-7.7,5.1-7.7,5.1c-2.5,4.5,0.5,7.4,0.5,7.4
			c3.6,4,11.2,1.8,11.2,1.8c5.4-1.4,11.2-6.2,11.2-6.2s4.4-2.9,9.7-9.5l0,0c-4.8-5.4-11.9-8.8-19.7-8.8c-14.6,0-26.4,11.8-26.4,26.4
			s11.8,26.4,26.4,26.4s26.4-11.8,26.4-26.4C274.7,108.9,273.3,104.1,270.8,100.1z"/>
	</g>
	<g>
		<path class="st1" d="M442.7,90.7c0,0.1,0,0.2,0,0.3c0,0.1,0.1,0.2,0.1,0.2c0,0.1,0.1,0.1,0.2,0.1c0.1,0,0.2,0.1,0.3,0.1
			s0.3,0,0.4-0.1c0.1-0.1,0.2-0.2,0.2-0.4c0-0.1,0-0.2,0-0.3c0-0.1-0.1-0.1-0.1-0.2c-0.1-0.1-0.2-0.1-0.3-0.2s-0.2-0.1-0.4-0.2
			s-0.4-0.1-0.6-0.2c-0.2-0.1-0.3-0.2-0.4-0.3c-0.1-0.1-0.2-0.2-0.2-0.4c0-0.1-0.1-0.3-0.1-0.5c0-0.5,0.1-0.8,0.4-1
			c0.3-0.2,0.6-0.3,1.1-0.3c0.2,0,0.4,0,0.6,0.1c0.2,0,0.3,0.1,0.5,0.2c0.1,0.1,0.2,0.2,0.3,0.4c0.1,0.2,0.1,0.4,0.1,0.6v0.1h-0.9
			c0-0.2,0-0.4-0.1-0.5s-0.2-0.2-0.4-0.2c-0.1,0-0.2,0-0.3,0s-0.1,0.1-0.2,0.1c0,0.1-0.1,0.1-0.1,0.2s0,0.1,0,0.2s0,0.3,0.1,0.4
			s0.2,0.2,0.4,0.3l0.7,0.3c0.2,0.1,0.3,0.2,0.4,0.2c0.1,0.1,0.2,0.2,0.3,0.3c0.1,0.1,0.1,0.2,0.1,0.3c0,0.1,0,0.3,0,0.4
			c0,0.5-0.1,0.9-0.4,1.1c-0.3,0.2-0.7,0.3-1.2,0.3s-0.9-0.1-1.2-0.4c-0.2-0.2-0.3-0.6-0.3-1v-0.2h1L442.7,90.7L442.7,90.7z"/>
		<path class="st1" d="M446.8,87.3l0.7,3.3l0,0l0.7-3.3h1.4V92h-0.9v-3.8l0,0l-0.8,3.8h-0.7l-0.8-3.8l0,0V92h-0.9v-4.7H446.8z"/>
	</g>
</g>
</svg>
