<svg id="art" xmlns="http://www.w3.org/2000/svg" viewBox="0 0 664.6 139.9"><title>HD_3spot_NO_06-2014</title><path d="M366.3,65.2a3.5,3.5,0,0,0-2.5-1.6c-1-.1-11.7-.4-19.4-.2s-10.5,1.6-11.2,2a2.5,2.5,0,0,0-1.6,3c.6,2.5,2.4,2,3.1,1.9a5,5,0,0,1,5.2,1.2c2.4,2.2,0,12-8.5,15.5a28.7,28.7,0,0,1-6.6-22.4c6.9-4.2,18-7.8,22.2-12s4.9-8.4,2.3-11.8-12.8-3.5-18.9,1.4-10.3,12.2-11.2,19.1c-8.6,3.9-23.7,10.8-23,24.5.6,11.4,17.5,15.8,34.2,7.6,3.5,2,9.3,4.6,11.9,4.5a3.1,3.1,0,0,0,2.1-1.6c.1-.6-.2-1.4-.8-1.5s-5.2-1.1-8.3-3.9c5.1-3,17-13.2,11.5-21.1,9.2-1.3,15.4-2,18.8-2.2C366.3,67.5,366.9,66.1,366.3,65.2ZM334.4,46c3.1-2.1,6.3-3.4,8-1.6s.2,4.8-4,7.4-7.7,3.9-12.1,6C327.2,54.1,331.8,47.9,334.4,46ZM305.7,87.3c-2.7-6.7,4.2-16.4,12.8-20.4.4,8,1.8,14.9,8.5,22.6C317.4,93.8,308.1,92.9,305.7,87.3Z" transform="translate(-10 -1.4)" fill="#1f3853" fill-rule="evenodd"/><path d="M605.8,48.8a6,6,0,0,0,6.1-6,6.1,6.1,0,1,0-12.1,0A6,6,0,0,0,605.8,48.8Z" transform="translate(-10 -1.4)" fill="#1f3853"/><path d="M671.9,1.9c-4.7-3-20,7.9-29.8,26.8-5.5,10.5-7.6,17.6-9.6,28-3.8-6.9-20.5-2.8-35.5,13.9C584.2,81.7,566.3,92,563.7,88.8s8-15,12.9-19.3,12.6-10,14.7-11.1c.4-.2,2.2-2.4.1-5.1a4.9,4.9,0,0,0-6.4-1.4,127.5,127.5,0,0,0-13.7,11.8c-7.2,7-12.3,6.7-15.1,4.3a21.7,21.7,0,0,0,4.3-6.5c1.5-3.6,1.9-8-1.2-9.2s-6.5,1.6-8.5,6.3-1.4,6.8-.2,8.9a106.6,106.6,0,0,1-14.5,13.8c-3.4,2.8-9.9,6.9-12.9,4.9s3.7-13,5.9-15.8,7.5-9,9.1-9.6,1.1-2.2,0-4a4.9,4.9,0,0,0-7.4-1.6c-1.8,1.4-4.6,6.4-9.7,12.7-10.4,12.8-23.9,22.4-26.9,20.4s2.1-9,4.3-11.3,4.5-4.5,4.8-4.7a3.2,3.2,0,0,0-1.2-3.1c-1.4-1.3-3.4-1.1-6.3,1.1s-6.2,5.4-10.3,8.4-17,10.8-19.2,7,3.4-11,12.3-18.1,15.2-8.7,16.9-6.9a1.5,1.5,0,0,1,.5,1.5c-.2.3.2.8.7.9s2.7-.5,4.3-2.5a5.2,5.2,0,0,0,.5-5.6c-3.6-5.8-17-1.2-27.9,7.6-14.3,11.4-19,24.5-14.5,28.8s18.6,1.1,31.7-11.9c-4.2,5.7-4.5,12-2.1,13.6,5,3.5,16-1.3,28.2-13.8-1.4,4.3-2.7,10.1.3,12.8,6.2,5.6,21.4-2.8,36.1-21a9.1,9.1,0,0,0,10.9,1.1c-2.2,2.6-11,16.2-7.3,20.6,5,6,20.7-1.5,33.7-12.1-1.9,4-2.3,9.6.6,11.7,7.8,5.8,24-2,36-12.1.1-.2,3.2-2.6,3.2-2.6v1c-.1,9.5,1.2,18.6,6.1,24.7s12.5,4.2,13.9,1.5h0c.3-.6,0-.9-.4-1h-.6a8.6,8.6,0,0,1-8.9-3.6c-2.2-2.9-3.7-7.7-4.7-13a66.7,66.7,0,0,1-1.1-12.5,3.7,3.7,0,0,0,.1-.8s20.5-19.6,30.3-37.1S676.8,5,671.9,1.9ZM615.7,82.7c-10.2,6.6-16.7,7.6-18.2,5.2s2.8-12.7,13.2-20.7c8.9-6.9,17.5-9.2,19.8-5.2a9.3,9.3,0,0,1,.6,2.2,6.1,6.1,0,0,1,.1,1.4c-.2,2-.4,4.3-.5,5.8l-.9.8S621.6,78.9,615.7,82.7Zm32.5-54.8c7.8-12.7,13.6-17.6,16.1-16.5s2.4,8.5-7.9,26.8a164.4,164.4,0,0,1-15,22.5l-6.2,7.4a106.7,106.7,0,0,1,2.5-13.9C640.1,45.2,643.9,34.8,648.2,27.9Z" transform="translate(-10 -1.4)" fill="#1f3853"/><path d="M290.2,74.8c-5.9,1.7-9.7,3.5-15.9,6.9,1.9-7.5,3.1-10.5,5.9-14.6,1.3-2,3.6-4.1,5.4-6.2s4.2-5.3,2.7-6.8-7.2,1.1-9.8,4.5a23.1,23.1,0,0,0-4.1,7c-10.2,13.5-26.6,23.2-29,18.8s2.6-10.8,6.5-15.5a126.1,126.1,0,0,1,10.9-11,2.8,2.8,0,0,0-.2-4.4,5,5,0,0,0-6.1-.3c-.9.8-10,11.5-16.8,19.5s-18.2,14.9-19.8,13,1.4-7.4,3.3-10.7,7-10.7,3.6-16.5c-1.5-2.7-4.1-6.1-2.9-8,2.5-3.8,3.8-4.9,3.5-6.5a4.6,4.6,0,0,0-1.6-3,1.2,1.2,0,0,0-1.6.2c-3.1,4.3-14.4,19.6-22.3,29.4S186.8,87.5,185,84.9s-.1-7,2.4-12.3a35.5,35.5,0,0,0,2-3.9h.1c1.4-3.3,2.1-6.9.2-10.3s-4.1-6.1-2.9-8c2.5-3.7,3.7-4.9,3.5-6.4a5.2,5.2,0,0,0-1.6-3.1,1.2,1.2,0,0,0-1.6.3c-3.1,4.2-14.4,19.5-22.4,29.3l-4.8,5.7c-4.7,4.7-8.5,7.1-9.6,5.7s.8-6.2,1.7-8,4.7-7.2,4.9-7.6a1.7,1.7,0,0,0,0-2c-.5-.9-1.9-1.9-4.3-1.6s-7.9,7.4-9,8.6c-5.7,5.9-16.7,17.7-23.3,15.4-5-1.7-.2-14.5,18.8-23.5a66.6,66.6,0,0,1,8.9-3c.8-.2,2.2-2,2.4-3.3s-.2-3-3.5-3.6a34.6,34.6,0,0,0-8.5-.7c-11.3.4-24.5,1.6-24.5,1.6s12.1-22,19.5-33.4c.4-.6.7-1.2-.3-2.3s-9,0-11.5,1.4a3.4,3.4,0,0,0-1.2,3.1c.2,1-1.1,3.2-1.9,4.6-3,5.3-14.4,27.9-14.4,27.9L72.8,58.3S88,25.1,94.4,15c1.2-1.7.8-4.4-2-4.7a17.5,17.5,0,0,0-7.2,1.1c-1.5.6-3.6,1.9-3.1,3.6s0,2.1-1,3.8-1.9,2.8-5.6,3.8C54.8,28,41.2,32.2,26.2,43.5S4.6,73.1,14.7,85.2c7.4,9,18.4,6.3,20.6,3.7a.8.8,0,0,0-.6-1.4c-2.5.4-7.4-.7-11.7-7.2-6.9-10.5-2.5-23.1,8.9-32.6s22.7-14.3,44.9-20L64.2,59.1s-20,1.8-21.9,2.4-2.6,2.2-2,3.7,1.5,4.8,3.5,5.3a1.9,1.9,0,0,0,2.2-.7c.1-.4,1.1-.8,1.7-.9C52,67.9,61,66.6,61,66.6s-9,23.2-15,39c-.4,1,.5,1.8,1.7,1.4a31.2,31.2,0,0,0,5.2-2.8,2.5,2.5,0,0,0,1-1.5c.8-2.2,15.5-37.1,15.5-37.1l31.4-3.7S88.8,89,83,104.3c-.6,1.4.1,2.1,1.2,1.8s5.1-1.9,5.7-2.5a10.9,10.9,0,0,0,1-1.7c2.4-5.5,19.5-41.3,19.5-41.3s14.4-2,24.6-2.6c-24,10.1-29.1,28.6-22,33.1,3.7,2.3,9.2,2.5,15.8-1a54.1,54.1,0,0,0,14.3-12.2c-.5,2.2-1.7,10.6,3.1,11.6,8.9,2,18.5-9.5,35.1-32.4.3-.3,2.1,2.2,2.8,3.9a7.1,7.1,0,0,1,0,6.3c-4.2,7.4-10.6,18.6-7.1,23.3s11.2,3.9,24.8-13c7.1-8.8,16.1-19.7,16.6-20.3s1.7,2.2,2.4,4a5.6,5.6,0,0,1-.3,4.4c-1.5,3.1-2.5,5.1-5.2,9.8-3.6,6.3-5,12.1-2.7,15.4s13.9,2.5,27.3-12.1c-2,4.4-2.4,9,0,11.4s15.7,1,30.3-13.6c-1.8,4.9-2.1,5.3-3.3,8.7h0c-7.5,4.7-18.6,12.7-25.9,20-12.2,12.2-20,28.8-14.3,34.1s23.3-1.8,35.3-23.7c5.9-10.9,8.4-21,10.1-27.2,5.5-3.1,9.9-5.4,14.4-6.6.9-.2,1.3,0,2.1-.5s3.7-3.6,3.7-5S291.5,74.4,290.2,74.8Zm-36.4,41c-10,16.2-20,21.2-22.5,17.7s3.2-15.3,12-24.2a134.6,134.6,0,0,1,21.3-17.5C261.9,98.9,260.5,104.8,253.8,115.8Z" transform="translate(-10 -1.4)" fill="#1f3853"/><path d="M429,18a54.7,54.7,0,0,0-7-2.5,81.8,81.8,0,0,0-15.3-2.1h-1.9c-8.6,0-15.8.9-22.6,3.4-22.3,8.1-25.9,23.7-5.9,31.9,4.9,2,10.5,3.9,15.5,5.6h.1l-.2.3c-2.8,3.9-15.2,23.4-21.4,35-7.5,2.8-11.1,10.5-7.2,13.5s7.6-2.4,11.1-8.9c5.7-1.8,16.7-.2,23.3,1.2a110.7,110.7,0,0,0,13.1,1.8H412a40.5,40.5,0,0,0,8.6-.3C466,90.9,472.5,37.9,429,18Zm-9.6,71.6a54.9,54.9,0,0,1-14.9,1l-4.7-.5c-4.2-.6-16.1-3.1-21.7-2.4,4-6.8,13-19.2,21.2-30.5a76.7,76.7,0,0,1,10.3,4.2c8.6,4.5,5.3,10.3.7,12.8a10.2,10.2,0,0,1-3.7,1c-.4.1-.5.5.1.9a14.3,14.3,0,0,0,6.8.9,10,10,0,0,0,8.6-7.3l.3-2.1c.1-4.1-2.7-8.5-10-11.6-3.4-1.5-6.2-2.4-9.7-3.7A136.4,136.4,0,0,1,412.5,41a14.5,14.5,0,0,1,4.3-3.4,3.7,3.7,0,0,0-1.7-5.5,5.9,5.9,0,0,0-6.7.8,167.7,167.7,0,0,0-13.4,17h-.3c-3.4-1.3-7.5-2.8-11.3-4.6-15.4-7.1-14.2-16.7-.9-22.7,5.5-2.5,13.4-3.7,20.6-4a62.5,62.5,0,0,1,13.2,1.6,42.8,42.8,0,0,1,8,2.6C459.5,38.5,455.7,81.5,419.4,89.6Z" transform="translate(-10 -1.4)" fill="#1f3853"/></svg>