<?xml version="1.0" encoding="utf-8"?>
<!-- Generator: Adobe Illustrator 21.1.0, SVG Export Plug-In . SVG Version: 6.00 Build 0)  -->
<svg version="1.1" id="new" xmlns="http://www.w3.org/2000/svg" xmlns:xlink="http://www.w3.org/1999/xlink" x="0px" y="0px"
	 viewBox="0 0 265.5 115" style="enable-background:new 0 0 265.5 115;" xml:space="preserve">
<style type="text/css">
	.st0{fill:#52247F;}
	.st1{fill:#54B948;}
	.st2{fill:#37B34A;}
</style>
<path id="XMLID_158_" class="st0" d="M44.3,91.2V54.5h6.8v13.3c1.6-1.3,3.2-1.9,4.6-1.9c4.6,0,7.4,5,7.4,14.8
	c0,10.5-3.7,16.2-8.6,16.2c-2.4,0-4.4-1.4-5.9-4.2L47,96.1h-3.3C44.2,94.4,44.3,92.7,44.3,91.2z M52.8,91.9c2.5,0,2.8-3.6,2.8-11.5
	c0-6.4-0.4-9.6-2.6-9.6c-1.1,0-1.9,1.1-1.9,2.1v16.8C51.2,91.1,51.7,91.9,52.8,91.9z"/>
<path id="XMLID_155_" class="st0" d="M75.3,65.8c6.5,0,9.9,5.2,9.9,15.6c0,10.1-3.6,15.4-9.9,15.4c-6.4,0-9.9-5.3-9.9-15.4
	C65.4,71.1,68.8,65.8,75.3,65.8z M72.6,81.4c0,6.6,0.7,9.8,2.6,9.8c2.1,0,2.6-3.2,2.6-9.8c0-6.8-0.5-9.9-2.6-9.9
	C73.3,71.5,72.6,74.7,72.6,81.4z"/>
<path id="XMLID_153_" class="st0" d="M105.5,91.2c0,1.5,0.2,3.2,0.6,4.9h-7.4v-2.6c-1.9,2.2-3.6,3.4-5.8,3.4c-3.2,0-4.6-1.9-4.6-5.8
	V66.6h6.8v22.2c0,1.3,0.6,2.1,1.5,2.1c1,0,1.8-0.6,2.1-1.8V66.6h6.8V91.2z"/>
<path id="XMLID_150_" class="st0" d="M116,96.6c-4.6,0-7.4-4.9-7.4-14.6c0-10.5,3.7-16.2,8.6-16.2c2.4,0,4.4,1.4,6,4.2l1.6-3.4h2.7
	v40.3h-6.8V94.7C119,96,117.4,96.6,116,96.6z M119,70.8c-2.5,0-2.8,3.6-2.8,11.5c0,6.4,0.3,9.6,2.5,9.6c1.1,0,1.9-1.1,1.9-2.1V73
	C120.6,71.6,120.1,70.8,119,70.8z"/>
<path id="XMLID_148_" class="st0" d="M148.7,91.2c0,1.5,0.2,3.2,0.6,4.9h-7.4v-2.6c-1.9,2.2-3.6,3.4-5.8,3.4c-3.2,0-4.6-1.9-4.6-5.8
	V66.6h6.8v22.2c0,1.3,0.6,2.1,1.5,2.1c1,0,1.8-0.6,2.1-1.8V66.6h6.8V91.2z"/>
<path id="XMLID_145_" class="st0" d="M161.6,96.9c-5.9,0-9.9-5.5-9.9-15.2c0-10.4,3.6-15.8,9.5-15.8c5.8,0,8.9,5.1,8.9,15.2
	c0,0.8,0,1.6-0.1,2.4h-10.8c0,0.3,0,0.6,0,0.9c0,4.2,0.8,6.3,2.8,6.3c1.7,0,2.9-1.5,3.2-3.9l5.1,1.1
	C169.2,93.8,166.2,96.9,161.6,96.9z M163.4,77.8c0.1-0.6,0.1-1.2,0.1-1.7c0-3.1-0.6-4.5-2.1-4.5s-2.2,1.5-2.2,4.6c0,0.5,0,1,0.1,1.6
	H163.4z"/>
<path id="XMLID_143_" class="st0" d="M171.7,66.6h3l0.7-9.9h6.1v9.9h4.5v5.7h-4.5v16.4c0,1.4,1.1,2.2,2.8,2.2c0.6,0,1.2-0.1,2-0.3
	v5.2c-2,0.6-3.8,1.1-5.5,1.1c-5,0-6.1-2.2-6.1-7V72.3h-3V66.6z"/>
<path id="XMLID_141_" class="st0" d="M193.3,86.6c0.2,3.2,1,4.6,2.9,4.6c1.5,0,2.6-1.1,2.6-2.4c0-1.7-1-2.3-2.6-3.5
	c-4.6-3.5-8.1-5.7-8.1-10.8c0-5.3,3.5-8.7,8.9-8.7c4.8,0,7.6,2.9,8,8.4l-5.7,0.9c0-0.1,0-0.1,0-0.2c0-2.5-1.1-3.9-2.5-3.9
	c-1.1,0-2.1,1-2.1,2.2c0,2.1,1.6,2.9,4.1,4.6c4.4,3.1,6.8,5.4,6.8,9.9c0,5.4-3.6,8.9-9.2,8.9c-5.4,0-8.6-3.2-8.6-8.7
	c0-0.2,0-0.5,0-0.7L193.3,86.6z"/>
<path id="XMLID_138_" class="st0" d="M206.6,95.3c0-0.8,0.7-1.5,1.5-1.5s1.6,0.7,1.6,1.5c0,0.9-0.7,1.6-1.6,1.6
	C207.3,96.9,206.6,96.2,206.6,95.3z"/>
<path id="XMLID_136_" class="st0" d="M215.4,96.8c-2.3,0-3.6-1.9-3.6-5.7c0-4,1.4-6.2,3.6-6.2c2,0,3.1,1.4,3.1,4.1
	c0,0.1,0,0.2,0,0.4h-2.3c0-0.2,0-0.3,0-0.5c0-1.3-0.2-1.9-0.7-1.9c-0.7,0-0.7,1-0.7,3.1c0,3,0.1,4.4,0.9,4.4c0.6,0,0.9-0.8,0.9-2.3
	v-0.1l2.2,0.1C218.8,95.2,217.5,96.8,215.4,96.8z"/>
<path id="XMLID_133_" class="st0" d="M223.6,84.9c2.5,0,3.8,2,3.8,6c0,3.9-1.4,5.9-3.8,5.9s-3.8-2-3.8-5.9
	C219.8,87,221.1,84.9,223.6,84.9z M222.6,90.9c0,2.5,0.3,3.8,1,3.8c0.8,0,1-1.2,1-3.8c0-2.6-0.2-3.8-1-3.8
	C222.8,87.1,222.6,88.3,222.6,90.9z"/>
<path id="XMLID_131_" class="st0" d="M228.8,85.2h2.6v1.1c0.7-0.9,1.4-1.3,2.2-1.3c0.9,0,1.5,0.5,1.8,1.3c0.7-0.9,1.4-1.3,2.2-1.3
	c1.2,0,1.8,0.7,1.8,2.2v9.4h-2.6V88c0-0.5-0.2-0.7-0.6-0.7c-0.3,0-0.6,0.2-0.8,0.6v8.7h-2.6V88c0-0.5-0.2-0.7-0.6-0.7
	c-0.3,0-0.6,0.2-0.8,0.6v8.7h-2.6V85.2z"/>
<path id="XMLID_128_" class="st0" d="M54.2,29.7h3.6v-5.9c0-4.6,1.9-6.7,6.8-6.7c1.4,0,2.9,0.3,4.4,0.8v5.5
	c-0.7-0.1-1.4-0.2-1.8-0.2c-1.6,0-2.5,0.9-2.5,2.4v4.1h4.2v5.7h-4.2v23.8h-6.8V35.4h-3.6L54.2,29.7L54.2,29.7z"/>
<path id="XMLID_126_" class="st0" d="M70.7,29.7h6.8v4.2c1.8-2.8,4.2-4.4,7.5-4.7V37c-1.1-0.2-2.1-0.4-2.8-0.4
	c-2.9,0-4.6,1.4-4.6,3.4v19.1h-6.8L70.7,29.7L70.7,29.7z"/>
<path id="XMLID_124_" class="st0" d="M104.2,54.3c0,1.5,0.2,3.2,0.6,4.9h-7.4v-2.6c-1.9,2.2-3.6,3.4-5.8,3.4c-3.2,0-4.6-1.9-4.6-5.8
	V29.7h6.8v22.2c0,1.3,0.6,2.1,1.5,2.1c1,0,1.8-0.6,2.1-1.8V29.7h6.8V54.3z"/>
<path id="XMLID_121_" class="st0" d="M108.1,17.8h6.8v7.1h-6.8V17.8z M108.1,29.7h6.8v29.5h-6.8V29.7z"/>
<path id="XMLID_119_" class="st0" d="M117.1,29.7h3l0.7-9.9h6.1v9.9h4.5v5.7h-4.5v16.4c0,1.4,1.1,2.2,2.8,2.2c0.6,0,1.2-0.1,2-0.3
	v5.2c-2,0.6-3.8,1.1-5.5,1.1c-5,0-6.1-2.2-6.1-7V35.4h-3V29.7z"/>
<g id="XMLID_115_">
	<path class="st1" d="M211.5,55.2c9.3-2.5,12.1,6,17.8,11.6c-8.8,4.7-20.9-0.6-18.6-11.6"/>
</g>
<path class="st1" d="M249.4,17.2c-10.7,10.7-26.8,15.8-23,33.1c-4,2.2-8.3,3.7-12.8,4.2c-9.5,1-19.4-1.1-28.6-3.5
	c-16.8-4.4-34.7-10.6-49.4-20c-1.6-1-3.1,1.6-1.5,2.6c16,10.2,35.7,17,54,21.3c9,2.1,19.1,4.1,28.4,2.3c3.9-0.8,7.7-2.2,11.2-4.1
	C248.1,56.7,258,33.9,249.4,17.2z M235.6,48.8c-0.4,0.1-1.3,0.4-2.2,0.6c-1.2,0.2-2.4,0.4-2.6,0.1c-0.3-0.3-0.2-0.8,0-1.4
	c2.4-1.4,4.3-3.2,5.9-5.1c4.1-4.6,6.6-10.4,10.2-15.6c0.5,1.7,0.7,3.4,0.7,5.2c0,1.5-0.2,3.1-0.6,4.5c-0.5,1.8-1.3,3.6-2.4,5.2
	C242.4,45.4,239.2,47.8,235.6,48.8z"/>
<path class="st2" d="M49,31.3l2.6-0.1l-5.2-6l5.9-1.4c-3.8-1.7-6.7-2.9-8.6-3.6l3.7-0.3l2.9,0.2c-5.2-2.8-8.9-4.4-11.1-4.8L37,16.2
	l-1.1-0.6c1.4-1.2,2.1-4.4,2-9.7c-0.1-6-5.1,6.2-5.8,6.9l-8.7-7.5c-0.1,3.1,0.6,6.4,2.2,9.8L19,15.7L14.8,14
	c1.1,1.6,2.6,3.3,4.5,5.2c-6,2.2-8.9,5.7-8.8,10.7c0,1.8,0.6,4.2,1.7,7.2c1.1,3.1,1.6,5.4,1.7,7c0,1.3-0.2,3.3-0.5,6.1
	c-0.4,2.7-0.6,4.7-0.5,5.8c0.1,5.3,3.6,7.8,10.5,7.7c3.4-0.1,8.6-2.9,15.8-8.4c7.1-5.6,10.7-10.5,10.6-14.7c0-1.8-0.3-3.4-0.8-4.8
	c-1.2-2.8-1.8-4.3-1.9-4.6l0.6-0.7L49,31.3z M27.5,10.2c5.2,5.4,4.1,5.5,4.6,7.2h-2.3c-1.3-2-2.5-3.4-3.4-4.2l-0.1-3H27.5z
	 M31.5,29.5c-0.4,0.7-1.1,1-1.6,0.7s-0.7-1.1-0.3-1.7c0.4-0.7,1.1-1,1.6-0.7C31.7,28,31.9,28.8,31.5,29.5z M26.4,33.1
	c0.4-0.7,1.1-1,1.6-0.7s0.7,1.1,0.3,1.7c-0.4,0.7-1.1,1-1.6,0.7C26.2,34.6,26,33.8,26.4,33.1z M18.3,33.7c-0.5-0.3-0.7-1.1-0.3-1.7
	c0.4-0.7,1.1-1,1.6-0.7s0.7,1.1,0.3,1.7C19.5,33.6,18.8,34,18.3,33.7z M19.5,37.6c0.4-0.7,1.1-1,1.6-0.7s0.7,1.1,0.3,1.7
	c-0.4,0.7-1.1,1-1.6,0.7C19.2,39,19.1,38.3,19.5,37.6z M22,54.8c-0.4,0.7-1.1,1-1.6,0.7s-0.7-1.1-0.3-1.7c0.4-0.7,1.1-1,1.6-0.7
	C22.3,53.4,22.4,54.1,22,54.8z M22.7,46.5c-0.4,0.7-1.1,1-1.6,0.7s-0.7-1-0.3-1.7c0.4-0.7,1.1-1,1.6-0.7C22.9,45,23,45.8,22.7,46.5z
	 M23.5,30c-0.4,0.7-1.1,1-1.6,0.7s-0.7-1.1-0.3-1.7c0.4-0.7,1.1-1,1.6-0.7C23.7,28.6,23.8,29.3,23.5,30z M25.7,41.7
	c-0.5-0.3-0.7-1.1-0.3-1.7c0.4-0.7,1.1-1,1.6-0.7s0.7,1.1,0.3,1.7C26.9,41.6,26.2,42,25.7,41.7z M29.3,52c-0.4,0.7-1.1,1-1.6,0.7
	S27,51.6,27.4,51c0.4-0.7,1.1-1,1.6-0.7C29.5,50.6,29.6,51.3,29.3,52z M30.7,45.8c-0.4,0.7-1.1,1-1.6,0.7s-0.7-1.1-0.3-1.7
	c0.4-0.7,1.1-1,1.6-0.7C30.9,44.4,31.1,45.1,30.7,45.8z M32.2,38.4c-0.4,0.7-1.1,1-1.6,0.7s-0.7-1.1-0.3-1.7c0.4-0.7,1.1-1,1.6-0.7
	C32.4,36.9,32.5,37.7,32.2,38.4z M33.5,33.9c-0.5-0.3-0.7-1-0.3-1.7c0.4-0.7,1.1-1,1.6-0.7s0.7,1,0.3,1.7
	C34.8,33.9,34.1,34.2,33.5,33.9z M37.3,42.1c-0.4,0.7-1.1,1-1.6,0.7s-0.7-1.1-0.3-1.7c0.4-0.7,1.1-1,1.6-0.7
	C37.5,40.6,37.6,41.4,37.3,42.1z M40.2,35.8c-0.4,0.7-1.1,1-1.6,0.7s-0.7-1.1-0.3-1.7c0.4-0.7,1.1-1,1.6-0.7
	C40.5,34.3,40.6,35.1,40.2,35.8z"/>
<path id="XMLID_24_" class="st0" d="M231,61.9c0.3,0.2,0.7,0.3,1.2,0.3c0.7,0,1.1-0.4,1.1-0.9s-0.3-0.7-0.9-1
	c-0.8-0.3-1.3-0.7-1.3-1.4c0-0.8,0.7-1.4,1.6-1.4c0.5,0,0.9,0.1,1.1,0.2l-0.2,0.5c-0.2-0.1-0.5-0.2-0.9-0.2c-0.7,0-0.9,0.4-0.9,0.8
	c0,0.5,0.3,0.7,1,1c0.9,0.3,1.3,0.7,1.3,1.5s-0.6,1.5-1.8,1.5c-0.5,0-1-0.1-1.3-0.3L231,61.9z"/>
<path id="XMLID_22_" class="st0" d="M239,60.4c0-0.7-0.1-1.6-0.1-2.2l0,0c-0.2,0.6-0.4,1.2-0.6,1.9l-0.9,2.4h-0.5l-0.8-2.4
	c-0.2-0.7-0.4-1.4-0.6-2l0,0c0,0.6-0.1,1.5-0.1,2.2l-0.1,2.2h-0.6l0.4-5h0.8l0.9,2.4c0.2,0.6,0.4,1.2,0.5,1.7l0,0
	c0.1-0.5,0.3-1.1,0.5-1.7l0.9-2.4h0.8l0.3,5h-0.6L239,60.4z"/>
</svg>
