<svg version="1.1" id="Layer_1" xmlns="http://www.w3.org/2000/svg" xmlns:xlink="http://www.w3.org/1999/xlink" x="0px" y="0px"
	 viewBox="0 0 650 185" style="enable-background:new 0 0 650 185;" xml:space="preserve">
<style type="text/css">
	.st0{clip-path:url(#SVGID_2_);fill:#F15D22;}
	.st1{clip-path:url(#SVGID_2_);fill-rule:evenodd;clip-rule:evenodd;fill:#F15D22;}
	.st2{fill:#999998;}
</style>
<g>

	<path class="st0" d="M597.1,88.2l0.8-3.7l1.6,0.4c0.3,0.1,0.6,0.2,0.7,0.3c0.2,0.1,0.3,0.3,0.3,0.4c0.1,0.2,0.1,0.4,0,0.6
		c-0.1,0.3-0.2,0.5-0.4,0.6c-0.2,0.1-0.5,0.2-0.9,0.2c0.1,0.1,0.2,0.2,0.3,0.2c0.1,0.2,0.2,0.4,0.3,0.6l0.4,1.2l-0.6-0.1l-0.3-0.9
		c-0.1-0.3-0.2-0.5-0.2-0.6c-0.1-0.1-0.1-0.2-0.2-0.3c-0.1-0.1-0.1-0.1-0.2-0.1c-0.1,0-0.1,0-0.3-0.1l-0.6-0.1l-0.4,1.7L597.1,88.2z
		 M598.1,86.2l1,0.2c0.2,0,0.4,0.1,0.5,0c0.1,0,0.2-0.1,0.3-0.2c0.1-0.1,0.1-0.2,0.2-0.3c0-0.2,0-0.3-0.1-0.5
		c-0.1-0.1-0.3-0.2-0.6-0.3l-1.2-0.3L598.1,86.2z"/>
	<path class="st0" d="M600.4,89l-0.7-0.2l0,0l-0.3-0.9c-0.1-0.3-0.2-0.5-0.2-0.6c-0.1-0.1-0.1-0.2-0.2-0.3c-0.1-0.1-0.1-0.1-0.2-0.1
		c0,0-0.1,0-0.3-0.1l-0.5-0.1l-0.4,1.7l-0.6-0.1l0,0l0.8-3.8l1.7,0.4c0.3,0.1,0.6,0.2,0.7,0.3c0.2,0.1,0.3,0.3,0.3,0.5
		c0.1,0.2,0.1,0.4,0,0.6c-0.1,0.3-0.2,0.5-0.4,0.6c-0.2,0.1-0.4,0.2-0.7,0.2c0,0,0,0,0,0c0.1,0.1,0.1,0.1,0.1,0.2
		c0.1,0.2,0.2,0.4,0.3,0.6L600.4,89z M599.8,88.7l0.5,0.1l-0.4-1.1c-0.1-0.2-0.2-0.4-0.3-0.6c-0.1-0.1-0.1-0.2-0.2-0.2l-0.1-0.1
		l0.2,0c0.3,0,0.6,0,0.8-0.2c0.2-0.1,0.3-0.3,0.4-0.6c0-0.2,0-0.4,0-0.6c-0.1-0.2-0.2-0.3-0.3-0.4c-0.1-0.1-0.4-0.2-0.7-0.3
		l-1.6-0.3l-0.8,3.6l0.4,0.1l0.4-1.7l0.6,0.1c0.1,0,0.2,0.1,0.3,0.1c0.1,0,0.1,0.1,0.2,0.2c0.1,0.1,0.1,0.2,0.2,0.3
		c0.1,0.1,0.1,0.3,0.2,0.6L599.8,88.7z M599.5,86.6c-0.1,0-0.3,0-0.4-0.1l-1.1-0.2l0.3-1.3l1.2,0.3c0.3,0.1,0.5,0.2,0.6,0.3
		c0.1,0.2,0.1,0.3,0.1,0.5c0,0.1-0.1,0.2-0.2,0.3c-0.1,0.1-0.2,0.2-0.4,0.2C599.6,86.6,599.6,86.6,599.5,86.6 M598.1,86.2l1,0.2
		c0.2,0,0.4,0.1,0.5,0c0.1,0,0.2-0.1,0.3-0.1c0.1-0.1,0.1-0.2,0.2-0.3c0-0.2,0-0.3-0.1-0.4c-0.1-0.1-0.3-0.2-0.5-0.3l-1.1-0.2
		L598.1,86.2z"/>
	<path class="st0" d="M598.9,90.3c-2,0-3.6-1.6-3.6-3.6c0-2,1.6-3.6,3.6-3.6c2,0,3.6,1.6,3.6,3.6C602.5,88.7,600.9,90.3,598.9,90.3
		 M598.9,83.7c-1.7,0-3,1.4-3,3s1.4,3,3,3c1.7,0,3-1.4,3-3S600.6,83.7,598.9,83.7"/>
	<path class="st1" d="M316.5,112.8c-10.5-0.7-20.4-3.8-27.8-9.5c-6.8-5.2-12.3-12.9-13-24.5c-0.9-20.4,12.4-33.8,27.6-40.4
		c15.6-7,39.6-8.8,58.5-2.9l-0.3,13c-10.9-2.7-30-5-43.1-0.2c-4.6,1.6-9.4,4.2-13.4,7.9c-6.2,5.6-10.9,15.2-9.6,23.8
		c2,13.8,15.6,19.4,27.8,19.3c15.8,0.2,25.8-3.2,35.5-7.6l-2.8,15.7c-7.9,2.9-17.2,4.8-27.7,5.3
		C326.2,112.9,322.9,113.1,316.5,112.8"/>
	<path class="st1" d="M468.5,60.7c2.4-0.1,18,2,18,2l-4.8,17.4c5.5-7.2,14.9-12,27.3-12.8c9.7-1,22.6,1.7,31.5,4.8l-4,11.4
		c-4.9-2.2-7.1-2.9-7.1-2.9c-2.3-0.6-4-0.9-6.8-1.3c-3.9-0.5-8.7-0.5-13.1,0.7c-6.1,1.5-10.8,5.6-11.6,10.7c-0.4,2.8,0.2,5,1.3,6.9
		c2.2,3.3,6.2,5.4,11,6.5c6.9,1.5,12.7,1.6,20.9,0.4l-3.9,11.4c-17.7-0.1-32.2-2.1-42-11.6c-3.4-3.4-6.4-8.2-6.2-14.9l-5.6,19.7
		l-18-1.9l5.6-19.8c-4.6,11.6-16.5,17.8-30,18.6c-17.9,1-36.5-8.7-36.4-25.2l-4.9,22.7l-16.6-0.6l4.2-19.7c0,0-11.6-0.2-21.3-0.4
		l-1.7,7.5c-4.8,1.9-10.7,4.2-19.4,5.3l3.1-13.8c-4.8,0.3-9.7-1.2-9.7-6.3c0.7-5.3,5.4-6.1,12.4-5.8l3.7-16.5l17.5,0.3l-3.4,16.1
		c11.3,0.2,21.9,0.8,21.9,0.8l3.5-16.3l16.2,0.7l-4,19c3.5-8.5,11.8-13.6,18.3-15.8c6.5-2.4,13.9-2.8,18.8-2.3
		c13.8,1.2,22.7,7,26.5,13.8c2.8,4.8,3.1,9.6,2.3,14.3L468.5,60.7z M443.5,76c-1.8-9.9-17.5-12.6-24.9-4.8c-3.9,4-7.5,11.9-3.8,17.7
		c5.7,8.2,18,7.8,24.1,1C441.4,87.2,444.6,81.8,443.5,76"/>
	<polygon class="st1" points="248.6,102.6 258.2,36.2 276.3,35.9 266.7,102.3 	"/>
	<path class="st1" d="M131.4,42.4l-4.8,9.8c5.8-4.5,14.2-2.3,15.5,2.4c1.3,4.8-3.2,8.1-8,8.8c-4.2,0.6-9.5-1.3-10-5.8l-33.2,68.7
		l-9.7,1.4L47.5,55.1l18.8-3.3l20.8,47.5l24.4-54.5L131.4,42.4z"/>
	<path class="st1" d="M476.9,45.4c5.5-1.1,12.2,2.2,11.9,7.3c-0.3,4.3-5.2,6.5-9.5,6.2c-4.6-0.3-9.1-3.2-8.9-7.6
		C470.6,48.2,473.7,46,476.9,45.4"/>
	<path class="st1" d="M187.3,106.5c-15.4,8.1-36.4,8.3-38-9.4c0-0.9,0-1.6,0.1-2.8l2.3-18.9l-10.4,1.3l-3.3,37.5l-19.1,2.8l4.3-48.8
		c4.3-0.5,12.8-1.6,12.8-1.6c8.6-1.3,12.1-1.6,16.8-2.2l1.1-10l19.4-2.4l-1.1,10.3l4.5-0.4c1.6-0.3,4.7-0.7,7,1.1
		c2.2,1.7,2.1,4.5,1.1,6c-0.6,0.9-2.7,3.3-7,3.3l-7.2,0.9c0,0-1.2,9.8-1.6,14.2c-0.4,4.3-0.6,8.1,2.4,10.2c3.7,2.6,11.4-2,14.6-3.5
		L187.3,106.5z"/>
	<path class="st1" d="M184.4,83.5c2.9-24.2,34.4-29.3,66-27.4l-6.4,46.7l-18,1l4.8-36.7c-15.4-0.6-28.4,5.3-27.5,20.3
		c0.5,3.9,2.2,6.8,6.5,8.2c3.3,0.7,7.4,0.5,13.5-2.3l-1.1,8.3c-14.8,8.2-31.2,4.1-36.1-7.2C185,91.9,184,88.9,184.4,83.5"/>
	<path class="st1" d="M580,124.9c-7,0.4-16.2-0.4-20.5-1.3c-6.3-1.3-16.5-4.3-22.9-11.6c-4.6-5.4-6.5-12-4.1-19.9
		c4-11.4,16.9-17.3,30.5-16.7c12.6,0.5,26.4,6.3,30.1,16.9c2.3,6.4-0.3,12.8-2.4,16.4c0,0-4.5-1.4-12.2-3.4
		c-9.4-2.7-28.8-6.8-28.8-6.8c-2.8,8.1,3.6,12.5,6.9,14.1c2,0.9,6,2.7,14.9,2.8c2.3,0.1,9.2,0,13.9-0.4L580,124.9z M560.6,85.3
		c-1.6,0.7-3.8,1.3-7.4,5.9c4.5,0.9,23.2,5.4,23.2,5.4C581,86.4,566.6,82.9,560.6,85.3"/>
</g>
<g>
	<g>
		<path class="st2" d="M124.4,155l-5.8-17.8h4.6l2.3,8.1c0.6,2.2,1.2,4.4,1.6,6.2h0.1c0.4-1.9,1.1-4,1.7-6.2l2.6-8h4.6l2.4,8.2
			c0.6,2.1,1.1,4.1,1.4,6h0.1c0.4-2,1-4,1.6-6.1l2.5-8h4.4L142,155h-4.7l-2.5-8.4c-0.6-2-1-3.7-1.3-5.6h-0.1
			c-0.4,1.9-0.9,3.6-1.6,5.6l-2.8,8.4H124.4z"/>
	</g>
	<g>
		<path class="st2" d="M155.4,140.3V155h-3.6v-14.7H155.4z"/>
		<path class="st2" d="M160.6,140.3h3.6v12.5h8.1v2.2h-11.7V140.3z"/>
		<path class="st2" d="M176.2,140.5c1.6-0.2,3.6-0.3,5.7-0.3c3.7,0,6.2,0.6,8,1.7c1.9,1.2,3.1,2.9,3.1,5.4c0,2.6-1.2,4.6-3.1,5.9
			c-2,1.3-5.1,2-8.9,2c-2.1,0-3.7-0.1-4.9-0.2V140.5z M179.8,153c0.5,0.1,1.3,0.1,2,0.1c4.7,0,7.5-1.9,7.5-5.6c0-3.3-2.5-5.1-7-5.1
			c-1.1,0-2,0.1-2.5,0.2V153z"/>
	</g>
	<g>
		<path class="st2" d="M207.2,151.5c1.4,0.6,3.5,1.1,5.8,1.1c2.8,0,4.3-1,4.3-2.4c0-1.3-1.2-2.1-4.2-3c-3.9-1.1-6.4-2.6-6.4-5.2
			c0-2.9,3.3-5.1,8.4-5.1c2.6,0,4.5,0.4,5.7,0.9l-1.1,2.6c-0.8-0.3-2.5-0.8-4.7-0.8c-2.8,0-4,1.1-4,2.1c0,1.4,1.4,2,4.6,2.9
			c4.1,1.2,6.1,2.7,6.1,5.3c0,2.8-2.9,5.3-9,5.3c-2.5,0-5.1-0.5-6.4-1.1L207.2,151.5z"/>
	</g>
	<g>
		<path class="st2" d="M237.2,148.5h-7.4v4.3h8.3v2.2h-11.9v-14.7h11.5v2.2h-7.9v3.8h7.4V148.5z"/>
		<path class="st2" d="M246.3,150.9l-1.7,4.2h-3.7l6.3-14.7h4.6l6.4,14.7h-3.9l-1.8-4.2H246.3z M251.9,148.8l-1.6-3.6
			c-0.4-0.9-0.7-1.9-1-2.8h-0.1c-0.3,0.9-0.6,1.9-0.9,2.8l-1.5,3.6H251.9z"/>
		<path class="st2" d="M262.1,140.3h11.4v2.2h-7.8v4.1h7.3v2.2h-7.3v6.2h-3.6V140.3z"/>
		<path class="st2" d="M295.6,147.5c0,4.9-4,7.8-9.5,7.8c-5.6,0-9.1-3.2-9.1-7.5c0-4.5,3.8-7.7,9.4-7.7
			C292.2,140.1,295.6,143.3,295.6,147.5z M280.8,147.7c0,3,2,5.4,5.5,5.4c3.5,0,5.4-2.4,5.4-5.5c0-2.8-1.8-5.4-5.4-5.4
			C282.7,142.2,280.8,144.7,280.8,147.7z"/>
		<path class="st2" d="M317.3,147.5c0,4.9-4,7.8-9.5,7.8c-5.6,0-9.1-3.2-9.1-7.5c0-4.5,3.8-7.7,9.4-7.7
			C313.9,140.1,317.3,143.3,317.3,147.5z M302.6,147.7c0,3,2,5.4,5.5,5.4c3.5,0,5.4-2.4,5.4-5.5c0-2.8-1.8-5.4-5.4-5.4
			C304.5,142.2,302.6,144.7,302.6,147.7z"/>
		<path class="st2" d="M321.5,140.5c1.6-0.2,3.6-0.3,5.7-0.3c3.7,0,6.2,0.6,8,1.7c1.9,1.2,3.1,2.9,3.1,5.4c0,2.6-1.2,4.6-3.1,5.9
			c-2,1.3-5.1,2-8.9,2c-2.1,0-3.7-0.1-4.9-0.2V140.5z M325.1,153c0.5,0.1,1.3,0.1,2,0.1c4.7,0,7.5-1.9,7.5-5.6c0-3.3-2.5-5.1-7-5.1
			c-1.1,0-2,0.1-2.5,0.2V153z"/>
	</g>
	<g>
		<path class="st2" d="M367.7,155c-0.6-0.4-1.2-0.9-1.9-1.5c-1.8,1.1-4,1.8-6.7,1.8c-5.3,0-7.9-2.5-7.9-5c0-2.4,1.9-4.1,4.6-5.1
			v-0.1c-1.1-1-1.9-2.3-1.9-3.6c0-2.2,2.3-4.6,6.7-4.6c3.4,0,5.9,1.6,5.9,4c0,1.8-1.4,3.3-4.9,4.6l0,0.1c1.7,1.4,3.5,3,4.8,4.1
			c1-1.2,1.7-2.8,2.2-4.7h3.9c-0.6,2.7-1.7,5-3.7,6.7c1.3,1.1,2.6,2.2,4.1,3.3H367.7z M363.7,151.7c-1.4-1.1-3.7-3-5.9-4.9
			c-1.1,0.6-2.4,1.5-2.4,3c0,1.8,1.7,3.1,4.4,3.1C361.4,152.9,362.8,152.4,363.7,151.7z M357.8,141.2c0,1.1,0.7,2,1.7,2.8
			c2-0.9,3.2-1.8,3.2-3c0-0.9-0.7-2-2.4-2C358.7,139.1,357.8,140.1,357.8,141.2z"/>
	</g>
	<g>
		<path class="st2" d="M406.2,146c0,6-4.8,9.4-11.4,9.4c-6.7,0-11-3.8-11-9c0-5.5,4.6-9.3,11.3-9.3C402.1,137,406.2,140.9,406.2,146
			z M388.4,146.2c0,3.6,2.4,6.5,6.6,6.5c4.2,0,6.6-2.9,6.6-6.6c0-3.3-2.2-6.5-6.6-6.5C390.7,139.6,388.4,142.6,388.4,146.2z"/>
	</g>
	<g>
		<path class="st2" d="M410.8,140.5c1.3-0.2,3.4-0.3,5.4-0.3c2.8,0,4.8,0.3,6.1,1.2c1.1,0.7,1.7,1.7,1.7,2.9c0,1.9-1.7,3.2-3.6,3.7
			v0.1c1.4,0.4,2.3,1.4,2.8,2.8c0.6,1.8,1.1,3.5,1.6,4.1h-3.7c-0.3-0.4-0.8-1.6-1.3-3.5c-0.6-1.9-1.5-2.5-3.5-2.6h-1.8v6h-3.6V140.5
			z M414.4,147h2.1c2.4,0,4-1,4-2.4c0-1.6-1.5-2.4-3.9-2.4c-1.1,0-1.9,0.1-2.2,0.1V147z"/>
		<path class="st2" d="M444.4,154.4c-1.3,0.3-3.7,0.8-6.4,0.8c-3.3,0-5.9-0.6-7.7-2c-1.8-1.2-2.8-3.2-2.8-5.4c0-4.7,4.4-7.6,11-7.6
			c2.4,0,4.3,0.4,5.2,0.7L443,143c-1.1-0.3-2.4-0.6-4.5-0.6c-4.2,0-7.2,1.9-7.2,5.3c0,3.3,2.8,5.3,6.8,5.3c1.3,0,2.3-0.1,2.7-0.3
			V149h-3.5v-2.1h7V154.4z"/>
		<path class="st2" d="M453.1,150.9l-1.7,4.2h-3.7l6.3-14.7h4.6l6.4,14.7h-3.9l-1.8-4.2H453.1z M458.8,148.8l-1.6-3.6
			c-0.4-0.9-0.7-1.9-1-2.8h-0.1c-0.3,0.9-0.6,1.9-0.9,2.8l-1.5,3.6H458.8z"/>
		<path class="st2" d="M468.9,155v-14.7h4.1l5.1,6.3c1.3,1.6,2.5,3.3,3.4,4.9h0.1c-0.2-2-0.3-3.9-0.3-6.1v-5.1h3.3V155h-3.7
			l-5.2-6.5c-1.3-1.6-2.6-3.4-3.5-5.1l-0.1,0c0.1,1.9,0.2,3.8,0.2,6.3v5.3H468.9z"/>
		<path class="st2" d="M493.4,140.3V155h-3.6v-14.7H493.4z"/>
		<path class="st2" d="M512.8,154.6c-0.8,0.3-2.7,0.7-5.1,0.7c-6.3,0-10.1-2.9-10.1-7.4c0-4.8,4.5-7.8,10.5-7.8
			c2.4,0,4.1,0.4,4.8,0.7l-0.8,2.1c-0.9-0.3-2.2-0.6-3.9-0.6c-4,0-6.9,1.9-6.9,5.4c0,3.2,2.5,5.3,6.9,5.3c1.5,0,3-0.2,3.9-0.5
			L512.8,154.6z"/>
		<path class="st2" d="M516.8,152.1c1.2,0.5,2.9,0.9,4.8,0.9c2.3,0,3.6-0.8,3.6-2c0-1.1-1-1.8-3.5-2.4c-3.2-0.9-5.3-2.2-5.3-4.3
			c0-2.4,2.7-4.2,7-4.2c2.1,0,3.7,0.3,4.7,0.7l-0.9,2.2c-0.7-0.3-2.1-0.7-3.9-0.7c-2.3,0-3.3,0.9-3.3,1.8c0,1.1,1.1,1.7,3.8,2.4
			c3.4,1,5.1,2.2,5.1,4.4c0,2.4-2.4,4.4-7.5,4.4c-2.1,0-4.2-0.4-5.3-0.9L516.8,152.1z"/>
	</g>
</g>
</svg>
