<?xml version="1.0" encoding="utf-8"?>
<!-- Generator: Adobe Illustrator 23.0.4, SVG Export Plug-In . SVG Version: 6.00 Build 0)  -->
<svg version="1.1" id="Layer_1" xmlns="http://www.w3.org/2000/svg" xmlns:xlink="http://www.w3.org/1999/xlink" x="0px" y="0px"
	 viewBox="0 0 216 114.28" style="enable-background:new 0 0 216 114.28;" xml:space="preserve">
<path d="M120.08,113.84c0.02,0,0.04,0.02,0.04,0.04c0.01,0.03-0.02,0.05-0.05,0.06c0,0,0,0,0,0c0,0,0,0,0,0c-0.01,0-0.02,0-0.03,0
	c-1.63-0.48-3.16-0.63-4.63-0.78c-2.73-0.29-5.07-0.6-6.71-3.11c-0.24,0.13-0.57,0.23-0.96,0.28c-1.2,0.15-3.01-0.16-4.33-1.17
	c-1.08-0.83-1.63-1.99-1.59-3.31c0-0.02,0.02-0.04,0.04-0.05c0.02-0.01,0.05,0,0.06,0.02c0.03,0.03,2.82,3.38,5.72,3.01
	c0.75-0.09,1.46-0.46,2.06-1c0.01-0.01,0.04-0.02,0.06-0.01c0.02,0,0.04,0.02,0.04,0.04c1.01,3.33,3.22,3.92,5.83,4.55
	C116.98,112.72,118.53,113.07,120.08,113.84z M112.03,105.24c-0.01,0.03,0.01,0.05,0.03,0.06c0.03,0.01,0.05,0,0.07-0.02
	c2.41-2.58,4.37-3.49,5.62-3.72c1.97-0.37,3.6,0.5,4.27,2.3c0.01,0.02,0.03,0.04,0.06,0.04c0,0,0,0,0.01,0
	c0.02,0,0.04-0.02,0.04-0.04c0.57-2.34,2.28-3.55,3.87-4.69c1.61-1.16,3.25-2.38,3.57-4.87c0-0.03-0.01-0.05-0.04-0.06
	c-0.02,0-0.05,0.01-0.06,0.03c-1.79,3.18-3.7,3.76-5.27,4.21c-0.86,0.24-1.67,0.47-2.38,1.14c-1.07-0.35-2.32-0.41-3.52-0.18
	C115.38,99.99,113.14,102.08,112.03,105.24z M122.98,104.94c0.01,0,0.03-0.01,0.03-0.02c2.11-2.36,4.88-4.44,7.16-5.03
	c1.07-0.27,2-0.23,2.71,0.12c0.68,0.34,1.15,0.97,1.38,1.87c0.01,0.02,0.03,0.03,0.05,0.04c0.03,0,0.05-0.01,0.06-0.04
	c1.27-3.38,3.45-4.61,5.48-5.82c1.94-1.15,3.87-2.34,4.59-5.15c0.01-0.02-0.01-0.05-0.03-0.06c-0.03-0.01-0.06,0-0.07,0.02
	c-1.81,2.88-3.64,3.8-5.4,4.6c-1.05,0.47-2.13,0.96-3.23,1.86c-0.21,0.01-1.94,0.13-4.03,0.69c-3.11,0.83-7.11,2.6-8.77,6.86
	c-0.01,0.02,0,0.05,0.03,0.06C122.95,104.94,122.97,104.94,122.98,104.94z M126.37,111.5c-2.72-0.83-4.85-1.55-6.71-4.54
	c-0.01-0.02-0.04-0.03-0.06-0.02c-0.03,0.01-0.05,0.03-0.05,0.05c-0.05,1.31-0.74,2.16-1.92,2.37c-2.06,0.36-5.39-1.39-6.72-4.24
	c-0.01-0.02-0.04-0.04-0.07-0.03c0,0,0,0,0,0c-0.03,0.01-0.05,0.03-0.05,0.06c0.21,2.5,1.7,4.04,2.97,4.86
	c1.92,1.24,4.53,1.73,6.92,1.27c0.21-0.04,0.43-0.09,0.63-0.14c1.91,1.29,3.88,1.5,5.8,1.68c1.69,0.16,3.44,0.3,5.25,1.13
	c0.02,0.01,0.03,0.01,0.05,0c0,0,0,0,0,0c0,0,0,0,0,0c0.03-0.01,0.06-0.03,0.05-0.06c-0.01-0.02-0.02-0.03-0.04-0.04
	C130.07,112.61,128.1,112.03,126.37,111.5z M130.79,110.28C130.79,110.28,130.79,110.28,130.79,110.28
	C130.79,110.28,130.79,110.28,130.79,110.28L130.79,110.28z M141.37,110.05c-3.03-0.14-6.49-0.38-10.21-4.09
	c-0.02-0.02-0.05-0.02-0.07-0.01c-0.02,0.01-0.04,0.03-0.04,0.05c0.16,1.18-0.49,2.06-1.82,2.37c-2.28,0.54-5.7-0.6-8.18-2.8
	c-0.02-0.02-0.05-0.02-0.08-0.01c-0.02,0.01-0.04,0.04-0.03,0.06c1.41,3.45,6.61,5.43,9.84,4.65c0.47-0.11,0.89-0.28,1.22-0.51
	c2.86,1.35,5.86,1.3,8.75,1.2c2.24-0.08,4.36-0.2,6.35,0.28c0.01,0,0.03,0,0.04,0c0.02,0,0.03-0.01,0.04-0.03
	c0.02-0.02,0.01-0.05-0.02-0.07C145.29,110.27,143.38,110.14,141.37,110.05z M158.62,105.49c-3.74,1.12-9.56,2.66-15.18-1.28
	c-0.01-0.01-0.03-0.02-0.05-0.02c-0.02,0.01-0.03,0.01-0.04,0.03c-0.01,0.01-1,1.46-3.01,2.06c-2.21,0.66-4.73,0.08-7.35-1.76
	c-0.02-0.01-0.05-0.01-0.08,0c-0.02,0.01-0.03,0.04-0.01,0.06c2.29,3.23,6.79,4.51,11.91,2.88c0.07-0.02,0.14-0.05,0.21-0.07
	c6.21,1.27,9.86,0.36,12.76-0.77c0.47-0.18,0.92-0.37,1.36-0.55c0.43-0.18,0.83-0.35,1.24-0.52c0.81-0.33,1.46-0.56,2.11-0.73
	c0,0,0.01,0,0.01,0c0,0,0,0,0,0c0.03-0.01,0.04-0.05,0.03-0.07c-0.01-0.02-0.03-0.03-0.06-0.03
	C161.56,104.59,160.27,105,158.62,105.49z M162.97,99.72c-3.2,0.9-6.24,1.64-7.52,0.83c-0.02-0.01-0.04-0.01-0.06,0
	c-0.02,0-0.03,0.03-0.04,0.05c-0.1,0.73-0.61,1.29-1.54,1.64c-2.52,0.95-7.38,0.11-9.56-0.91c-0.03-0.01-0.05,0-0.07,0.02
	c-0.02,0.02-0.02,0.04-0.01,0.06c2.14,2.67,7.45,3.9,11.23,2.45c0.75-0.29,1.42-0.67,1.99-1.13c1.84-0.11,3.81-0.85,6.05-1.74
	c2.59-1.03,5.48-2.25,8.82-2.82c0.01,0,0.01,0,0.02-0.01c0,0,0,0,0,0c0.03-0.02,0.04-0.05,0.03-0.07c-0.01-0.02-0.04-0.03-0.06-0.03
	C169.75,97.7,166.17,98.83,162.97,99.72z M178.73,81.3c-5.4,5.02-4.81,6.55-10.17,9.07c-2.61-1.01-5.81,1.19-5.81,1.19
	c0.17-2.77,6.35-3.55,8.71-7.74c0.12-0.21-0.03-0.23-0.22-0.02c-4.57,4.74-15.46,5.17-23.91,15.99c-0.12,0.15-0.02,0.19,0.15,0.05
	c5.17-4.37,12.43-10.37,12.06-5.16c-0.01,0.11,0.3,0.18,0.38,0.1c6.8-6.23,12.93,0.25-1.96,3.71c-0.21,0.05-0.42,0.18-0.3,0.2
	c3.49,0.6,12.12-1.84,12.32-6.25c5.38-3.47,5.84-7.34,8.97-11.13C179.25,80.94,179.1,80.96,178.73,81.3z M146.27,98.68
	c0.03,0,0.06-0.01,0.07-0.03c0.73-1.74,2.02-2.64,3.36-3.62c1.91-1.39,3.89-2.87,4.26-6.83c0-0.03-0.02-0.05-0.05-0.06
	c-0.03-0.01-0.05,0.02-0.06,0.04c-1.31,3.92-3.57,4.97-5.16,5.63c-0.54,0.23-1.01,0.42-1.4,0.69c-1.07,0.08-2.1,0.29-3.1,0.64
	c-5.99,2.06-9.2,8.4-9.23,8.46c-0.01,0.02,0,0.05,0.02,0.06c0.02,0.01,0.03,0.01,0.05,0.01c0.01,0,0.02-0.01,0.03-0.02
	c3.2-3.57,6.98-5.96,8.96-6.64c0.62-0.21,1.09-0.26,1.37-0.13c0.99,0.43,0.82,1.73,0.82,1.74
	C146.22,98.65,146.24,98.68,146.27,98.68z M108.68,102.47c0.94,0.64,0.98,2.05,0.98,2.07c0,0.03,0.02,0.05,0.07,0.05
	c0.02,0,0.04-0.01,0.05-0.03c1.47-3.2,3.8-4.38,5.88-5.4c1.97-0.96,3.65-1.83,3.99-4.21c0-0.02-0.01-0.05-0.04-0.06
	c-0.03-0.01-0.05,0-0.07,0.02c-1.77,2.67-3.41,3.15-5.05,3.61c-1.09,0.31-2.21,0.62-3.6,1.53c-0.24-0.08-1.91-0.63-3.73-0.39
	c-0.73,0.1-1.36,0.39-2,0.71c-0.64,0.33-1.56,0.38-2.26,0.46c-1.27,0.15-2.55,0.16-3.82,0.2c-1.85-0.12-3.71-0.22-5.56-0.39
	c-2.32-0.21-4.63-0.48-6.94-0.8c-2.31-0.32-4.61-0.69-6.9-1.11c-2.28-0.42-4.54-0.9-6.8-1.43c-5.83-1.36-11.56-3.15-17.12-5.36
	l-0.01-0.01c0.75,0.85,1.35,1.71,1.84,2.5c4.87,1.82,9.85,3.33,14.9,4.52c0.53,0.13,1.07,0.25,1.6,0.37
	c2.27,0.51,4.56,0.97,6.85,1.37c2.29,0.4,4.6,0.75,6.91,1.05c2.31,0.3,4.63,0.55,6.95,0.74c0.77,0.07,1.54,0.13,2.32,0.18l0,0
	c0.64,0.05,2.84,0.22,2.77,0.66c-0.07,0.44-1.87,0-2.84-0.14c-0.02,0-0.04,0-0.06-0.01c-0.66-0.11-1.32-0.18-1.98-0.24
	c-2.32-0.19-4.64-0.43-6.95-0.71c-2.31-0.29-4.61-0.63-6.91-1.02c-2.3-0.39-4.58-0.84-6.86-1.33c-0.74-0.16-1.48-0.33-2.21-0.5
	c-4.75-1.14-9.44-2.53-14.03-4.19c0.22,0.38,0.42,0.74,0.6,1.07l0.04,0.07c0.06,0.1,0.11,0.2,0.16,0.29
	c4.25,1.5,8.59,2.77,12.97,3.83c2.27,0.54,4.55,1.02,6.84,1.45c2.29,0.43,4.59,0.81,6.9,1.13c2.28,0.32,4.58,0.59,6.87,0.82
	c0,0,0,0,0,0c0.01,0,0.02,0,0.03,0c0.01,0,0.03,0,0.04,0c0.93,0.09,1.76,0.16,2.54,0.23c1.7,0.19,3.53,0.52,4.54,1.22
	c0.2,0.15,0.36,0.3,0.49,0.46c0.04,0.05,0.08,0.09,0.11,0.14c0.09,0.16,0.17,0.28,0.23,0.37c0.12,0.21,0.25,0.46,0.43,0.76
	c0.08,0.14,0.16,0.25,0.13-0.01C100.53,102.68,106.24,100.81,108.68,102.47z M198.87,41.74c1.32,3.46,2.02,7.05,2.02,10.73
	c0,10.43-5.58,20.48-16.15,29.07c-0.18,0.15-0.21,0.42-0.06,0.6c0.15,0.18,0.42,0.21,0.6,0.06c10.77-8.75,16.47-19.03,16.47-29.73
	c0-3.71-0.7-7.34-2.01-10.84L198.87,41.74z M196.2,42.07c1.34,3.35,2.06,6.83,2.06,10.4c0,9.32-4.89,18.4-14.15,26.26
	c-0.32,0.27-0.36,0.76-0.09,1.08c0.27,0.32,0.75,0.36,1.08,0.09c9.61-8.16,14.69-17.64,14.69-27.42c0-3.63-0.71-7.18-2.04-10.59
	L196.2,42.07z M41.35,87.48c-1.05-0.63-2.06-1.36-3.09-2.02c-2.56-1.68-4.98-3.55-7.29-5.54c-2.28-2.02-4.39-4.24-6.28-6.62
	c-0.45-0.61-0.94-1.2-1.36-1.83l-1.26-1.9l-1.13-1.98c-0.37-0.66-0.66-1.37-1-2.05c-0.25-0.57-0.49-1.14-0.71-1.72
	c0,0,0-0.01-0.01-0.01l-1.01,0.12l-0.03,0c0,0.01,0,0.01,0.01,0.02c0,0.01,0,0.01,0.01,0.02c0.13,0.34,0.26,0.68,0.39,1.01
	c0.13,0.33,0.26,0.67,0.42,0.99c0.34,0.7,0.65,1.42,1.03,2.11l1.16,2.04l1.29,1.95c0.44,0.65,0.93,1.25,1.4,1.88
	c1.93,2.45,4.08,4.71,6.4,6.77c2.35,2.03,4.81,3.93,7.4,5.64c1.91,1.24,4.49,2.79,6.48,3.89C43.46,89.42,42.08,88.31,41.35,87.48z
	 M93.22,88.75c-0.07,0.34-0.37,0.58-0.73,0.48c-0.12-0.02-0.17-0.05-0.25-0.1c-0.04-0.03-4.47-3.09-11.02-4.38
	c-6.33-1.25-12.45-0.48-18.19,2.27c-2.93,1.41-6.12,2.13-9.38,1.99c-0.84-0.03-1.67-0.12-2.5-0.25c-0.68-0.11-1.31-0.3-1.95-0.51
	c5.87,2.54,7.79,6.77,9.04,9c6.86,12.16,21.39,16.11,21.53,16.15c0.23,0.06,0.38,0.3,0.32,0.54c-0.06,0.24-0.29,0.38-0.53,0.33
	l-0.08-0.02c-1.59-0.37-15.77-3.87-24.11-12.53c-2.21-2.3-4.1-4.38-5.76-6.21c-3.02-3.32-5.33-6.02-8.01-8.33
	c-2.25-1.39-5.39-3.6-8.58-6.33c0,0,0-0.01,0.01-0.03c-0.46-0.38-0.93-0.76-1.38-1.15c-2.3-2.01-4.42-4.23-6.33-6.63
	c-1.9-2.41-3.55-5.02-4.81-7.84c-0.22-0.49-0.42-0.98-0.61-1.48l1.64-0.2c0.13,0.35,0.27,0.69,0.42,1.03
	c1.2,2.68,2.79,5.18,4.62,7.49c1.84,2.31,3.89,4.46,6.13,6.41c1.22,1.06,2.49,2.06,3.79,3.03c0.27,0.06,0.55,0.13,0.82,0.18
	c5.9,1.16,11.22,0.23,18.58-1.07c2.54-0.45,5.42-0.95,8.64-1.42c3.01-0.44,6.24-0.33,9.61,0.34c9.86,1.94,17.81,7.87,18.73,8.58
	C93.13,88.2,93.27,88.47,93.22,88.75z M46.29,89.01C46.27,89,46.25,89,46.23,88.99c-0.03-0.01-0.05-0.01-0.07-0.01c0,0,0,0,0,0
	c-0.02,0-0.03,0-0.04,0.01c0,0-0.01,0.01-0.01,0.01c0,0,0,0.01,0,0.02c0.01,0.01,0.02,0.03,0.05,0.05c0.45,0.34,0.89,0.69,1.32,1.05
	l0.3,0.25c1.01,0.84,1.87,1.62,2.62,2.4c0.76,0.77,1.4,1.51,1.96,2.25c0.21,0.29,0.42,0.59,0.62,0.9c0.37,0.53,0.75,1.09,1.16,1.6
	c1.41,1.82,2.77,3.32,4.14,4.6c1.63,1.54,2.87,2.35,4.46,3.14c0.21,0.1,0.24,0.02,0.04-0.13c-1.49-1.12-2.8-2.43-3.91-3.59
	c-1.14-1.23-2.61-2.88-3.91-4.64c-0.31-0.4-0.59-0.82-0.87-1.24c-0.28-0.42-0.56-0.84-0.88-1.26c-0.57-0.75-1.26-1.51-2.13-2.31
	C49.56,90.74,47.98,89.77,46.29,89.01z M81.63,83.38c-1.3-0.69-2.72-1.14-4.15-1.49c-1.74-0.4-3.52-0.63-5.31-0.7
	c-3.58-0.17-7.19,0.41-10.61,1.53c-0.43,0.14-0.85,0.3-1.27,0.45c-0.41,0.14-0.8,0.3-1.21,0.41c-0.8,0.26-1.63,0.45-2.46,0.62
	c-1.66,0.33-3.36,0.53-5.07,0.6c-1.71,0.06-3.44,0-5.17-0.13c-1.47-0.1-4.26-0.59-6.51-1.1c-0.14-0.03-0.27,0.12-0.07,0.21
	c0.14,0.07,1.24,0.49,2.01,0.79c0.54,0.2,1.09,0.36,1.64,0.53c0.91,0.28,1.84,0.55,2.77,0.74c1.75,0.34,3.55,0.51,5.35,0.52
	c1.8,0.02,3.62-0.11,5.39-0.5c0.89-0.19,1.77-0.44,2.63-0.74c0.43-0.14,0.86-0.33,1.27-0.48c0.4-0.15,0.79-0.32,1.2-0.47
	c3.22-1.19,6.64-1.81,10.09-1.88c3.18-0.06,6.32,0.49,9.43,1.33C81.87,83.69,81.9,83.53,81.63,83.38z M168.17,14.27
	c-9.28-4.46-19.2-7.53-29.29-9.5c-11.88-2.32-24.01-3.19-36.1-2.8c-12.08,0.4-24.15,2.09-35.82,5.36
	C61.13,8.97,55.39,11,49.89,13.57l-2.06,0.97l-2.02,1.04L44.8,16.1c-0.34,0.18-0.66,0.37-0.99,0.56l-1.98,1.13
	c-0.65,0.39-1.29,0.8-1.94,1.2l-0.97,0.6c-0.32,0.21-0.63,0.43-0.94,0.64c0,0-1.17,0.8-1.2,0.83s-0.03,0.08,0.05,0.07
	c0.12-0.01,3.11-0.38,3.11-0.38l0.76-0.48c0.63-0.39,1.26-0.8,1.9-1.18l1.94-1.11c0.33-0.18,0.64-0.37,0.97-0.55l0.99-0.52
	l1.99-1.03l2.03-0.95c5.41-2.54,11.07-4.55,16.83-6.17c11.53-3.25,23.49-4.94,35.47-5.36c11.98-0.4,24.02,0.45,35.79,2.72
	c9.72,1.88,19.27,4.79,28.21,8.99C167.26,14.81,167.7,14.53,168.17,14.27z M170.52,13.19c-10.16-5.06-21.1-8.44-32.23-10.5
	c-12.15-2.26-24.55-3.04-36.88-2.53C95.24,0.41,89.08,1,82.98,1.96C76.88,2.92,70.83,4.23,64.91,6c-5.92,1.76-11.73,3.95-17.3,6.65
	c-0.7,0.32-1.38,0.7-2.07,1.05c-0.68,0.36-1.38,0.7-2.05,1.08l-2.02,1.15c-0.33,0.19-0.68,0.38-1.01,0.58l-0.98,0.62l-1.96,1.24
	l-1.91,1.33l-0.95,0.67l-0.92,0.71c-0.18,0.14-0.36,0.28-0.53,0.42c-0.03,0.03,0.02,0.07,0.02,0.07l1.75-0.21l0.26-0.2l0.94-0.66
	l1.88-1.32l1.94-1.23l0.97-0.61c0.33-0.2,0.66-0.38,0.99-0.58l1.99-1.14c0.66-0.38,1.36-0.71,2.03-1.07
	c0.68-0.34,1.35-0.72,2.05-1.04c5.52-2.67,11.27-4.85,17.15-6.61c5.88-1.77,11.89-3.07,17.95-4.04c6.06-0.96,12.18-1.56,18.32-1.82
	c12.27-0.52,24.61,0.25,36.69,2.48c10.83,2,21.48,5.25,31.39,10.09C169.84,13.45,170.18,13.31,170.52,13.19z M9.94,60.52l1.29-0.16
	l8.34-23.08c0.48,1.86,1.01,3.75,1.58,5.62l4.7,15.66l1.28-0.16l0.03-0.09c1.23-3.09,3.14-8.16,5.68-15.05
	c0.97-2.7,1.92-5.28,2.82-7.66c0.67-1.84,1.24-3.19,1.67-4.01c0.42-0.8,0.89-1.39,1.38-1.74c0.5-0.35,1.24-0.64,2.19-0.87l0.11-0.03
	l0.1-1.66l-8.61,1.06l-0.1,2.13l3.14-0.5c-0.46,0.83-0.87,1.8-1.24,2.9l-0.57,1.58c-1.55,4.13-2.98,8.09-4.25,11.76l-1.97,5.29
	c-0.35-1.29-0.92-3.31-1.71-6.02l-0.24-0.82c-0.08-0.32-0.68-2.36-1.72-5.88c-0.3-1.05-0.74-2.59-1.33-4.6
	c-0.58-2-0.99-3.48-1.2-4.4l-0.03-0.13l-1.34,0.17l-0.03,0.09c-0.41,1.3-2.19,6.37-5.31,15.08c-0.38,1.12-0.68,1.98-0.9,2.56
	l-0.53,1.46c-0.43,1.2-0.92,2.56-1.44,4.09l-0.51-1.68c-0.59-1.98-1.06-3.6-1.39-4.81c-0.25-0.98-0.6-2.19-1.07-3.6
	c-0.11-0.34-0.33-1.07-0.67-2.2c-0.34-1.12-0.63-2.26-0.88-3.4c-0.19-0.75-0.28-1.45-0.28-2.09c0-0.75,0.22-1.29,0.66-1.67
	c0.45-0.38,1.26-0.67,2.4-0.86l0.12-0.02l0.1-1.66L0.1,32.36L0,34.48l2.32-0.37c0.06,0.46,0.19,1.03,0.37,1.72
	c0.21,0.76,0.46,1.62,0.76,2.55l0.29,0.99L9.94,60.52z M45.33,54.83c1.96-0.24,3.68-1,5.13-2.26c1.44-1.25,2.56-2.85,3.33-4.73
	c0.76-1.88,1.15-3.91,1.15-6.04c0-1.77-0.32-3.28-0.97-4.5c-0.64-1.22-1.55-2.12-2.7-2.66c-0.87-0.41-1.82-0.62-2.84-0.62
	c-0.33,0-0.67,0.02-1.01,0.06c-1.95,0.24-3.69,0.98-5.14,2.2c-1.46,1.22-2.59,2.78-3.37,4.64c-0.78,1.86-1.17,3.88-1.17,6
	c0,2.58,0.64,4.64,1.91,6.11c1.06,1.24,2.56,1.87,4.46,1.87C44.49,54.91,44.9,54.88,45.33,54.83z M50.21,37.64
	c0.67,1.4,1.01,3.19,1.01,5.32c0,1.37-0.19,2.83-0.58,4.33c-0.38,1.49-0.99,2.79-1.81,3.88c-0.81,1.07-1.86,1.69-3.12,1.84
	c-0.17,0.02-0.33,0.03-0.49,0.03l0,0c-1.25,0-2.15-0.63-2.75-1.94c-0.68-1.5-1.03-3.33-1.03-5.43c0-1.7,0.22-3.3,0.65-4.73
	c0.43-1.43,1.06-2.61,1.88-3.5c0.81-0.88,1.77-1.4,2.86-1.53c0.21-0.03,0.4-0.04,0.59-0.04C48.73,35.86,49.64,36.44,50.21,37.64z
	 M62.03,52.78c0.98-0.12,1.85-0.54,2.58-1.26c0.72-0.7,1.3-1.52,1.71-2.42c0.42-0.9,0.69-1.73,0.82-2.48l0.03-0.16L65.8,46.3
	l-0.04,0.13c-0.35,1.31-0.79,2.3-1.29,2.95c-0.49,0.63-0.96,0.98-1.4,1.04c-0.05,0.01-0.11,0.01-0.15,0.01
	c-0.28,0-0.45-0.11-0.53-0.33c-0.12-0.31-0.18-0.78-0.18-1.41c0-1.74,0.19-4.66,0.56-8.66c0.37-4,0.77-7.58,1.18-10.64
	c0.08-0.74,0.27-2.05,0.58-3.89l0.46-3l-1.33,0.16l-0.04,0.03c-0.4,0.37-0.92,0.69-1.57,0.94c-0.66,0.26-1.75,0.48-3.25,0.66
	l-0.12,0.01l-0.23,1.9l2.74-0.49l-0.31,1.92c-0.49,3.67-0.96,7.85-1.41,12.43c-0.45,4.6-0.68,7.79-0.68,9.49
	c0,1.2,0.26,2.07,0.78,2.61c0.42,0.43,1.03,0.65,1.83,0.65C61.58,52.82,61.8,52.81,62.03,52.78z M65.66,62.39
	c2.23-0.27,3.94-1.27,5.1-2.96c1.14-1.67,1.93-3.67,2.34-5.93c0.41-2.24,0.78-5.32,1.09-9.14l0.23-2.77
	c0.1-1.29,0.24-3.42,0.43-6.51l0.11-2.05l5.49-0.75l0.14-1.83l-5.49,0.67c0.23-2.75,0.61-4.88,1.12-6.33
	c0.51-1.46,1.32-2.24,2.48-2.38c0.16-0.02,0.31-0.03,0.43-0.03c0.13,0,0.22,0.01,0.28,0.03c-0.01,0.56,0.14,1.01,0.45,1.34
	c0.28,0.3,0.64,0.46,1.09,0.46c0.08,0,0.17-0.01,0.26-0.02c0.53-0.07,0.94-0.3,1.21-0.71c0.26-0.39,0.39-0.78,0.39-1.17
	c0-0.7-0.27-1.21-0.81-1.53c-0.38-0.22-0.87-0.33-1.46-0.33c-0.22,0-0.47,0.02-0.72,0.05c-2.49,0.31-4.34,1.44-5.53,3.37
	c-1.15,1.88-1.97,4.46-2.44,7.66l-3.41,0.42l-0.23,2l3.4-0.46c-0.17,1.69-0.32,3.48-0.44,5.32l-0.23,2.81
	c-0.13,1.25-0.27,3.19-0.43,5.78c-0.23,3.21-0.45,5.66-0.66,7.3c-0.2,1.63-0.55,2.99-1.03,4.05c-0.47,1.04-1.13,1.59-2.01,1.7
	c-0.11,0.01-0.21,0.02-0.31,0.02c-0.25,0-0.46-0.04-0.64-0.13c-0.02-0.54-0.17-0.96-0.47-1.26c-0.26-0.27-0.61-0.4-1.02-0.4
	c-0.08,0-0.17,0.01-0.26,0.02c-0.53,0.07-0.95,0.31-1.23,0.73c-0.27,0.4-0.41,0.81-0.41,1.2c0,0.73,0.29,1.25,0.85,1.55
	c0.38,0.2,0.88,0.3,1.48,0.3C65.07,62.44,65.36,62.42,65.66,62.39z M88.71,49.51c1.77-0.22,3.36-0.9,4.72-2.02
	c1.35-1.11,2.59-2.78,3.67-4.96l0.07-0.14l-1.56-0.7l-0.07,0.13c-0.81,1.62-1.77,2.9-2.86,3.81c-1.08,0.9-2.21,1.43-3.36,1.57
	c-0.2,0.03-0.4,0.04-0.59,0.04c-1.15,0-1.99-0.45-2.59-1.38c-0.69-1.07-1.05-2.79-1.06-5.11c2.97-0.7,5.62-1.73,7.89-3.05
	c2.33-1.36,3.52-3.04,3.52-5c0-1.57-0.55-2.69-1.62-3.31c-0.8-0.46-1.77-0.7-2.87-0.7c-0.35,0-0.72,0.02-1.1,0.07
	c-2.03,0.25-3.79,1.03-5.23,2.33c-1.43,1.29-2.52,2.91-3.23,4.8c-0.71,1.89-1.07,3.91-1.07,6c0,2.63,0.62,4.65,1.84,6.01
	c1.01,1.12,2.44,1.69,4.25,1.69C87.86,49.58,88.28,49.56,88.71,49.51z M92.31,30.96c0.45,0.46,0.67,1.11,0.67,1.91
	c0,1.33-0.78,2.56-2.33,3.65c-1.53,1.07-3.38,1.91-5.5,2.49c0.17-2.22,0.69-4.17,1.55-5.8c0.87-1.65,2.12-2.59,3.71-2.79
	c0.15-0.02,0.29-0.03,0.43-0.03C91.46,30.4,91.94,30.59,92.31,30.96z M102.24,47.42l3.51-0.43l-0.01-0.14
	c-0.05-0.84-0.08-1.41-0.08-1.64c0-2.02,0.32-4.32,0.96-6.85c0.64-2.53,1.48-4.74,2.5-6.57c1-1.8,2.03-2.77,3.06-2.9
	c0.1-0.01,0.19-0.02,0.27-0.02c0.08,0.49,0.29,0.86,0.63,1.11c0.3,0.22,0.64,0.32,1.03,0.32c0.09,0,0.18-0.01,0.28-0.02
	c0.55-0.07,1.02-0.33,1.38-0.77c0.36-0.44,0.54-0.93,0.54-1.45c0-0.75-0.28-1.31-0.82-1.68c-0.41-0.28-0.93-0.42-1.52-0.42
	c-0.17,0-0.35,0.01-0.53,0.03c-1.42,0.18-2.77,0.98-4,2.41c-1.06,1.22-2.07,3.17-3.01,5.79c0.23-1.38,0.34-2.54,0.34-3.46
	c0-1.24-0.23-2.18-0.69-2.79c-0.39-0.53-0.99-0.79-1.79-0.79c-0.16,0-0.33,0.01-0.51,0.03c-0.98,0.12-1.85,0.54-2.58,1.26
	c-0.72,0.7-1.3,1.52-1.73,2.44c-0.43,0.91-0.71,1.75-0.84,2.5l-0.03,0.16l1.38,0.13l0.03-0.12c0.35-1.28,0.79-2.27,1.29-2.93
	c0.49-0.64,0.96-1,1.4-1.05c0.05-0.01,0.11-0.01,0.16-0.01c0.26,0,0.42,0.09,0.52,0.29c0.13,0.27,0.2,0.67,0.2,1.18
	c0,0.43-0.08,1.33-0.23,2.68l-0.5,4.55c-0.41,3.75-0.62,6.45-0.62,8.02c0,0.45,0.01,0.78,0.04,1.02L102.24,47.42z M119.71,45.27
	l3.54-0.44l-0.01-0.14c-0.05-0.86-0.08-1.55-0.08-2.03c0-2.14,0.35-4.53,1.04-7.11c0.69-2.58,1.59-4.8,2.67-6.61
	c1.06-1.78,2.15-2.76,3.23-2.89c0.1-0.01,0.19-0.02,0.28-0.02c0.94,0,1.4,0.69,1.4,2.11c0,1.2-0.22,3.52-0.66,6.9
	c-0.18,1.41-0.35,2.84-0.5,4.28c-0.15,1.44-0.23,2.6-0.23,3.45c0,0.44,0.01,0.78,0.04,1.02l0.02,0.15l3.55-0.44L134,43.37
	c-0.05-0.85-0.08-1.53-0.08-2.03c0-2.17,0.34-4.57,1.02-7.12c0.68-2.56,1.57-4.78,2.65-6.59c1.06-1.78,2.17-2.76,3.27-2.89
	c0.1-0.01,0.19-0.02,0.27-0.02c0.47,0,0.79,0.17,1.01,0.51c0.27,0.43,0.4,0.93,0.4,1.49c0,0.68-0.05,1.48-0.13,2.38
	c-0.09,0.9-0.21,1.89-0.37,2.94c-0.15,1.07-0.25,1.72-0.27,1.94c-0.41,2.39-0.62,4.14-0.62,5.21c0,1.29,0.24,2.24,0.71,2.82
	c0.39,0.47,1.01,0.71,1.86,0.71c0.21,0,0.44-0.02,0.69-0.05c0.98-0.12,1.86-0.54,2.6-1.26c0.73-0.7,1.32-1.52,1.75-2.42
	c0.43-0.9,0.71-1.73,0.84-2.48l0.03-0.16l-1.38-0.18l-0.04,0.13c-0.35,1.31-0.79,2.3-1.31,2.95c-0.5,0.63-0.98,0.98-1.43,1.04
	c-0.05,0.01-0.1,0.01-0.15,0.01c-0.26,0-0.42-0.09-0.52-0.29c-0.13-0.27-0.2-0.68-0.2-1.22c0-0.6,0.17-1.97,0.5-4.06
	c0.26-1.7,0.45-3.12,0.58-4.23c0.13-1.12,0.19-2.23,0.19-3.31c0-1.52-0.33-2.74-0.98-3.61c-0.55-0.74-1.4-1.12-2.53-1.12
	c-0.23,0-0.47,0.02-0.73,0.05c-1.27,0.16-2.54,0.94-3.77,2.34c-1.03,1.16-2.05,3.06-3.04,5.65c0.08-0.38,0.14-0.67,0.18-0.89
	c0.08-0.47,0.12-1.05,0.12-1.72c0-1.16-0.35-2.18-1.04-3.03c-0.58-0.71-1.44-1.07-2.54-1.07c-0.23,0-0.47,0.02-0.73,0.05
	c-1.27,0.16-2.53,0.96-3.73,2.4c-1.05,1.25-2.08,3.28-3.07,6.04c0.06-0.37,0.13-0.76,0.19-1.16c0.14-0.9,0.21-1.73,0.21-2.45
	c0-2.45-0.87-3.69-2.59-3.69c-0.16,0-0.32,0.01-0.49,0.03c-0.98,0.12-1.85,0.54-2.58,1.26c-0.72,0.7-1.3,1.52-1.73,2.44
	c-0.43,0.91-0.71,1.75-0.84,2.5l-0.03,0.16l1.38,0.13l0.03-0.12c0.36-1.28,0.79-2.27,1.29-2.93c0.49-0.64,0.96-1,1.4-1.05
	c0.05-0.01,0.11-0.01,0.16-0.01c0.26,0,0.42,0.09,0.52,0.29c0.13,0.27,0.2,0.67,0.2,1.18c0,0.35-0.03,0.77-0.08,1.25
	c-0.05,0.48-0.13,1.18-0.23,2.1l-0.46,4.08c-0.26,2.09-0.44,3.77-0.56,5c-0.12,1.24-0.17,2.19-0.17,2.84c0,0.45,0.01,0.79,0.04,1.02
	L119.71,45.27z M156.29,41.21c1.4-0.17,2.77-0.95,4.07-2.31c1.12-1.17,2.17-3.17,3.13-5.97c-0.28,1.64-0.42,2.91-0.42,3.79
	c0,1.08,0.21,1.91,0.62,2.46c0.42,0.57,1.06,0.85,1.89,0.85c0.16,0,0.34-0.01,0.52-0.03c0.98-0.12,1.85-0.54,2.58-1.26
	c0.72-0.7,1.3-1.52,1.73-2.44c0.43-0.91,0.71-1.75,0.84-2.5l0.03-0.16l-1.38-0.13l-0.03,0.12c-0.35,1.28-0.79,2.27-1.29,2.93
	c-0.49,0.65-0.96,1-1.4,1.05c-0.06,0.01-0.11,0.01-0.16,0.01c-0.29,0-0.47-0.12-0.56-0.36c-0.12-0.34-0.18-0.84-0.18-1.49
	c0-1.89,0.57-7.16,1.7-15.65l0.02-0.15l-0.15-0.02c-0.88-0.12-1.78-0.18-2.67-0.18c-0.84,0-1.7,0.05-2.55,0.16
	c-2.44,0.3-4.55,1.18-6.27,2.61c-1.71,1.43-3.02,3.25-3.87,5.4c-0.85,2.15-1.29,4.5-1.29,6.98c0,2.35,0.46,4.04,1.37,5.04
	c0.77,0.85,1.78,1.28,3,1.28C155.81,41.25,156.04,41.24,156.29,41.21z M164.31,21.84c-0.01,2.24-0.39,4.71-1.12,7.34
	c-0.74,2.68-1.68,5-2.81,6.9c-1.1,1.87-2.21,2.88-3.29,3.01c-0.08,0.01-0.16,0.02-0.23,0.02c-1.4,0-2.11-1.76-2.11-5.24
	c0-1.96,0.25-3.86,0.75-5.64c0.49-1.77,1.26-3.26,2.27-4.44c1-1.16,2.24-1.84,3.69-2.02c0.5-0.06,0.97-0.09,1.4-0.09
	C163.41,21.69,163.9,21.74,164.31,21.84z M174.73,38.52l3.54-0.44l-0.01-0.14c-0.05-0.86-0.08-1.55-0.08-2.03
	c0-2.11,0.39-4.5,1.17-7.08c0.78-2.58,1.77-4.83,2.94-6.67c1.15-1.81,2.29-2.8,3.37-2.93c0.1-0.01,0.19-0.02,0.27-0.02
	c0.46,0,0.78,0.17,0.99,0.51c0.26,0.43,0.38,0.93,0.38,1.5c0,1.64-0.23,4.08-0.69,7.26c-0.34,2.48-0.5,4.23-0.5,5.19
	c0,1.3,0.25,2.24,0.73,2.82c0.4,0.47,1.03,0.71,1.88,0.71c0.21,0,0.44-0.01,0.69-0.04c0.98-0.12,1.85-0.54,2.58-1.26
	c0.72-0.7,1.3-1.51,1.73-2.42c0.43-0.9,0.71-1.73,0.84-2.48l0.03-0.16l-1.37-0.18l-0.03,0.13c-0.35,1.31-0.79,2.3-1.29,2.95
	c-0.49,0.63-0.96,0.98-1.41,1.03c-0.05,0.01-0.11,0.01-0.16,0.01c-0.26,0-0.42-0.09-0.52-0.29c-0.13-0.27-0.2-0.68-0.2-1.22
	c0-0.64,0.14-2,0.42-4.05c0.49-3.28,0.74-5.82,0.74-7.54c0-1.52-0.36-2.73-1.06-3.6c-0.59-0.73-1.47-1.1-2.59-1.1
	c-0.23,0-0.48,0.02-0.74,0.05c-1.43,0.18-2.78,1.01-4.02,2.47c-1.11,1.3-2.23,3.45-3.35,6.38c0.07-0.42,0.14-0.86,0.22-1.34
	c0.14-0.91,0.21-1.75,0.21-2.51c0-2.53-0.87-3.81-2.6-3.81c-0.15,0-0.31,0.01-0.48,0.03c-0.98,0.12-1.85,0.54-2.58,1.26
	c-0.72,0.7-1.3,1.52-1.73,2.44c-0.43,0.91-0.71,1.75-0.84,2.5l-0.03,0.16l1.38,0.13l0.03-0.12c0.35-1.28,0.79-2.27,1.29-2.93
	c0.49-0.64,0.96-1,1.4-1.05c0.05-0.01,0.11-0.01,0.16-0.01c0.26,0,0.42,0.09,0.52,0.29c0.13,0.27,0.2,0.67,0.2,1.18
	c0,0.46-0.04,1.06-0.11,1.78c-0.08,0.73-0.21,1.89-0.39,3.49c-0.03,0.36-0.06,0.72-0.11,1.09c-0.05,0.37-0.09,0.73-0.12,1.06
	c-0.05,0.38-0.08,0.64-0.08,0.78c-0.24,1.88-0.41,3.33-0.52,4.44c-0.12,1.12-0.17,2.01-0.17,2.63c0,0.46,0.01,0.79,0.04,1.02
	L174.73,38.52z M197.94,17.05l0.09-0.11c1.01-1.24,1.81-2.65,2.36-4.2c0.56-1.55,0.84-2.89,0.84-3.98c0-0.91-0.24-1.65-0.72-2.18
	c-0.41-0.47-0.94-0.7-1.58-0.7c-0.11,0-0.23,0.01-0.35,0.02c-0.65,0.08-1.2,0.36-1.64,0.82c-0.44,0.47-0.66,1.06-0.66,1.77
	c0,0.51,0.18,0.94,0.55,1.29c0.31,0.3,0.68,0.45,1.1,0.45c0.07,0,0.15,0,0.23-0.01c0.28-0.03,0.56-0.11,0.79-0.22v0.1
	c0,1.01-0.23,2.1-0.69,3.26c-0.46,1.16-0.94,2.09-1.45,2.75l-0.1,0.13L197.94,17.05z M208.6,34.78c1.43-0.18,2.72-0.59,3.85-1.22
	c1.12-0.63,2.01-1.43,2.62-2.38c0.62-0.95,0.93-1.99,0.93-3.1c0-0.93-0.26-1.75-0.78-2.44c-0.51-0.67-1.14-1.24-1.88-1.69
	c-0.72-0.44-1.67-0.93-2.84-1.46c-1.38-0.62-2.41-1.19-3.06-1.69c-0.64-0.48-0.94-1.06-0.94-1.76c0-0.83,0.35-1.57,1.05-2.21
	c0.71-0.65,1.5-1.03,2.37-1.13c0.25-0.03,0.49-0.05,0.71-0.05c0.48,0,0.89,0.07,1.22,0.21c0.45,0.19,0.75,0.47,0.9,0.84
	c-0.22,0.39-0.33,0.82-0.33,1.25c0,0.46,0.17,0.84,0.49,1.14c0.28,0.25,0.61,0.38,0.99,0.38c0.08,0,0.15,0,0.23-0.01
	c0.5-0.06,0.93-0.29,1.26-0.68c0.33-0.39,0.5-0.88,0.5-1.45c0-1.17-0.61-2.06-1.81-2.65c-0.88-0.44-1.88-0.66-2.98-0.66
	c-0.36,0-0.73,0.02-1.11,0.07c-1.3,0.16-2.49,0.55-3.52,1.16c-1.03,0.61-1.85,1.37-2.43,2.25c-0.58,0.89-0.88,1.83-0.88,2.78
	c0,1.13,0.44,2.05,1.31,2.75c0.84,0.67,2.11,1.4,3.76,2.15c1.45,0.66,2.54,1.27,3.26,1.82c0.69,0.53,1.02,1.18,1.02,1.99
	c0,1.14-0.34,2.06-1.02,2.75c-0.68,0.69-1.7,1.12-3.02,1.29c-0.18,0.02-0.36,0.03-0.54,0.03l0,0c-0.49,0-0.96-0.09-1.39-0.26
	c-0.55-0.22-0.91-0.55-1.09-0.99c0.22-0.39,0.33-0.82,0.33-1.26c0-0.48-0.16-0.88-0.47-1.2c-0.26-0.27-0.61-0.4-1.03-0.4
	c-0.08,0-0.17,0.01-0.26,0.02c-0.5,0.06-0.93,0.31-1.28,0.74c-0.34,0.43-0.52,0.93-0.52,1.51c0,1.32,0.65,2.31,1.92,2.93
	c0.93,0.45,2,0.68,3.17,0.68C207.74,34.86,208.16,34.84,208.6,34.78z M92.68,81.46l9.21-1.13c1.46-0.18,2.79-0.61,3.94-1.27
	c1.16-0.67,2.09-1.56,2.75-2.63c0.67-1.08,1.01-2.32,1.01-3.68c0-1.65-0.59-2.91-1.77-3.75c-0.82-0.59-1.9-0.9-3.23-0.94
	c0.91-0.45,1.68-1.02,2.28-1.7c0.94-1.06,1.45-2.18,1.52-3.33c0.13-1.91-0.48-3.27-1.81-4.03c-0.9-0.52-2.13-0.79-3.63-0.79
	c-0.62,0-1.31,0.05-2.04,0.14l-3.59,0.47c-0.71,0.11-1.79,0.25-3.24,0.43l-0.25,0.03l-0.13,2l2.19-0.39
	c-0.08,0.59-0.13,1.28-0.15,2.05l-0.67,12.93c-0.06,1.09-0.13,1.87-0.2,2.3c-0.06,0.39-0.23,0.73-0.5,1.03
	c-0.27,0.29-0.73,0.49-1.36,0.58l-0.25,0.04L92.68,81.46z M98.54,70.2c0.9-0.16,1.88-0.31,2.9-0.43c0.34-0.04,0.66-0.06,0.97-0.06
	c0.97,0,1.8,0.21,2.45,0.63c0.83,0.53,1.25,1.52,1.25,2.95c0,1.52-0.47,2.75-1.39,3.67c-0.94,0.92-2.23,1.49-3.85,1.69l-1.04,0.13
	c-0.79,0.1-1.4,0.16-1.81,0.19c0.06-0.49,0.12-1.18,0.16-2.07L98.54,70.2z M103.99,60.47c0.73,0.39,1.11,1.22,1.11,2.48
	c0,1.25-0.38,2.38-1.11,3.34c-0.73,0.96-1.91,1.57-3.5,1.82c-0.71,0.12-1.33,0.22-1.86,0.29l0.29-5.36
	c0.04-0.77,0.12-1.36,0.25-1.76c0.11-0.35,0.31-0.63,0.58-0.81c0.29-0.2,0.75-0.34,1.35-0.41c0.28-0.04,0.56-0.05,0.83-0.05
	C102.7,60,103.4,60.15,103.99,60.47z M114.93,78.18c1.07-0.13,2.12-0.72,3.11-1.76c0.6-0.63,1.18-1.58,1.73-2.84
	c-0.05,0.43-0.07,0.8-0.07,1.11c0,0.84,0.17,1.49,0.49,1.92c0.35,0.47,0.87,0.7,1.55,0.7c0.13,0,0.26-0.01,0.41-0.03
	c0.77-0.1,1.44-0.42,2.01-0.98c0.54-0.53,0.99-1.15,1.31-1.85c0.32-0.68,0.54-1.32,0.64-1.89l0.06-0.33l-1.38-0.13l-0.07,0.25
	c-0.25,0.92-0.56,1.62-0.91,2.09c-0.33,0.43-0.63,0.66-0.9,0.7c-0.03,0-0.07,0.01-0.1,0.01c-0.15,0-0.2-0.05-0.23-0.14
	c-0.08-0.23-0.12-0.57-0.12-1.03c0-1.39,0.42-5.24,1.25-11.47l0.04-0.3l-0.3-0.04c-0.65-0.09-1.32-0.13-1.99-0.13
	c-0.62,0-1.26,0.04-1.9,0.12c-1.83,0.23-3.41,0.88-4.7,1.96c-1.28,1.07-2.26,2.43-2.9,4.04c-0.64,1.6-0.96,3.35-0.96,5.2
	c0,1.78,0.36,3.07,1.06,3.83c0.61,0.66,1.4,1,2.35,1C114.56,78.21,114.74,78.2,114.93,78.18z M120.6,63.92
	c-0.03,1.58-0.3,3.33-0.81,5.18c-0.54,1.95-1.23,3.64-2.04,5.02c-0.78,1.32-1.54,2.03-2.27,2.12c-0.05,0.01-0.1,0.01-0.15,0.01
	c-1.12,0-1.35-1.99-1.35-3.65c0-1.42,0.18-2.8,0.54-4.09c0.36-1.27,0.9-2.35,1.63-3.18c0.7-0.81,1.57-1.29,2.59-1.42
	c0.36-0.04,0.7-0.07,1-0.07C120.06,63.84,120.35,63.87,120.6,63.92z M127.26,76.35l2.92-0.36l-0.02-0.29
	c-0.04-0.63-0.06-1.12-0.06-1.48c0-1.3,0.21-2.77,0.62-4.38l0.52-0.08c0.05,0,0.1-0.01,0.14-0.01c0.34,0,0.6,0.11,0.8,0.35
	c0.27,0.31,0.59,0.95,0.96,1.89c0.52,1.31,1.04,2.25,1.55,2.78c0.47,0.5,1.04,0.75,1.7,0.75c0.11,0,0.22-0.01,0.34-0.02
	c0.89-0.11,1.64-0.54,2.21-1.29c0.54-0.71,0.92-1.57,1.12-2.54l0.07-0.35l-1.41-0.08l-0.06,0.25c-0.14,0.6-0.31,1.04-0.49,1.31
	c-0.16,0.23-0.33,0.35-0.55,0.37l-0.07,0.01c-0.22,0-0.42-0.14-0.61-0.44c-0.27-0.42-0.64-1.13-1.1-2.11
	c-0.35-0.74-0.71-1.23-1.11-1.51c-0.12-0.08-0.24-0.15-0.39-0.21c0.71-0.31,1.36-0.69,1.92-1.14c0.86-0.68,1.51-1.43,1.94-2.23
	c0.43-0.8,0.65-1.59,0.65-2.34c0-0.92-0.26-1.69-0.77-2.29c-0.44-0.52-1.07-0.78-1.85-0.78c-0.15,0-0.31,0.01-0.48,0.03
	c-1.17,0.14-2.25,0.77-3.2,1.86c-0.68,0.78-1.34,1.96-1.95,3.51c0.18-2.28,0.41-4.48,0.67-6.54l0.08-0.74
	c0.27-2.03,0.47-3.38,0.62-4.15l0.08-0.42l-1.3,0.16l-0.09,0.04l-0.04,0.04c-0.25,0.25-0.61,0.47-1.05,0.64
	c-0.46,0.18-1.24,0.34-2.32,0.47l-0.24,0.03l-0.18,1.8l1.96-0.35l-0.18,1.11c-0.32,2.12-0.64,5.26-0.95,9.32
	c-0.31,4.07-0.47,6.87-0.47,8.3c0,0.34,0.01,0.59,0.03,0.77L127.26,76.35z M135.71,62.47c0.15,0.29,0.22,0.66,0.22,1.08
	c0,1.36-0.44,2.47-1.32,3.29c-0.81,0.76-1.98,1.26-3.47,1.51c0.5-1.6,1.11-3,1.82-4.17c0.74-1.22,1.45-1.88,2.1-1.96
	c0.06-0.01,0.11-0.01,0.16-0.01C135.47,62.21,135.62,62.29,135.71,62.47z M146.96,74.24c1.34-0.17,2.54-0.68,3.57-1.52
	c1.01-0.84,1.94-2.08,2.75-3.71l0.14-0.29l-1.5-0.68l-0.13,0.26c-0.58,1.17-1.27,2.09-2.05,2.73c-0.76,0.64-1.56,1.01-2.37,1.11
	c-0.14,0.02-0.28,0.03-0.41,0.03c-0.77,0-1.34-0.3-1.74-0.92c-0.47-0.73-0.72-1.91-0.74-3.5c2.14-0.52,4.05-1.27,5.7-2.23
	c1.78-1.04,2.68-2.33,2.68-3.84c0-1.23-0.43-2.1-1.29-2.6c-0.62-0.36-1.36-0.54-2.2-0.54c-0.26,0-0.54,0.02-0.83,0.05
	c-1.53,0.19-2.86,0.78-3.94,1.76c-1.07,0.97-1.89,2.18-2.42,3.6c-0.53,1.41-0.8,2.91-0.8,4.48c0,1.98,0.47,3.51,1.4,4.54
	c0.78,0.87,1.88,1.31,3.27,1.31C146.32,74.3,146.64,74.28,146.96,74.24z M149.44,60.57c0.3,0.31,0.44,0.72,0.44,1.27
	c0,0.91-0.55,1.76-1.63,2.52c-1.04,0.73-2.29,1.31-3.71,1.72c0.14-1.49,0.51-2.8,1.09-3.9c0.61-1.15,1.48-1.81,2.58-1.94
	c0.1-0.01,0.2-0.02,0.29-0.02C148.9,60.22,149.21,60.33,149.44,60.57z M156.7,72.74l2.95-0.36l-0.02-0.29
	c-0.04-0.63-0.06-1.03-0.06-1.2c0-1.46,0.24-3.14,0.7-4.98c0.47-1.84,1.08-3.45,1.82-4.78c0.7-1.26,1.41-1.95,2.1-2.03
	c0,0,0.01,0,0.02,0c0.08,0.33,0.25,0.58,0.5,0.76c0.25,0.18,0.54,0.27,0.87,0.27c0.07,0,0.15,0,0.23-0.01
	c0.46-0.06,0.84-0.27,1.14-0.64c0.29-0.36,0.44-0.76,0.44-1.19c0-0.62-0.23-1.09-0.69-1.39c-0.34-0.23-0.75-0.34-1.22-0.34
	c-0.13,0-0.27,0.01-0.42,0.03c-1.1,0.13-2.13,0.75-3.06,1.83c-0.58,0.67-1.14,1.62-1.67,2.84c0.03-0.37,0.05-0.7,0.05-1
	c0-0.95-0.18-1.68-0.54-2.17c-0.33-0.44-0.82-0.66-1.47-0.66c-0.13,0-0.26,0.01-0.4,0.03c-0.77,0.09-1.44,0.42-2.01,0.98
	c-0.54,0.53-0.99,1.15-1.31,1.85c-0.32,0.68-0.54,1.32-0.64,1.88l-0.06,0.33l1.38,0.13l0.07-0.25c0.25-0.92,0.56-1.62,0.91-2.09
	c0.32-0.42,0.63-0.66,0.9-0.7c0.03,0,0.06-0.01,0.09-0.01c0.16,0,0.19,0.06,0.21,0.1c0.08,0.17,0.13,0.44,0.13,0.78
	c0,0.31-0.06,0.97-0.17,1.95l-0.37,3.34c-0.3,2.76-0.46,4.75-0.46,5.91c0,0.34,0.01,0.59,0.03,0.77L156.7,72.74z M170.09,78.81
	c1.24-0.15,2.52-0.92,3.79-2.27c1.24-1.32,2.57-3.35,3.94-6.03c1.16-2.23,2.09-4.35,2.77-6.33c0.69-1.99,1.04-3.89,1.04-5.64
	c0-1.07-0.19-1.97-0.58-2.66c-0.37-0.67-0.94-1.02-1.7-1.02c-0.11,0-0.22,0.01-0.34,0.02c-0.43,0.05-0.8,0.23-1.11,0.52
	c-0.33,0.31-0.5,0.71-0.5,1.19c0,0.39,0.14,0.72,0.41,0.97c0.23,0.21,0.52,0.32,0.86,0.32c0.07,0,0.14,0,0.21-0.01
	c0.2-0.03,0.39-0.07,0.55-0.14c0.04,0.11,0.09,0.25,0.12,0.41c0.08,0.33,0.12,0.71,0.12,1.13c0,1.38-0.31,2.98-0.92,4.77
	c-0.52,1.52-1.15,3.03-1.88,4.47c-0.12-0.9-0.23-1.56-0.32-1.98c-0.41-1.78-0.78-3.27-1.08-4.43c-0.31-1.16-0.66-2.24-1.03-3.21
	c-0.35-0.94-0.78-1.7-1.28-2.26c-0.45-0.52-1.07-0.78-1.82-0.78c-0.14,0-0.29,0.01-0.44,0.03c-1.03,0.13-1.79,0.67-2.24,1.61
	c-0.43,0.88-0.64,1.92-0.64,3.08c0,0.39,0.01,0.69,0.03,0.88l0.04,0.35l1.51-0.37l-0.03-0.27c-0.02-0.16-0.03-0.39-0.03-0.7
	c0-0.63,0.09-1.15,0.27-1.52c0.15-0.32,0.33-0.49,0.54-0.52c0.03,0,0.06-0.01,0.09-0.01c0.15,0,0.25,0.05,0.34,0.16
	c0.16,0.2,0.34,0.52,0.56,0.95c0.75,1.73,1.43,3.75,2.03,6.01c0.59,2.24,1.06,4.5,1.4,6.73c-0.51,0.93-1.17,1.9-1.95,2.9
	c-0.77,0.99-1.48,1.49-2.15,1.53c-0.06,0-0.14-0.01-0.24-0.04c-0.02-0.45-0.15-0.8-0.38-1.05c-0.24-0.25-0.56-0.38-0.94-0.38
	c-0.08,0-0.16,0-0.24,0.01c-0.36,0.04-0.69,0.23-0.98,0.55c-0.3,0.32-0.45,0.73-0.45,1.21c0,0.62,0.26,1.11,0.77,1.45
	c0.38,0.26,0.85,0.39,1.39,0.39C169.76,78.84,169.92,78.83,170.09,78.81z"/>
</svg>
